<?xml version="1.0" encoding="UTF-8" standalone="no"?>
<!-- Created with Inkscape (http://www.inkscape.org/) -->

<svg
   xmlns:dc="http://purl.org/dc/elements/1.1/"
   xmlns:cc="http://creativecommons.org/ns#"
   xmlns:rdf="http://www.w3.org/1999/02/22-rdf-syntax-ns#"
   xmlns:svg="http://www.w3.org/2000/svg"
   xmlns="http://www.w3.org/2000/svg"
   xmlns:sodipodi="http://sodipodi.sourceforge.net/DTD/sodipodi-0.dtd"
   xmlns:inkscape="http://www.inkscape.org/namespaces/inkscape"
   sodipodi:docname="player2.svg"
   inkscape:version="0.92.2 (5c3e80d, 2017-08-06)"
   id="svg296"
   version="1.1"
   viewBox="0 0 65.3498 67.442688"
   height="67.442688mm"
   width="65.3498mm">
  <defs
     id="defs290">
    <filter
       inkscape:label="Black Hole"
       inkscape:menu="Morphology"
       inkscape:menu-tooltip="Creates a black light inside and outside"
       height="1.5"
       width="1.5"
       y="-0.25"
       x="-0.25"
       style="color-interpolation-filters:sRGB"
       id="filter2197">
      <feGaussianBlur
         stdDeviation="5"
         in="SourceAlpha"
         result="result1"
         id="feGaussianBlur2185" />
      <feComposite
         operator="arithmetic"
         k2="-7.4"
         k1="-8.08"
         k4="-7.4"
         result="result3"
         in2="result1"
         id="feComposite2187"
         k3="-6.98" />
      <feColorMatrix
         values="1 0 0 0 0 0 1 0 0 0 0 0 1 0 0 0 0 0 10 0 "
         result="result2"
         id="feColorMatrix2189" />
      <feComposite
         result="fbSourceGraphic"
         in="SourceGraphic"
         operator="out"
         in2="result2"
         id="feComposite2191" />
      <feBlend
         mode="multiply"
         in="result1"
         in2="fbSourceGraphic"
         result="result91"
         id="feBlend2193" />
      <feBlend
         mode="screen"
         in="fbSourceGraphic"
         in2="result91"
         id="feBlend2195" />
    </filter>
    <filter
       style="color-interpolation-filters:sRGB;"
       inkscape:label="Brilliance"
       id="filter750">
      <feColorMatrix
         values="1.27 -1.41 -1.41 0 0 -1.41 1.27 -1.41 0 0 -1.41 -1.41 1.27 0 0 0 0 0 1 0 "
         id="feColorMatrix748"
         result="fbSourceGraphic" />
      <feColorMatrix
         result="fbSourceGraphicAlpha"
         in="fbSourceGraphic"
         values="0 0 0 -1 0 0 0 0 -1 0 0 0 0 -1 0 0 0 0 1 0"
         id="feColorMatrix752" />
      <feColorMatrix
         id="feColorMatrix754"
         values="1.27 -1.41 -1.41 0 0 -1.41 1.27 -1.41 0 0 -1.41 -1.41 1.27 0 0 0 0 0 1 0 "
         in="fbSourceGraphic" />
    </filter>
  </defs>
  <sodipodi:namedview
     inkscape:pagecheckerboard="false"
     fit-margin-bottom="0"
     fit-margin-right="0"
     fit-margin-left="0"
     fit-margin-top="0"
     inkscape:window-maximized="1"
     inkscape:window-y="-9"
     inkscape:window-x="-9"
     inkscape:window-height="1001"
     inkscape:window-width="1920"
     showgrid="false"
     inkscape:current-layer="layer1"
     inkscape:document-units="mm"
     inkscape:cy="55.754704"
     inkscape:cx="136.18053"
     inkscape:zoom="1.5"
     inkscape:pageshadow="2"
     inkscape:pageopacity="0"
     borderopacity="1.0"
     bordercolor="#666666"
     pagecolor="#800080"
     id="base" />
  <metadata
     id="metadata293">
    <rdf:RDF>
      <cc:Work
         rdf:about="">
        <dc:format>image/svg+xml</dc:format>
        <dc:type
           rdf:resource="http://purl.org/dc/dcmitype/StillImage" />
        <dc:title />
      </cc:Work>
    </rdf:RDF>
  </metadata>
  <g
     inkscape:label="Capa 1"
     inkscape:groupmode="layer"
     id="layer1"
     transform="translate(-17.603917,-14.53544)"
     style="display:inline">
    <g
       id="g546"
       transform="matrix(0.82668701,0,0,0.7967112,-73.458518,-65.502199)"
       style="filter:url(#filter750)">
      <g
         id="g2183"
         style="filter:url(#filter2197)">
        <path
           inkscape:connector-curvature="0"
           id="path340"
           style="fill:#f0451d;fill-opacity:1;fill-rule:nonzero;stroke:none;stroke-width:0.03307291"
           d="m 169.92868,167.40836 c -1.21311,-1.85972 -2.88131,-3.45122 -4.83361,-4.50889 0.13725,-0.81522 0.66147,-1.52926 1.31499,-2.03568 0.65351,-0.50671 1.38177,-0.81855 2.16594,-1.08108 0.56092,2.0531 1.68507,3.9495 3.217,5.42759 -0.5983,0.7113 -1.26604,1.4866 -1.86432,2.19806" />
        <path
           inkscape:connector-curvature="0"
           id="path342"
           style="fill:#f8a10e;fill-opacity:1;fill-rule:nonzero;stroke:none;stroke-width:0.03307291"
           d="m 171.38191,166.26655 c -1.53359,-1.85697 -2.84097,-3.90052 -3.88342,-6.07146 -0.74249,0.27983 -1.36294,0.81816 -1.79885,1.48104 1.82199,1.66813 3.54543,3.48456 5.11771,5.38986 0.17231,-0.212 0.39225,-0.58744 0.56456,-0.79944" />
        <path
           inkscape:connector-curvature="0"
           id="path344"
           style="fill:#fcd57e;fill-opacity:1;fill-rule:nonzero;stroke:none;stroke-width:0.03307291"
           d="m 171.47881,166.78887 c -1.75683,-1.91796 -3.26761,-4.06112 -4.48402,-6.35995 -0.41275,0.14522 -0.73754,0.43848 -0.94622,0.82322 1.93112,1.78851 3.66976,3.79743 5.22122,5.92365 0.0701,-0.11211 0.13858,-0.27477 0.20902,-0.38692" />
        <path
           inkscape:connector-curvature="0"
           id="path346"
           style="fill:#358aa8;fill-opacity:1;fill-rule:nonzero;stroke:none;stroke-width:0.03307291"
           d="m 173.80482,166.45775 c 0.56225,0.50436 0.72463,1.40133 0.37538,2.07106 -0.34957,0.66972 -1.17806,1.04943 -1.91359,0.87709 -0.31354,0.4408 -0.85924,0.79038 -1.39469,0.86621 -0.53579,0.0753 -1.1,-0.0788 -1.523,-0.41572 -0.0231,0.4151 -0.31884,0.84273 -0.70942,0.98391 -0.39093,0.14123 -0.86089,0.0274 -1.14367,-0.27685 -0.28309,-0.30424 -0.36247,-0.78121 -0.19314,-1.16092 0.17198,-0.38626 0.551,-0.6316 0.90983,-0.85524 -0.38332,-0.41509 -0.41142,-1.04735 -0.21101,-1.57585 0.20043,-0.52828 0.64526,-0.94066 1.15525,-1.18471 0.50966,-0.24404 1.08116,-0.33344 1.64604,-0.35153 0.13262,-0.60097 0.56521,-1.09604 1.06527,-1.45495 0.20705,-0.14843 0.44947,-0.26858 0.70445,-0.26223 0.25499,0.007 0.51827,0.17102 0.5715,0.42036 0.19943,-0.14559 0.5338,-0.23717 0.76234,-0.3311 0.22853,-0.0935 0.48947,-0.1306 0.72297,-0.0503 0.36017,0.12403 0.58506,0.51535 0.58672,0.89595 0.002,0.38073 -0.18654,0.74245 -0.44218,1.02463 -0.25567,0.28215 -0.6522,0.56919 -0.96905,0.78016" />
        <path
           inkscape:connector-curvature="0"
           id="path348"
           style="fill:#204c7a;fill-opacity:1;fill-rule:nonzero;stroke:none;stroke-width:0.03307291"
           d="m 175.13369,164.25906 c -0.0962,-0.2288 -0.27119,-0.42168 -0.50436,-0.50205 -0.2335,-0.0803 -0.49444,-0.0433 -0.72297,0.0503 -0.22854,0.0939 -0.56291,0.18551 -0.76234,0.33109 -0.0532,-0.24933 -0.31651,-0.41377 -0.5715,-0.42035 -0.25498,-0.006 -0.4974,0.1138 -0.70445,0.26223 -0.50006,0.35891 -0.93265,0.85398 -1.06527,1.45495 -0.56488,0.0181 -1.13638,0.10748 -1.64604,0.35153 -0.50999,0.24404 -0.95482,0.65643 -1.15525,1.1847 -0.20041,0.52851 -0.17231,1.16076 0.21135,1.57586 -0.35917,0.22364 -0.73819,0.46897 -0.91017,0.85523 -0.16933,0.37972 -0.09,0.85669 0.19314,1.16093 l 0.039,0.0357 c 0.0589,0.0421 0.11973,0.0831 0.18423,0.12145 0.20042,-0.34003 0.40117,-0.68031 0.60158,-1.02037 0.21829,-0.37065 0.44087,-0.74646 0.75076,-1.04474 0.46071,-0.44354 1.1063,-0.68782 1.74493,-0.66109 -0.0387,-1.09306 0.94556,-2.05555 2.03563,-2.14148 -7.9e-4,-0.30721 0.22061,-0.60163 0.51594,-0.68662 0.29502,-0.0853 0.63898,0.0466 0.80203,0.30695 0.46401,-0.14354 0.85824,-0.68524 0.96374,-1.21414" />
        <path
           inkscape:connector-curvature="0"
           id="path350"
           style="fill:#fcd57e;fill-opacity:1;fill-rule:nonzero;stroke:none;stroke-width:0.03307291"
           d="m 173.14402,164.13838 c 0.17,-0.12995 0.3744,-0.20644 0.56986,-0.28704 0.19248,-0.0778 0.39488,-0.18022 0.62044,-0.18554 0.22225,-0.0163 0.45906,0.0628 0.62806,0.2195 0.17066,0.15386 0.28211,0.36678 0.32379,0.59234 0.082,0.46342 -0.12469,0.91688 -0.41044,1.25227 -0.29435,0.33665 -0.6446,0.5926 -0.99549,0.84101 l 0.0152,-0.21431 c 0.61448,0.54931 0.7944,1.50082 0.4187,2.24198 -0.38366,0.73458 -1.26836,1.15689 -2.08361,0.96103 l 0.16471,-0.0621 c -0.3562,0.4785 -0.87842,0.81323 -1.46976,0.91414 -0.58803,0.0886 -1.20121,-0.0778 -1.66091,-0.44946 l 0.21926,-0.0982 c -0.044,0.47387 -0.34429,0.89786 -0.78613,1.0715 -0.44219,0.15941 -0.95218,0.0278 -1.26075,-0.3102 -0.30791,-0.34131 -0.36744,-0.85629 -0.17298,-1.25148 0.2011,-0.40021 0.58904,-0.62385 0.94887,-0.82655 -0.34064,0.23511 -0.70413,0.48885 -0.86288,0.86584 -0.1561,0.37039 -0.0575,0.82256 0.21134,1.09541 0.26855,0.27477 0.71272,0.36443 1.05668,0.22129 0.33934,-0.14287 0.58209,-0.52023 0.59565,-0.88083 l 0.01,-0.26187 0.20935,0.16332 c 0.40382,0.31521 0.9449,0.45475 1.44628,0.37117 0.49544,-0.088 0.96672,-0.39753 1.25876,-0.80734 l 0.0612,-0.0854 0.10351,0.0233 c 0.65948,0.14741 1.42479,-0.18657 1.74361,-0.79312 0.32213,-0.60163 0.17858,-1.43672 -0.33238,-1.90014 l -0.13163,-0.11936 0.14716,-0.0949 c 0.35124,-0.22724 0.70214,-0.46702 0.97995,-0.7617 0.27054,-0.2917 0.46236,-0.68626 0.40779,-1.07719 -0.0298,-0.19185 -0.11212,-0.38163 -0.24937,-0.52219 -0.13559,-0.14184 -0.32807,-0.22297 -0.53148,-0.22261 -0.20603,-0.009 -0.39984,0.0731 -0.6039,0.14122 -0.20175,0.0658 -0.40845,0.12131 -0.58838,0.23614" />
        <path
           inkscape:connector-curvature="0"
           id="path352"
           style="fill:#f0451d;fill-opacity:1;fill-rule:nonzero;stroke:none;stroke-width:0.03307291"
           d="m 168.21286,168.54729 c -0.32379,-0.28512 -0.4488,-0.76094 -0.4015,-1.19591 0.045,-0.4399 0.25233,-0.86817 0.56455,-1.18831 0.31154,-0.32207 0.7114,-0.55229 1.13209,-0.68497 0.42035,-0.13951 0.85923,-0.1872 1.28983,-0.19871 l -0.14716,0.12237 c 0.14287,-0.60192 0.55694,-1.07913 1.02493,-1.40986 0.22952,-0.16474 0.50104,-0.33411 0.81127,-0.33579 0.3013,-0.0112 0.62111,0.18825 0.65715,0.48227 -0.0946,-0.27259 -0.39885,-0.39661 -0.64757,-0.35319 -0.25763,0.0439 -0.48351,0.19404 -0.68922,0.37439 -0.41078,0.35451 -0.74679,0.80397 -0.85229,1.30935 l -0.0245,0.11745 -0.1227,0.005 c -0.41176,0.0159 -0.81856,0.0731 -1.20354,0.18954 -0.38297,0.12015 -0.74247,0.30823 -1.03286,0.58109 -0.2927,0.26693 -0.51064,0.6178 -0.58472,1.0161 -0.0814,0.39158 -0.0351,0.829 0.22621,1.16969" />
        <path
           inkscape:connector-curvature="0"
           id="path354"
           style="fill:#f0451d;fill-opacity:1;fill-rule:nonzero;stroke:none;stroke-width:0.03307291"
           d="m 131.8816,158.81301 c 1.30374,-0.73987 2.44574,-1.79758 3.23981,-3.0692 0.54373,0.1266 1.00278,0.50929 1.31698,0.97102 0.31418,0.46133 0.49378,0.96503 0.6383,1.50455 -1.40692,0.29237 -2.73182,0.97059 -3.79147,1.94135 -0.45443,-0.43293 -0.94887,-0.91519 -1.40362,-1.34772" />
        <path
           inkscape:connector-curvature="0"
           id="path356"
           style="fill:#f8a10e;fill-opacity:1;fill-rule:nonzero;stroke:none;stroke-width:0.03307291"
           d="m 132.59068,159.83996 c 1.31498,-0.95614 2.74671,-1.75198 4.25284,-2.36383 -0.15743,-0.51223 -0.49443,-0.95253 -0.92305,-1.27393 -1.1999,1.15818 -2.4957,2.24363 -3.84506,3.22355 0.1356,0.12508 0.37934,0.28912 0.51527,0.41421" />
        <path
           inkscape:connector-curvature="0"
           id="path358"
           style="fill:#fcd57e;fill-opacity:1;fill-rule:nonzero;stroke:none;stroke-width:0.03307291"
           d="m 132.23449,159.88322 c 1.3659,-1.10368 2.8727,-2.0327 4.47245,-2.7563 -0.0804,-0.28407 -0.26459,-0.51534 -0.51528,-0.67178 -1.28587,1.22681 -2.71164,2.31444 -4.20919,3.27098 0.0724,0.0522 0.17959,0.10517 0.25202,0.1571" />
        <path
           inkscape:connector-curvature="0"
           id="path360"
           style="fill:#358aa8;fill-opacity:1;fill-rule:nonzero;stroke:none;stroke-width:0.03307291"
           d="m 132.36083,161.4644 c -0.36347,0.35758 -0.97466,0.42995 -1.41122,0.16639 -0.4369,-0.2633 -0.65815,-0.83741 -0.51131,-1.32589 -0.2841,-0.22956 -0.49709,-0.61185 -0.52553,-0.97602 -0.0284,-0.36407 0.0989,-0.73782 0.34363,-1.00872 -0.27881,-0.0331 -0.55463,-0.24974 -0.63335,-0.51885 -0.079,-0.26925 0.0172,-0.58149 0.23416,-0.75939 0.21663,-0.1779 0.5414,-0.21173 0.79011,-0.0817 0.25301,0.13229 0.40283,0.39754 0.53843,0.64883 0.29567,-0.24107 0.72297,-0.23386 1.07057,-0.0768 0.34792,0.15709 0.60722,0.47426 0.75042,0.82788 0.14321,0.35384 0.17926,0.74245 0.16801,1.12421 0.39952,0.11407 0.71504,0.42618 0.93597,0.77811 0.0916,0.14585 0.16237,0.31419 0.1475,0.48551 -0.0152,0.17168 -0.13692,0.34233 -0.30725,0.3678 0.09,0.14056 0.13758,0.36949 0.1915,0.52748 0.0536,0.15776 0.0675,0.3354 0.004,0.48912 -0.0986,0.23746 -0.37141,0.37286 -0.62806,0.35824 -0.25661,-0.0148 -0.49275,-0.15669 -0.672,-0.34068 -0.17959,-0.18422 -0.3562,-0.46325 -0.48518,-0.6856" />
        <path
           inkscape:connector-curvature="0"
           id="path362"
           style="fill:#204c7a;fill-opacity:1;fill-rule:nonzero;stroke:none;stroke-width:0.03307291"
           d="m 133.78692,162.45129 c 0.1581,-0.0552 0.29535,-0.165 0.35917,-0.31885 0.0638,-0.15372 0.0499,-0.33136 -0.004,-0.48912 -0.0539,-0.15799 -0.10153,-0.38692 -0.19149,-0.52748 0.17033,-0.0255 0.29204,-0.19612 0.30725,-0.3678 0.0149,-0.17132 -0.0559,-0.33966 -0.14751,-0.48551 -0.22096,-0.35193 -0.53648,-0.66404 -0.936,-0.77811 0.0113,-0.38176 -0.0248,-0.77037 -0.16801,-1.12421 -0.1432,-0.35362 -0.4025,-0.67039 -0.75042,-0.82788 -0.3476,-0.1571 -0.7749,-0.16431 -1.07057,0.0768 -0.1356,-0.25129 -0.28542,-0.51654 -0.53843,-0.64883 -0.24871,-0.13007 -0.57348,-0.0962 -0.79011,0.0817 l -0.0258,0.0248 c -0.0308,0.038 -0.0609,0.0774 -0.0896,0.11939 0.22093,0.14919 0.44186,0.29828 0.66278,0.44778 0.24078,0.16238 0.48452,0.32811 0.67271,0.5493 0.27946,0.32878 0.41738,0.77424 0.37273,1.20356 0.73786,0.0192 1.34541,0.72268 1.35797,1.46087 0.20704,0.0123 0.39622,0.17363 0.4412,0.3761 0.045,0.20231 -0.0579,0.42852 -0.24011,0.52774 0.0771,0.31856 0.42598,0.60693 0.77787,0.69983" />
        <path
           inkscape:connector-curvature="0"
           id="path364"
           style="fill:#fcd57e;fill-opacity:1;fill-rule:nonzero;stroke:none;stroke-width:0.03307291"
           d="m 133.95096,161.11584 c 0.0804,0.12002 0.12371,0.26095 0.16968,0.39585 0.0443,0.13292 0.10516,0.27348 0.0992,0.42605 0.002,0.15038 -0.0615,0.30658 -0.17398,0.41367 -0.11079,0.10878 -0.25895,0.17493 -0.41275,0.19381 -0.31583,0.0358 -0.6125,-0.12237 -0.82648,-0.32868 -0.21464,-0.21266 -0.37273,-0.45915 -0.5252,-0.70614 l 0.14354,0.0195 c -0.39588,0.39097 -1.04411,0.47259 -1.5283,0.18826 -0.4789,-0.28876 -0.72661,-0.90253 -0.56059,-1.44373 l 0.0351,0.11344 c -0.30758,-0.25992 -0.51131,-0.62567 -0.55463,-1.0285 -0.0354,-0.39982 0.10252,-0.80625 0.37207,-1.10031 l 0.0569,0.15181 c -0.31717,-0.0496 -0.59068,-0.26964 -0.68924,-0.57451 -0.089,-0.30427 0.0208,-0.64261 0.26161,-0.83638 0.24276,-0.19354 0.59234,-0.21203 0.85064,-0.0645 0.26127,0.15207 0.39555,0.42297 0.51726,0.67363 -0.1442,-0.23915 -0.29997,-0.49467 -0.54736,-0.61741 -0.24342,-0.12041 -0.55199,-0.0731 -0.74712,0.0969 -0.19612,0.16937 -0.27516,0.46497 -0.19314,0.7028 0.0824,0.23449 0.32643,0.41368 0.56885,0.43785 l 0.17595,0.0176 -0.11873,0.13461 c -0.2292,0.25863 -0.34595,0.6178 -0.31023,0.95872 0.0384,0.33747 0.22755,0.6682 0.49114,0.88212 l 0.0552,0.0447 -0.0202,0.0687 c -0.12667,0.43821 0.0665,0.96804 0.46203,1.20782 0.39192,0.24249 0.96077,0.18058 1.29415,-0.14459 l 0.086,-0.0836 0.0579,0.10282 c 0.13825,0.246 0.28509,0.49275 0.47228,0.69222 0.18521,0.19443 0.44318,0.34028 0.70876,0.31975 0.1303,-0.0121 0.26194,-0.0598 0.36215,-0.14612 0.1012,-0.0857 0.16404,-0.212 0.17231,-0.34895 0.0146,-0.13848 -0.0324,-0.27246 -0.0698,-0.41302 -0.0364,-0.13861 -0.0651,-0.28022 -0.13494,-0.40617" />
        <path
           inkscape:connector-curvature="0"
           id="path366"
           style="fill:#f0451d;fill-opacity:1;fill-rule:nonzero;stroke:none;stroke-width:0.03307291"
           d="m 131.18575,157.60909 c 0.20571,-0.20608 0.53148,-0.27054 0.82252,-0.22053 0.29468,0.0485 0.57448,0.20631 0.77721,0.42995 0.20406,0.22324 0.34264,0.50228 0.41441,0.7914 0.0764,0.28902 0.0903,0.58668 0.08,0.87749 l -0.0761,-0.10428 c 0.39952,0.12144 0.70378,0.41999 0.90718,0.74943 0.10154,0.16137 0.20407,0.35153 0.19249,0.56032 -0.005,0.20373 -0.1528,0.4107 -0.35256,0.42297 0.18786,-0.0522 0.28409,-0.25231 0.26524,-0.42168 -0.0192,-0.17558 -0.11079,-0.3341 -0.22357,-0.47995 -0.22158,-0.29157 -0.51065,-0.53664 -0.84666,-0.62902 l -0.0784,-0.0211 0.002,-0.0831 c 0.007,-0.27814 -0.0152,-0.5546 -0.0774,-0.81895 -0.0648,-0.26316 -0.17694,-0.51326 -0.34826,-0.71996 -0.16801,-0.20839 -0.39522,-0.37002 -0.66046,-0.43653 -0.26029,-0.0711 -0.55728,-0.0583 -0.79772,0.10348" />
        <path
           inkscape:connector-curvature="0"
           id="path368"
           style="fill:#f0451d;fill-opacity:1;fill-rule:nonzero;stroke:none;stroke-width:0.03307291"
           d="m 134.77382,148.51698 0.0622,-1.03145 2.34751,-3.39 7.2347,3.05927 3.43132,-8.06155 7.9375,-0.28939 2.1084,-6.5319 6.76539,2.06706 0.46931,7.31738 -1.81901,6.86058 c 0,0 -4.17546,6.65801 -4.29948,6.65801 -0.12403,0 -9.05967,-1.28158 -9.05967,-1.28158 l -3.79743,5.00228 -5.58105,-2.19108 -4.89876,-4.79557 -1.62752,-1.44694 0.72661,-1.94512" />
        <path
           inkscape:connector-curvature="0"
           id="path370"
           style="fill:#c0164c;fill-opacity:1;fill-rule:nonzero;stroke:none;stroke-width:0.03307291"
           d="m 163.56711,153.32588 c 0.37438,1.17201 0.55627,2.49261 0.52255,3.72262 -0.10684,-0.18848 -0.22391,-0.3006 -0.39391,-0.43524 -1.16086,1.67948 -2.17917,3.50937 -3.23817,5.25499 0.13792,0.14688 0.32909,0.33434 0.46699,0.48148 1.27167,0.17932 2.59128,0.50284 3.80505,0.92309 1.90863,-0.35321 3.72896,-1.46608 4.92423,-2.99544 -0.0701,-1.50843 0.51627,-2.96621 1.17772,-4.32349 0.66145,-1.35768 1.49953,-2.69389 1.80909,-4.17185 0.7481,-0.79673 2.62466,-2.02635 2.62466,-2.02635 0,0 1.32623,-4.40012 0.26888,-6.35469 -0.70609,-0.39357 -1.32952,-0.84932 -1.96121,-1.35401 -0.20242,0.14651 -0.40382,0.31519 -0.60623,0.4617 -0.98393,-0.21894 -1.89112,-0.59597 -2.753,-1.11886 -0.90982,0.66973 -2.94745,1.68308 -2.94745,1.68308 0,0 -1.1387,1.41354 -1.45224,2.25693 0.0552,0.29392 0.0962,0.60811 0.15149,0.9019 -1.26107,-0.29339 -2.46063,-0.50565 -3.74683,-0.65421 -1.23561,1.63115 -2.17092,3.48955 -2.74506,5.45365 1.22238,0.73201 2.89421,1.52473 4.09344,2.2947 z m 9.8114,-11.67146 c -0.16569,-0.9105 -0.51163,-2.73183 -0.51163,-2.73183 0,0 0.15148,-1.1516 0.15511,-1.73897 -0.58969,-0.53314 -1.14961,-1.08678 -1.64042,-1.71186 0.0205,-0.56455 -0.16569,-1.67249 -0.16569,-1.67249 0,0 -0.42962,-0.79309 -0.65451,-1.1817 -0.83411,-1.44065 -1.69333,-2.87602 -2.32305,-4.41722 -0.59497,-1.45587 -3.23982,-2.79499 -4.06731,-2.76787 0,0 -1.37749,-0.038 -2.07002,0.0427 -0.49049,-0.22225 -1.50516,-0.43822 -1.50516,-0.43822 0,0 -1.00244,0.11973 -1.50945,0.20307 -0.5027,-0.29468 -1.50944,-0.78217 -1.50944,-0.78217 0,0 -1.0914,-0.21928 -1.66887,-0.23747 -0.87576,-0.62111 -1.84712,-1.05568 -2.88064,-1.3454 -0.59598,0.18818 -1.15557,0.4908 -1.6391,0.88668 1.07586,0.59598 2.11436,1.27959 3.08736,2.03134 -0.42169,0.72 -0.90455,1.42941 -1.4519,2.05978 0.0453,0.21531 0.0986,0.41606 0.19909,0.61185 0.62443,0.22655 1.24885,0.45244 1.8726,0.67932 -0.0367,0.56555 -0.079,1.12448 -0.21135,1.67547 1.78661,1.31101 3.6582,2.58631 5.4782,3.85101 0.0334,0.39886 0.0344,0.84865 0.0314,1.24917 1.0676,0.56687 2.10179,1.20054 3.09331,1.89144 0.0797,1.92186 -0.0222,3.8348 -0.36347,5.7279 0.62673,0.20869 1.24454,0.3853 1.89607,0.49411 1.15226,-1.07653 2.16331,-2.28634 3.00269,-3.62149 -0.12799,0.32643 -0.28343,0.70809 -0.41143,1.03452 1.18765,-0.68791 2.30783,-1.33052 3.49549,-2.01844 -0.0397,0.41738 -0.0814,0.82749 -0.12106,1.24487 0.52356,0.57778 1.15856,1.06858 1.8425,1.44297 0.19976,-0.12568 0.36181,-0.32015 0.55066,-0.46104 z m -38.79784,8.80702 c -0.1356,-0.44156 -0.22323,-0.8427 -0.35883,-1.28429 -0.27088,0.68963 -0.45641,1.41258 -0.55034,2.14742 0.47757,1.08546 1.0709,2.14948 1.81405,3.07347 -0.12866,0.45346 -0.33436,0.84994 -0.46302,1.3034 0.40514,1.00548 0.89794,1.85906 1.61892,2.66832 0.70114,0.18462 1.42644,0.32981 2.12792,0.51429 0.2368,0.61056 0.86386,1.70431 0.86386,1.70431 l 2.63789,1.58879 c 0,0 1.88781,2.28537 3.06752,3.24876 1.79321,0.23151 3.69193,0.34237 5.50003,0.36446 1.07652,-0.72827 2.24696,-1.51735 3.32349,-2.24536 1.08446,0.43293 3.29141,0.84466 3.29141,0.84466 0,0 2.23837,-1.03572 3.23553,-1.76243 -0.37902,-0.2368 -0.79937,-0.46497 -1.1784,-0.70177 1.44299,-1.9057 2.66305,-4.08616 3.54477,-6.308 -0.26028,-0.51071 -0.49179,-1.10007 -0.75209,-1.61062 -1.5855,-0.72826 -3.34697,-1.62123 -4.93282,-2.34946 -0.0119,-0.11047 -0.0999,-0.2633 -0.11179,-0.37376 -2.15271,-0.728 -4.50254,-1.2277 -7.0766,-0.98663 -1.59709,1.50544 -2.56514,3.20976 -3.04304,4.92786 -0.60226,-0.0416 -1.26008,-0.15207 -1.79983,-0.42297 -0.0943,0.7537 -0.21663,1.43401 -0.1184,2.18745 -0.12402,0.0965 -0.33503,0.15206 -0.45905,0.2487 -0.8513,-0.7068 -1.73071,-1.61865 -2.23044,-2.60578 -1.63082,-0.34998 -3.32417,-0.96841 -4.8743,-1.58492 -0.039,-0.4399 -0.13956,-0.86714 -0.17891,-1.30704 -0.9396,-0.40706 -1.95759,-0.87177 -2.89753,-1.27886 z m -0.0384,-17.97153 c -0.17032,-1.07487 0.17595,-2.19009 0.79342,-3.08636 0.6178,-0.89595 1.48828,-1.59213 2.41796,-2.15768 0.76366,-0.46501 1.60437,-0.85262 2.49601,-0.9826 0.41209,-0.0602 0.82187,-0.0215 1.23032,-0.0847 0.50667,-0.0784 1.02063,-0.12435 1.52929,-0.18653 0.39059,-0.60259 0.84501,-1.21047 1.36988,-1.70061 0.60953,-0.12071 1.20815,-0.25301 1.82959,-0.24771 0.18852,-0.37671 0.40911,-0.67072 0.74315,-0.92737 1.06925,0.23614 3.19021,0.67105 3.19021,0.67105 l 1.27563,0.0189 c 0,0 1.78097,1.15921 2.51884,1.91922 -0.43459,0.7405 -0.96012,1.43272 -1.52599,2.07797 0.17032,0.45873 0.35918,0.95482 0.60987,1.37518 0.47789,0.12733 0.92702,0.24738 1.40494,0.37471 -0.0218,0.86354 -0.0701,1.74063 -0.0923,2.60416 0.11045,-0.19281 0.22655,-0.35818 0.33668,-0.55099 1.57063,1.17938 3.14258,2.32039 4.71321,3.49977 0.0847,1.0203 0.16338,2.03928 0.24838,3.05958 0.52354,0.005 1.04676,0.0824 1.5703,0.0873 0.16437,0.34826 0.22093,0.68891 0.27583,1.07024 -0.57282,0.8675 -1.21378,1.72641 -1.78659,2.59391 0.0728,0.0744 0.0916,0.16669 0.16437,0.2411 -0.25897,1.07421 -0.58275,2.2063 -0.84171,3.28084 -0.45541,0.41767 -0.89528,0.87305 -1.28753,1.35069 -1.8931,-0.48382 -3.86953,-0.95213 -5.76263,-1.43596 -0.3165,-0.70584 -0.67005,-1.43907 -0.98623,-2.14484 0.1485,-0.26558 0.25962,-0.56356 0.40812,-0.82914 -0.0387,-0.4316 -0.0708,-0.91579 -0.10946,-1.34739 0.12666,-0.19414 0.23613,-0.43987 0.3628,-0.63401 -1.11786,0.63467 -2.16628,1.36426 -3.10026,2.24731 -0.27285,1.11224 -0.53545,2.2903 -0.64393,3.43039 -1.05734,1.44253 -2.06573,2.9365 -2.8952,4.52103 -2.39085,-0.57685 -4.62426,-1.64408 -6.52695,-3.20251 -0.53214,0.26756 -1.1258,0.46004 -1.65827,0.72734 -0.93564,-0.37545 -1.91096,-0.8732 -2.6971,-1.50456 -0.89197,-0.71702 -1.72904,-2.99041 -1.72904,-2.99041 l 0.50403,-2.29361 -0.21134,-3.05726 c 0,0 1.18764,-2.25558 1.93146,-3.27521 -0.0165,-0.79012 0.0542,-1.73071 -0.0698,-2.51123" />
        <path
           inkscape:connector-curvature="0"
           id="path372"
           style="fill:#5f1441;fill-opacity:1;fill-rule:nonzero;stroke:none;stroke-width:0.03307291"
           d="m 160.31538,136.71167 c 0,0 -0.57514,-0.90388 -0.91944,-1.44727 0.0797,0.96738 0.15512,1.93377 0.23516,2.90148 0.26756,0.003 0.53478,0.0238 0.80234,0.045 -0.0427,-0.63268 -0.11806,-1.49919 -0.11806,-1.49919 z m 0.60887,25.63806 c -0.13758,-0.14714 -0.32875,-0.3346 -0.46667,-0.48148 1.059,-1.74562 2.07731,-3.57551 3.23817,-5.25499 0.17,0.13464 0.28707,0.24676 0.39391,0.43524 0.0337,-1.23001 -0.14817,-2.55061 -0.52255,-3.72262 -1.19923,-0.76997 -2.87106,-1.56269 -4.09344,-2.2947 0.57414,-1.9641 1.50945,-3.8225 2.74506,-5.45365 1.2862,0.14856 2.48576,0.36082 3.74683,0.65421 -0.0552,-0.29379 -0.0962,-0.60798 -0.15149,-0.9019 0.31354,-0.84339 1.45224,-2.25693 1.45224,-2.25693 0,0 2.03763,-1.01335 2.94745,-1.68308 0.86188,0.52289 1.76907,0.89992 2.753,1.11886 0.18422,-0.13328 0.36776,-0.28344 0.55166,-0.42003 -0.0711,-0.12402 -0.14123,-0.24937 -0.21035,-0.3757 -0.15975,0.13295 -0.30593,0.29302 -0.48021,0.40249 -0.68395,-0.37438 -1.31895,-0.86518 -1.8425,-1.44297 0.0397,-0.41738 0.0814,-0.82748 0.12105,-1.24486 -1.18765,0.68791 -2.30784,1.33052 -3.49548,2.01844 0.128,-0.32643 0.28344,-0.7081 0.41143,-1.03452 -0.83939,1.33515 -1.85043,2.54496 -3.00269,3.62148 -0.65154,-0.10881 -1.26935,-0.28542 -1.89607,-0.49411 0.34131,-1.89309 0.44317,-3.80603 0.36347,-5.7279 -0.99152,-0.69089 -2.02571,-1.32457 -3.09332,-1.89144 0.003,-0.40051 0.002,-0.8503 -0.0314,-1.24916 -1.81999,-1.26471 -3.6916,-2.54033 -5.4782,-3.85101 0.1323,-0.551 0.17463,-1.10993 0.21134,-1.67548 -0.62375,-0.22688 -1.24817,-0.45277 -1.87259,-0.67931 -0.10053,-0.1958 -0.15378,-0.39655 -0.19909,-0.61185 0.54735,-0.63037 1.03021,-1.33979 1.45189,-2.05978 -0.9611,-0.74249 -1.98602,-1.41784 -3.04733,-2.00819 l -0.044,0.0208 0.0334,3.4e-4 c 0,0 1.78098,1.15954 2.51884,1.91955 -0.43458,0.7405 -0.96011,1.43239 -1.52599,2.07797 0.17033,0.45873 0.35918,0.95482 0.60987,1.37518 0.4779,0.12733 0.92703,0.24738 1.40494,0.37471 -0.0218,0.86354 -0.0701,1.74063 -0.0923,2.60416 0.11046,-0.19314 0.22655,-0.35818 0.33668,-0.55099 1.57063,1.17938 3.14259,2.32039 4.71322,3.49977 l 0.004,0.0437 c 0.15709,0.0238 0.30361,0.045 0.46534,0.0698 0.0575,0.33867 0.14188,0.65584 0.27086,0.97433 0.8976,0.67039 1.75154,1.41685 2.5281,2.22416 -0.13264,1.88019 -0.26062,3.81396 -0.39324,5.69449 0.57745,0.0506 1.13969,0.21993 1.68771,0.40944 -0.72364,0.0248 -1.48894,0.15412 -2.21258,0.17859 -1.39072,1.90732 -2.65278,3.98456 -3.64728,6.12514 -0.0721,-0.21239 -0.19447,-0.35993 -0.2669,-0.57219 -2.37794,-0.77321 -4.93382,-1.18997 -7.43413,-1.21375 -1.2819,1.18831 -2.34917,2.64375 -3.047,4.24627 -0.97533,-0.29445 -1.96884,-0.58513 -2.96929,-0.77698 -0.0804,0.85229 -0.10683,1.68801 -0.006,2.53834 -0.39556,-0.76325 -0.77822,-1.51011 -1.17377,-2.27336 -1.60205,-0.33576 -3.21435,-0.73121 -4.81608,-1.06723 -0.0278,-0.37207 -0.0714,-0.7532 -0.0989,-1.12528 -1.03915,-0.36935 -2.12262,-0.77784 -3.16144,-1.1472 -0.0774,-0.3297 -0.17826,-0.61882 -0.33866,-0.91753 -0.19778,0.24443 -0.37439,0.50048 -0.51991,0.77568 0.11642,0.39582 0.2034,0.7666 0.32676,1.16877 0.93993,0.40709 1.95792,0.8718 2.89752,1.27886 0.0394,0.43991 0.1399,0.86714 0.17892,1.30704 1.55013,0.61652 3.24346,1.23495 4.87429,1.58492 0.49973,0.98713 1.37914,1.89898 2.23044,2.60579 0.12402,-0.0966 0.33502,-0.1522 0.45905,-0.24871 -0.0982,-0.75344 0.0241,-1.43375 0.1184,-2.18744 0.53975,0.27089 1.19757,0.38136 1.79983,0.42296 0.4779,-1.7181 1.44595,-3.42241 3.04305,-4.92786 2.57405,-0.24107 4.92389,0.25863 7.0766,0.98663 0.0119,0.11046 0.0999,0.26329 0.11179,0.37376 1.58584,0.72823 3.34731,1.6212 4.93283,2.34946 0.26061,0.51029 0.49179,1.09991 0.75207,1.61062 -0.88172,2.22184 -2.10178,4.40231 -3.54476,6.308 0.33736,0.21097 0.70447,0.41536 1.04908,0.62478 0.15643,-0.0546 0.31154,-0.11549 0.46435,-0.18398 -0.0331,-0.004 -0.0668,-0.0119 -0.0999,-0.0165 z m -1.91062,-16.91045 c 0.25895,-1.07454 0.58274,-2.20662 0.84169,-3.28083 -0.0728,-0.0744 -0.0916,-0.16669 -0.16437,-0.2411 0.57284,-0.86751 1.21379,-1.72641 1.78661,-2.59391 -0.0291,-0.20175 -0.0599,-0.39192 -0.1055,-0.57845 0.34693,0.48485 0.90057,1.54351 0.90057,1.54351 l -1.55311,2.62467 -1.08842,3.6033 c 0,0 -1.0408,1.16608 -1.56005,1.72908 -2.44376,-0.33215 -4.85576,-0.87746 -7.18973,-1.67418 -0.38827,-1.01891 -0.61713,-2.09087 -0.69584,-3.17864 0.24275,-0.45376 0.47625,-0.90951 0.719,-1.3636 -0.63203,0.44616 -1.22403,1.00608 -1.77833,1.5455 0.0318,1.19889 0.10319,2.4004 0.13494,3.59929 -0.95812,1.4698 -1.9308,2.9214 -2.88859,4.39083 -2.77713,-0.39922 -5.44413,-1.61399 -7.60578,-3.40264 -0.54107,0.30903 -1.06893,0.57659 -1.61,0.88546 -0.87642,-0.31122 -1.77898,-0.63133 -2.35346,-1.36297 -0.28047,-0.35682 -0.53247,-0.73587 -0.75604,-1.1308 l 0.0701,0.0638 c 0.78581,0.63137 1.76113,1.12911 2.69676,1.50456 0.53247,-0.2673 1.12613,-0.45978 1.65828,-0.72734 1.90268,1.55843 4.1361,2.62566 6.52694,3.20251 0.82947,-1.58452 1.83786,-3.07849 2.8952,-4.52103 0.10848,-1.14009 0.37108,-2.31848 0.64393,-3.43039 0.93431,-0.88305 1.98239,-1.61263 3.10025,-2.2473 -0.12666,0.19413 -0.23614,0.43987 -0.36281,0.634 0.0387,0.43161 0.0708,0.91579 0.10948,1.3474 -0.1485,0.26557 -0.25963,0.56356 -0.40812,0.82913 0.31617,0.70578 0.66971,1.43901 0.98623,2.14485 1.89309,0.48382 3.86953,0.95213 5.76263,1.43596 0.39224,-0.47764 0.83211,-0.93302 1.28752,-1.3507" />
        <path
           inkscape:connector-curvature="0"
           id="path374"
           style="fill:#5f1441;fill-opacity:1;fill-rule:nonzero;stroke:none;stroke-width:0.03307291"
           d="m 165.16387,129.12606 c -0.13429,0.67932 -0.28277,1.6553 -0.50305,2.31147 0.2593,-0.54074 0.62674,-1.07355 0.97962,-1.55873 0.25699,0.0132 0.48717,0.17926 0.63567,0.38894 0.1485,0.20968 0.22753,0.46005 0.29402,0.70842 0.27087,1.01104 0.465,2.0664 0.3962,3.11084 0.0635,-1.36426 0.17992,-2.76589 0.24375,-4.13014 0.2755,0.007 0.59235,0.0308 0.86784,0.0374 0.59664,1.18235 1.18699,2.31609 1.65464,3.555 -0.41937,-1.25214 -0.8384,-2.50428 -1.25776,-3.75609 -1.10928,-0.0265 -2.24764,-0.35057 -3.31093,-0.66708 z m -0.53512,-3.17599 c -0.60756,-0.14783 -1.21675,-0.18521 -1.8263,-0.13924 0.48321,1.04445 1.25447,1.95362 2.2063,2.60053 0.95151,0.6469 2.26517,0.87015 3.41412,0.93497 -0.13792,-0.38067 -0.3595,-0.72926 -0.57315,-1.1086 -0.8126,0.15445 -1.68772,-0.008 -2.41928,-0.3949 -0.73125,-0.38662 -1.35665,-0.94588 -1.93875,-1.53359 0.20936,-0.27186 0.69388,-0.36347 1.13706,-0.35917 z m -22.26568,0.57216 c 0.0814,0.1399 0.18852,0.17397 0.084,0.29799 1.06098,0.005 3.18294,0.0162 3.18294,0.0162 0,0 1.79718,-0.8298 2.72223,-1.23858 -1.70326,0.56092 -4.04879,0.93464 -5.98918,0.92439 z m -0.0817,1.85969 c 0.0225,0.47592 -0.048,0.95614 -0.20671,1.4056 1.2829,0.58638 2.62897,1.07653 4.00613,1.38278 -0.80037,-0.20207 -1.609,-0.57679 -2.30915,-1.01401 0.12071,-0.19249 0.20934,-0.47229 0.41142,-0.57547 1.30605,-0.66841 2.7143,-0.91513 4.17414,-0.77292 -1.6897,-0.38596 -3.83316,-0.58803 -6.07583,-0.42598 z m -0.36777,4.17546 c 0.005,-0.74877 0.008,-1.50151 -0.13725,-2.23606 -0.42003,1.05403 -1.1354,1.98834 -2.04292,2.66931 0.48253,-0.24705 0.95118,-0.51263 1.43404,-0.75968 0.0109,0.30328 -0.005,0.56025 0.005,0.86353 1.18335,1.20518 2.57671,2.23639 4.00679,3.13532 -1.13143,-1.03155 -2.4593,-2.37133 -3.26595,-3.67242 z m -1.95097,1.98504 c 0.19777,0.86584 0.28342,1.75749 0.25367,2.64517 1.20253,0.79375 2.31014,1.52036 3.51267,2.31411 -0.8933,-1.55046 -2.11468,-3.33871 -3.76634,-4.95928 z m -4.28791,-0.78979 c 1.19128,2.64782 2.04291,5.44811 2.52711,8.3109 -0.19977,-2.5615 -0.29668,-5.20932 -0.49676,-7.77082 -0.71239,-0.0761 -1.40892,-0.18322 -2.03035,-0.54008 z m 3.27058,-6.82228 c 0.88173,-0.25929 1.83258,-0.2788 2.72422,-0.0559 0.28377,0.78251 0.15611,1.66291 -0.12468,2.44608 -0.43756,1.22204 -3.01163,4.13246 -5.76264,3.62214 -0.28045,-0.0522 -0.54273,-0.10087 -0.71767,-0.21927 -0.31717,-0.76862 -0.3046,-1.68837 0.041,-2.44442 -0.12006,0.70809 -0.0698,1.5068 0.16867,2.18413 0.99946,0.20439 2.03332,-0.0149 2.94713,-0.46831 0.3304,-0.16404 0.7362,-0.47724 1.11985,-0.81028 0.98623,-0.85692 1.64637,-2.0459 1.778,-3.34566 0.0228,-0.2239 0.0298,-0.43888 0.0126,-0.62905 -0.71008,-0.21795 -1.44397,-0.29997 -2.18645,-0.27946" />
        <path
           inkscape:connector-curvature="0"
           id="path376"
           style="fill:#f8a10e;fill-opacity:1;fill-rule:nonzero;stroke:none;stroke-width:0.03307291"
           d="m 136.57002,149.46991 2.12922,0.80629 v 1.01272 l 4.56804,0.97165 0.47559,0.682 0.20671,-0.78549 3.07975,0.66146 c 0.84038,-1.69436 1.82132,-3.15122 3.05923,-4.17545 2.40044,-0.3434 4.93118,0.14651 7.5241,1.03352 l 0.78547,-0.57877 c -2.94645,-0.54041 -5.65413,-1.15795 -7.64811,-2.00491 -0.45508,-0.7537 -0.78251,-1.72704 -1.07486,-2.76027 l 0.0622,3.15287 c -1.10993,1.36555 -2.13353,2.87295 -3.08008,4.50619 -3.30729,-0.41741 -5.96073,-1.47446 -7.77214,-3.35432 -0.61052,0.43203 -1.43139,0.66248 -2.31511,0.83251" />
        <path
           inkscape:connector-curvature="0"
           id="path378"
           style="fill:#f8a10e;fill-opacity:1;fill-rule:nonzero;stroke:none;stroke-width:0.03307291"
           d="m 161.80894,141.86311 -0.84765,1.19889 -0.55794,2.52184 1.07486,-1.15758 0.55795,0.0208 -0.2894,-0.45476 0.0622,-2.12923" />
        <path
           inkscape:connector-curvature="0"
           id="path380"
           style="fill:#f8a10e;fill-opacity:1;fill-rule:nonzero;stroke:none;stroke-width:0.03307291"
           d="m 160.83726,137.33642 0.12403,0.53743 h 0.43425 l 0.64062,1.52962 v -1.15755 c -0.35521,-0.54306 -0.76697,-0.78052 -1.1989,-0.9095" />
        <path
           inkscape:connector-curvature="0"
           id="path382"
           style="fill:#891650;fill-opacity:1;fill-rule:nonzero;stroke:none;stroke-width:0.03307291"
           d="m 134.90346,151.53399 c 0.31255,0.84131 0.96409,1.55082 1.77603,1.93334 -0.042,0.30335 -0.0853,0.57815 -0.127,0.8811 0.67733,0.97009 1.5898,1.74162 2.6842,2.19082 0.13758,-0.15181 0.19347,-0.38537 0.33106,-0.53681 0.79904,0.64727 1.65794,1.07553 2.64153,1.37656 0.0284,0.73121 0.005,1.49278 -0.0787,2.21949 1.11886,1.0963 2.49138,1.83981 4.05242,1.97211 0.0688,-0.24805 0.0126,-0.48383 0.0817,-0.73188 1.93345,-0.0615 3.8229,-0.29147 5.74674,-0.4908 0.0638,0.24044 0.19415,0.51032 0.25798,0.75073 2.2559,-0.099 4.50188,-0.43329 6.689,-0.9958 0.85923,-0.22093 1.41683,-0.97307 2.07698,-1.56607 -0.51197,1.23495 -1.19659,2.28968 -2.09022,3.28418 0.23516,0.23319 0.43194,0.56753 0.66708,0.80099 -0.7051,0.49351 -1.47307,0.98455 -2.23044,1.39346 -1.02789,-0.34766 -2.10707,-0.64869 -3.13497,-0.99619 -1.23593,0.94685 -2.5992,1.76732 -3.93468,2.56716 -0.79904,-0.0335 -1.71946,-0.11086 -2.5185,-0.14433 0.003,-0.68223 -0.12138,-1.42045 -0.28873,-2.08152 -1.33945,-0.32183 -2.77283,-0.85162 -4.05243,-1.36167 -0.0824,0.0695 -0.20141,0.099 -0.28376,0.16834 -0.66774,-0.43461 -1.41718,-0.7785 -2.15735,-1.07282 -0.25036,-0.57785 -0.59762,-1.29745 -0.84799,-1.8756 0.23449,0.0416 0.40812,0.0179 0.64228,0.0596 -0.53942,-0.24418 -1.73038,-0.80536 -1.73038,-0.80536 0,0 -1.56104,-0.25297 -2.31941,-0.36188 -0.23779,-0.38355 -0.53644,-0.86416 -0.77456,-1.24771 0.32809,-0.17998 0.5715,-0.37181 0.82021,-0.65127 -0.3175,-0.37181 -0.63764,-0.91351 -0.95514,-1.28518 0.0278,-0.19288 0.0552,-0.42737 0.083,-0.62012 -0.96211,-0.91688 -1.66126,-2.31355 -1.82366,-3.63247 0.20671,0.17933 0.7028,0.60332 0.79773,0.85964" />
        <path
           inkscape:connector-curvature="0"
           id="path384"
           style="fill:#891650;fill-opacity:1;fill-rule:nonzero;stroke:none;stroke-width:0.03307291"
           d="m 149.40727,140.74789 c -0.76101,0.72595 -1.44264,1.74757 -1.71648,2.76324 -0.25301,0.9396 -0.63864,1.7903 -0.89165,2.72977 -0.45376,0.30464 -1.11356,0.55073 -1.36756,1.03455 -0.40812,0.77851 -1.04346,1.46477 -1.80975,1.89512 -2.07268,-0.64555 -4.05508,-1.49589 -5.84101,-2.73044 -0.41904,0.3178 -0.77027,0.68458 -1.23462,0.93134 -0.62475,-0.20479 -1.2012,-0.56601 -1.65266,-1.04388 0.11014,-0.7028 0.25765,-1.36621 0.36778,-2.06901 -0.19678,0.56621 -0.4736,1.17967 -0.77787,1.69631 -0.64691,-0.65954 -1.49589,-1.35037 -1.45058,-2.27277 0.0354,-0.72331 0.42697,-1.34376 0.33667,-2.0621 -0.14055,-1.11787 -0.45772,-3.22924 -0.45772,-3.22924 0,0 0.9935,-2.09087 1.76245,-2.94878 -0.0463,1.64042 -0.0516,3.50209 0.0608,5.1392 0.24574,-0.70908 0.56225,-1.62686 0.73256,-2.35777 0.40813,1.25346 1.0557,2.40473 1.82894,3.472 -0.0364,0.78515 -0.0182,1.61462 -0.0542,2.39977 0.41771,-0.66741 0.78878,-1.19393 1.2065,-1.86135 0.47492,0.36744 0.96076,0.6016 1.43602,0.96937 0.18289,-0.59564 0.45112,-1.32292 0.63434,-1.91856 1.23395,0.8341 2.75034,1.20022 4.23829,1.13672 1.48829,-0.0635 3.49151,-0.7372 4.64973,-1.67349" />
        <path
           inkscape:connector-curvature="0"
           id="path386"
           style="fill:#891650;fill-opacity:1;fill-rule:nonzero;stroke:none;stroke-width:0.03307291"
           d="m 152.05607,140.83024 c -0.0976,0.46137 -0.14121,0.93398 -0.12932,1.40494 -0.17925,0.24804 -0.35684,0.49609 -0.53577,0.74414 0.31352,0.60821 0.59398,1.21179 0.90752,1.82 1.76411,0.41308 3.44851,0.77794 5.21263,1.19096 0.29931,-0.26628 0.6006,-0.60398 0.90024,-0.86986 0.20471,-0.8549 0.45211,-1.86792 0.65682,-2.72286 -0.18356,-0.0331 -0.42465,-0.21166 -0.52255,-0.37074 0.80765,-0.83179 1.53987,-1.694 2.34785,-2.52611 0.0145,-0.25301 -0.10451,-0.54504 -0.20075,-0.77953 -0.30329,-0.0271 -0.68892,-0.0992 -0.99219,-0.12667 -0.50138,1.35566 -1.71681,2.40506 -3.10488,2.80822 -1.38774,0.40316 -3.38966,0.30328 -4.5396,-0.57249" />
        <path
           inkscape:connector-curvature="0"
           id="path388"
           style="fill:#891650;fill-opacity:1;fill-rule:nonzero;stroke:none;stroke-width:0.03307291"
           d="m 166.05088,136.77153 c 0.36512,0.23945 0.87345,0.16536 1.22966,-0.0873 0.35619,-0.25235 0.58273,-0.64955 0.74381,-1.05569 0.3165,-0.79937 0.55397,-1.65199 0.42729,-2.5023 0.4445,0.89397 1.01336,1.84779 1.45786,2.74175 0.28972,-0.889 0.39324,-1.88317 0.24342,-2.80591 0.21795,0.33239 0.55463,0.77887 0.77258,1.11125 0.009,0.56522 0.0612,1.16086 0.0701,1.72575 0.55298,0.46633 1.17839,1.11588 1.73137,1.58221 -0.0585,0.53214 -0.13527,1.13605 -0.37869,1.6123 0.12138,0.69321 0.27682,1.42313 0.54438,2.07367 -0.11013,0.0691 -0.15015,0.22192 -0.26028,0.29105 -0.38828,-0.35587 -0.80301,-0.72761 -1.19096,-1.08347 -0.0873,-0.47625 -0.1981,-0.96375 -0.16536,-1.44694 -0.1518,0 -0.24408,-0.0833 -0.38067,-0.0175 -0.78283,0.37769 -1.48927,0.72462 -2.27211,1.10198 -0.21927,-0.15279 -0.37505,-0.28508 -0.59465,-0.43788 -0.94324,1.42247 -2.04391,2.73877 -3.20443,3.99025 -0.34429,-0.13858 -0.69189,-0.40614 -1.03618,-0.54438 0.16669,-1.92419 0.24871,-3.85068 0.20869,-5.78148 -1.08281,-0.61615 -2.08029,-1.11886 -3.2213,-1.61826 0.0549,-0.28939 0.11013,-0.57877 0.16536,-0.86816 1.21742,0.0549 2.44872,-0.45905 3.33475,-1.29613 0.77853,0.88702 1.32556,2.22382 1.77535,3.31523" />
        <path
           inkscape:connector-curvature="0"
           id="path390"
           style="fill:#891650;fill-opacity:1;fill-rule:nonzero;stroke:none;stroke-width:0.03307291"
           d="m 173.444,143.05869 c -0.16537,1.17773 -0.21662,2.37166 -0.15312,3.55931 0.66013,0.16705 1.3583,0.10286 2.03563,0.0327 0.01,0.89168 -0.14221,1.75091 -0.37207,2.6121 -0.82749,0.41212 -1.68903,0.79646 -2.51619,1.20845 -0.23944,1.17707 -0.64558,2.16307 -1.02824,3.30137 -0.12401,0.0139 -0.29864,-0.0512 -0.42266,-0.0376 -0.36878,1.41476 -1.04247,2.68215 -1.83059,3.91345 0.13362,0.77788 0.086,1.57394 0.0688,2.36276 -1.25975,1.1856 -2.86842,2.1464 -4.47609,2.78435 -0.89397,-0.51561 -2.07731,-0.87968 -3.10622,-0.96143 -0.0139,-0.22053 -0.11012,-0.52685 -0.12369,-0.74738 -0.0404,-0.64235 0.52786,-1.13573 0.90951,-1.65365 0.46865,-0.63602 0.91249,-1.30678 1.24421,-2.02376 1.13407,0.47062 2.36636,0.64786 3.5894,0.54077 0.17198,-0.254 0.32113,-0.57193 0.36976,-0.87448 -0.593,-0.1779 -1.1774,-0.52983 -1.77039,-0.70773 1.40394,-1.45428 2.46955,-3.26968 3.17136,-5.16529 0.29832,0.14056 0.59002,0.15074 0.91976,0.16665 0.96009,-1.82962 1.6189,-3.83454 1.97743,-5.86955 0.2282,0.0761 0.43656,-0.0579 0.66675,-0.12763 0.0784,-0.73253 -0.13329,-1.56365 -0.45146,-2.22809 0.0278,-0.11013 -0.0225,-0.30063 0.006,-0.41076 0.42267,0.17925 0.83345,0.32478 1.29249,0.32544" />
        <path
           inkscape:connector-curvature="0"
           id="path392"
           style="fill:#eb2744;fill-opacity:1;fill-rule:nonzero;stroke:none;stroke-width:0.03307291"
           d="m 143.70947,125.75097 0.99748,-1.18302 1.70888,-0.16271 c 0,0 0.44152,-0.59697 0.68725,-0.8308 0.91182,0.0929 2.75927,0.46699 2.75927,0.46699 l 1.54219,0.11543 c 0,0 1.2141,0.98822 1.74989,1.55674 -0.23482,0.67237 -0.59862,1.26206 -1.06296,1.80214 0.0979,0.56886 0.23647,1.2108 0.46269,1.74162 0.45839,0.14122 0.90122,0.2927 1.35963,0.43392 0.0367,0.96441 0.0784,1.93311 0.11476,2.89752 0.20702,-0.14387 0.41803,-0.30163 0.62507,-0.44549 1.39205,0.96275 2.74837,2.01447 4.04746,3.10025 -1.28421,-0.78416 -2.59689,-1.59114 -3.8811,-2.3753 -0.43193,0.16537 -0.88635,0.27815 -1.31829,0.44318 -0.0572,-1.01005 -0.28144,-1.93906 -0.49742,-2.92761 -0.67997,-0.2292 -1.38111,-0.39787 -2.06109,-0.62707 0.28177,-0.26954 0.7094,-0.86088 0.7094,-0.86088 0,0 -0.0284,-0.56985 -0.11078,-0.82683 -0.75208,-0.0612 -1.56172,-0.0539 -2.31445,6.7e-4 0.78152,-0.28972 1.37417,-0.8437 1.89309,-1.49589 -0.27946,-0.40349 -0.6039,-0.7544 -0.91413,-1.13473 -0.54901,0.21067 -1.09802,0.4435 -1.6123,0.72958 0.1905,-0.3423 0.29435,-0.74513 0.35652,-1.13175 -0.8933,0.0754 -2.75299,0.31452 -2.75299,0.31452 0,0 -2.08392,0.71372 -3.19749,0.8804 0.19282,-0.13791 0.70942,-0.48088 0.70942,-0.48088" />
        <path
           inkscape:connector-curvature="0"
           id="path394"
           style="fill:#eb2744;fill-opacity:1;fill-rule:nonzero;stroke:none;stroke-width:0.03307291"
           d="m 152.0703,123.7785 c 0.3562,-0.16073 0.71239,-0.3218 1.06858,-0.48253 0.83244,0.1561 2.29361,1.04775 2.29361,1.04775 0,0 1.32424,0.27285 2.00786,0.30989 0.58076,0.0318 1.05238,0.52851 1.51473,0.8814 0.55266,-0.13196 1.14399,-0.22556 1.70987,-0.27782 0.37803,0.18124 0.72662,0.33933 1.1043,0.52024 0.16538,-0.0182 0.30131,-0.0602 0.46667,-0.0784 -0.2841,0.21167 -0.56819,0.42399 -0.85262,0.63566 -0.60192,0.0112 -1.23461,-0.0843 -1.82,-0.22489 -0.15578,0.20968 -0.2368,0.49477 -0.16967,0.74744 0.39523,0.0714 0.76762,0.11014 1.16318,0.1819 -0.44152,0.127 -0.96474,0.27418 -1.40593,0.40118 0.008,0.16536 -0.0443,0.32577 -0.0357,0.49113 -1.17706,-0.48452 -2.42226,-1.04345 -3.599,-1.52797 -0.28078,0.31387 -0.58902,0.64195 -0.80896,1.00112 0.47823,0.4197 0.9816,0.70511 1.54914,0.99318 -0.22061,0.18355 -0.41176,0.31717 -0.63236,0.50105 0.19216,0.29138 0.49245,0.52322 0.82418,0.63104 -0.22952,0.18421 -0.2593,0.5037 -0.12205,0.76398 0.13727,0.26061 0.38431,0.44219 0.62278,0.61483 0.90585,0.65484 1.81206,1.30968 2.71793,1.96453 0.4025,0.29071 0.60754,0.75935 0.91976,1.14564 -1.74692,-1.10959 -3.55567,-2.21158 -5.30259,-3.32085 0.0695,-0.60523 0.0619,-1.25809 -0.0255,-1.86068 -0.59168,-0.24011 -1.21013,-0.45475 -1.84182,-0.54934 -0.0182,-0.13759 -0.0367,-0.30163 -0.0552,-0.43954 0.45044,-0.69817 0.92901,-1.42313 1.37946,-2.1213 -0.77059,-0.70412 -1.73402,-1.48762 -2.67064,-1.94866" />
        <path
           inkscape:connector-curvature="0"
           id="path396"
           style="fill:#eb2744;fill-opacity:1;fill-rule:nonzero;stroke:none;stroke-width:0.03307291"
           d="m 136.15264,155.89459 c -0.13032,0.13821 -0.28278,0.30228 -0.41309,0.44053 -0.18421,-0.23809 -0.3165,-0.51623 -0.38463,-0.80989 0.0747,-0.18398 0.15147,-0.43035 0.2798,-0.58215 0.1336,0.29766 0.30525,0.70409 0.51792,0.95151" />
        <path
           inkscape:connector-curvature="0"
           id="path398"
           style="fill:#eb2744;fill-opacity:1;fill-rule:nonzero;stroke:none;stroke-width:0.03307291"
           d="m 139.66895,159.37125 c 0.0625,0.34855 0.20638,0.73187 0.35322,1.05406 -0.10353,-0.0344 -0.21332,-0.0661 -0.31651,-0.10064 -0.20009,-0.44608 -0.37769,-0.90252 -0.53214,-1.36683 0.19083,0.12038 0.3046,0.29338 0.49543,0.41341" />
        <path
           inkscape:connector-curvature="0"
           id="path400"
           style="fill:#eb2744;fill-opacity:1;fill-rule:nonzero;stroke:none;stroke-width:0.03307291"
           d="m 143.18526,162.61573 c 0.7372,0.92333 1.57857,1.76348 2.50263,2.49936 -0.13262,-0.3097 -0.25631,-0.64172 -0.38894,-0.95085 0.13097,0.0134 0.23482,0.0125 0.36579,0.0261 0.15577,0.31806 0.27649,0.6307 0.43226,0.94876 -0.007,-0.56481 0.0139,-1.15146 0.008,-1.71681 -0.94357,-0.23578 -2.00289,-0.48085 -2.91934,-0.80655" />
        <path
           inkscape:connector-curvature="0"
           id="path402"
           style="fill:#eb2744;fill-opacity:1;fill-rule:nonzero;stroke:none;stroke-width:0.03307291"
           d="m 173.82301,142.85133 c -0.17395,0.70941 -0.24208,1.44462 -0.2014,2.17388 0.55694,0.0477 1.08709,0.0327 1.64405,-0.0182 -0.17265,-0.0542 -0.3638,-0.15842 -0.53644,-0.21266 0.0208,-0.13097 0.004,-0.30163 0.0245,-0.43259 0.15841,-0.007 0.35321,-0.0291 0.51196,-0.0357 0.0526,-0.25136 0.0622,-0.51462 0.0189,-0.76763 -0.46435,-0.18454 -1.03552,-0.44582 -1.4615,-0.70709" />
        <path
           inkscape:connector-curvature="0"
           id="path404"
           style="fill:#eb2744;fill-opacity:1;fill-rule:nonzero;stroke:none;stroke-width:0.03307291"
           d="m 145.58669,155.20042 c 0.55231,0.13256 1.10496,0.26485 1.65728,0.39754 0.56158,-1.83916 1.67647,-3.62082 3.08635,-4.92853 2.17025,0.0728 4.22409,0.27649 6.33017,0.80397 0.0645,0.11936 0.10749,0.28979 0.17164,0.40915 1.81868,0.55165 3.48225,1.37279 5.09058,2.38525 -1.65695,-0.59674 -3.33077,-1.13546 -5.02641,-1.61231 -0.22424,0.33602 -0.4756,0.74801 -0.61119,1.12835 0.0301,-0.54038 -0.14255,-1.06154 -0.38961,-1.54318 -1.3745,-0.12168 -2.80821,-0.17661 -4.18769,-0.16794 0.007,0.54209 -0.0608,1.14061 -0.0539,1.68271 -0.29071,-0.44119 -0.6598,-0.88638 -1.06395,-1.22694 -0.72893,0.5678 -1.44893,1.10265 -2.0826,1.77536 0.037,0.20336 0.0466,0.43821 0.0837,0.64158 -0.17198,-0.0791 -0.34396,-0.15816 -0.51561,-0.23707 -0.23813,0.55126 -0.47162,1.09164 -0.70975,1.6433 -0.49576,-0.0859 -1.05998,-0.25232 -1.55541,-0.33798 -0.10286,0.52325 -0.20208,1.07682 -0.30461,1.60004 0.0341,-0.79011 0.0466,-1.62315 0.081,-2.4133" />
        <path
           inkscape:connector-curvature="0"
           id="path406"
           style="fill:#eb2744;fill-opacity:1;fill-rule:nonzero;stroke:none;stroke-width:0.03307291"
           d="m 163.24464,152.77876 c -1.03188,-0.7501 -2.11004,-1.43636 -3.22626,-2.05377 0.62674,-1.65106 1.43405,-3.24577 2.49601,-4.6567 1.22635,-0.0396 2.40242,0.14923 3.54938,0.58473 0.11015,-0.0827 0.17067,-0.14314 0.2808,-0.22582 -0.0334,-0.35891 -0.08,-0.77397 -0.11344,-1.13275 0.36843,-0.64793 0.77887,-1.25746 1.26835,-1.8197 0.70809,-0.8126 1.83588,-1.16747 2.76984,-1.70557 0.45278,0.20538 0.86519,0.40779 1.3183,0.61284 -0.54174,-0.0208 -1.17542,-0.0261 -1.71681,-0.0473 0.0182,0.15644 -0.0202,0.3509 -0.002,0.50701 -0.13759,-0.0645 -0.35686,-0.12865 -0.49444,-0.19315 -0.54174,0.21994 -1.02857,0.54571 -1.40692,0.9912 0.0824,0.5586 0.17098,1.19625 0.33403,1.73669 -0.211,-0.0205 -0.45177,-0.0421 -0.66278,-0.0625 -0.18389,0.35851 -0.36513,0.6984 -0.54901,1.05691 0.083,0.30268 0.15544,0.6179 0.32775,0.88017 -0.29402,-0.0239 -0.72529,-0.0331 -1.01964,-0.0572 -0.0549,0.19275 -0.13792,0.41572 -0.19314,0.60847 -0.0827,-0.19275 -0.19282,-0.41341 -0.2755,-0.60616 -0.77986,-0.049 -1.58948,-0.0331 -2.37,0.004 -0.15611,0.22986 -0.39523,0.4283 -0.55134,0.65786 0.27253,0.57669 0.58506,1.14888 0.94986,1.67249 -0.5328,-0.33109 -1.15953,-0.62812 -1.69234,-0.95911 -0.0642,0.11939 -0.18554,0.21461 -0.24971,0.33397 0.38563,0.54971 0.86917,1.07758 1.37816,1.5154 -0.46831,0.0178 -1.01997,0.0619 -1.48861,0.0795 0.15313,0.42191 0.31717,0.85123 0.57645,1.21801 0.22954,-0.0916 0.43557,-0.15518 0.66511,-0.24676 -0.0486,0.13669 -0.13924,0.24805 -0.18786,0.38497 0.11741,0.22159 0.16834,0.70115 0.28575,0.9227" />
        <path
           inkscape:connector-curvature="0"
           id="path408"
           style="fill:#eb2744;fill-opacity:1;fill-rule:nonzero;stroke:none;stroke-width:0.03307291"
           d="m 137.43884,153.06659 c -0.0685,-0.37905 -0.13262,-0.70912 -0.20108,-1.08843 -0.69884,-0.31757 -1.39766,-0.63474 -2.09649,-0.95214 0.50204,0.46521 0.9849,0.8803 1.59477,1.19192 0.28741,0.14714 0.49511,0.60123 0.7028,0.84865" />
        <path
           inkscape:connector-curvature="0"
           id="path410"
           style="fill:#eb2744;fill-opacity:1;fill-rule:nonzero;stroke:none;stroke-width:0.03307291"
           d="m 137.82877,153.38168 c 1.45587,0.66545 2.98318,1.17408 4.54753,1.51414 0.71041,1.03091 1.51805,1.91588 2.4335,2.76959 -0.41705,-0.21732 -0.83443,-0.50813 -1.17012,-0.83717 -0.1141,0.0496 -0.25763,0.10646 -0.33006,0.20773 0,-0.15154 -0.0215,-0.32438 -0.0215,-0.47592 -0.24375,-0.28049 -0.5295,-0.643 -0.77326,-0.92307 -0.36544,0.0205 -0.78382,0.0129 -1.14927,0.0334 0.0275,-0.0966 -0.0274,-0.17168 0,-0.26792 -1.22271,-0.49804 -2.40771,-1.33647 -3.53682,-2.02082" />
        <path
           inkscape:connector-curvature="0"
           id="path412"
           style="fill:#5f1441;fill-opacity:1;fill-rule:nonzero;stroke:none;stroke-width:0.03307291"
           d="m 154.19061,157.58762 c -0.61086,-0.25965 -1.19294,-0.58602 -1.72741,-0.97925 0.0129,-0.19017 0.0556,-0.37842 0.12667,-0.55526 0.43855,-0.28086 1.03419,-0.39003 1.53955,-0.2633 0.50502,0.12634 0.95216,0.46832 1.2065,0.92267 -0.0807,0.23786 -0.25036,0.45178 -0.44979,0.60424 -0.18289,0.13927 -0.47327,0.21303 -0.69552,0.2709 z m -0.0665,0.17622 c 0.8417,-0.1987 1.61462,-0.71067 2.10013,-1.42641 -0.11344,-0.55162 -0.33504,-1.01633 -0.61947,-1.50246 -0.36941,-0.14652 -0.78945,-0.24213 -1.185,-0.2801 -0.0225,-0.36976 -0.0499,-0.71844 -0.0724,-1.0878 -0.0853,0.37673 -0.17,0.7537 -0.25532,1.13043 -0.22952,0.0295 -0.45905,0.0962 -0.66973,0.19212 -0.1637,-0.46728 -0.28575,-0.91635 -0.34527,-1.40794 -0.0466,0.51702 -0.0698,1.09309 -0.009,1.60869 -0.37637,0.20013 -0.71636,0.46805 -0.99881,0.78754 -0.36215,0.0208 -0.73885,0.0399 -1.10066,0.0605 0.31948,0.12207 0.98094,0.38394 0.98094,0.38394 0,0 0.94225,1.14141 2.17487,1.5415 z m -0.23218,0.85073 c -0.0433,0.3939 0.0701,0.82011 0.23813,1.17898 0.0668,-0.4564 0.14155,-0.8963 0.20836,-1.35261 0.50502,-0.23293 1.33019,-0.57491 1.77701,-0.90653 0.52321,0.12105 0.71702,0.258 1.24816,0.43587 -0.32708,-0.24041 -0.61846,-0.5041 -0.94556,-0.74477 0.0456,-0.20413 0.15215,-0.39727 0.19779,-0.60127 -0.72959,0.58602 -1.57329,1.10331 -2.43251,1.4737 -0.68825,-0.18617 -1.32755,-0.55166 -1.83754,-1.05007 0.28674,0.64155 0.90223,1.28492 1.54616,1.5667 z m 2.7639,-2.99412 c 0.12205,-0.16203 0.3056,-0.26498 0.48916,-0.35127 0.18354,-0.0866 0.4187,-0.12829 0.57678,-0.25529 -0.5232,0.0678 -1.06428,0.10917 -1.59179,0.10451 0.1604,0.37273 0.31783,0.74646 0.47228,1.1215 -0.10815,-0.17168 -0.0681,-0.45746 0.0536,-0.61945" />
        <path
           inkscape:connector-curvature="0"
           id="path414"
           style="fill:#891650;fill-opacity:1;fill-rule:nonzero;stroke:none;stroke-width:0.03307291"
           d="m 146.05798,137.72833 c 1.19823,-0.1098 2.36802,-0.52057 3.37178,-1.18434 0.19215,0.16602 0.3552,0.28409 0.54736,0.45012 0.34957,-0.44748 0.67832,-0.85394 1.02789,-1.30175 1.58454,0.14453 3.11217,0.0847 4.6828,-0.16933 -0.74083,0.58241 -1.55675,1.08181 -2.43748,1.41816 0.0126,0.2206 -0.0466,0.44285 -0.0341,0.66345 0.36513,0.0833 0.69817,0.17925 1.0686,0.12567 -1.53823,0.63897 -3.26332,1.08645 -4.91663,0.88206 -0.0814,0.15213 -0.30063,0.20075 -0.38232,0.35322 -0.68627,-0.0291 -1.44529,-0.12303 -2.0965,-0.34065 0.006,-0.15148 -0.0165,-0.37274 -0.0106,-0.52421 -0.31584,-0.12634 -0.50502,-0.24573 -0.82086,-0.3724" />
        <path
           inkscape:connector-curvature="0"
           id="path416"
           style="fill:#fcd57e;fill-opacity:1;fill-rule:nonzero;stroke:none;stroke-width:0.03307291"
           d="m 172.91913,138.92193 c 0.0814,-0.57613 0.16238,-1.14895 0.18753,-1.73798 l 0.001,-0.0357 -0.0291,-0.0275 c -0.56488,-0.5295 -1.10431,-1.08479 -1.56899,-1.69499 0.008,-0.27649 -0.0112,-0.54272 -0.0351,-0.80929 -0.0265,-0.28277 -0.0605,-0.56191 -0.10087,-0.84369 l -0.003,-0.0231 -0.0139,-0.0268 c -0.52253,-1.00277 -1.11387,-1.96288 -1.65991,-2.94151 -0.27384,-0.48948 -0.53743,-0.98359 -0.78349,-1.48497 -0.12138,-0.25135 -0.24111,-0.5037 -0.35223,-0.75935 l -0.16371,-0.38464 c -0.0681,-0.13064 -0.1227,-0.27881 -0.21101,-0.39754 -0.32577,-0.50006 -0.75869,-0.89826 -1.22039,-1.23891 -0.46401,-0.34065 -0.9601,-0.63136 -1.48233,-0.8718 -0.26392,-0.11642 -0.52949,-0.22754 -0.81723,-0.30163 -0.1432,-0.0374 -0.29203,-0.0694 -0.45277,-0.0731 -0.14155,-0.007 -0.2831,-0.007 -0.42432,-0.009 -0.55298,-0.003 -1.101,-0.007 -1.66489,0.0473 -0.2421,-0.10153 -0.48121,-0.17429 -0.72265,-0.24209 -0.25631,-0.0711 -0.5113,-0.13295 -0.77159,-0.19017 l -0.0275,-0.006 -0.0265,0.004 -1.4605,0.19645 -1.46677,-0.76034 -0.0175,-0.009 -0.0222,-0.004 c -0.2798,-0.0548 -0.55729,-0.10406 -0.83841,-0.14672 -0.26557,-0.04 -0.53115,-0.0751 -0.80863,-0.0896 -0.8761,-0.61549 -1.86564,-1.05767 -2.89024,-1.34375 l -0.0476,-0.0132 -0.047,0.0149 c -0.59799,0.18884 -1.15824,0.4908 -1.64805,0.88271 l -0.0238,6.7e-4 -0.0771,0.002 -0.15512,0.004 -0.31088,0.006 -0.60457,0.01 -3.17037,-0.66675 -0.0751,-0.0159 -0.0615,0.046 c -0.3142,0.23547 -0.56257,0.55727 -0.74216,0.89759 -0.60689,0.009 -1.19261,0.13395 -1.76179,0.2464 l -0.0466,0.009 -0.0341,0.0324 c -0.52884,0.49576 -0.9611,1.07189 -1.35169,1.66621 l -1.71847,0.20572 c -0.29038,0.0202 -0.59763,0.01 -0.91513,0.0496 -0.3132,0.041 -0.61615,0.11509 -0.91314,0.20902 -0.59234,0.19149 -1.1483,0.46963 -1.67316,0.78713 -0.52454,0.31684 -1.02857,0.67403 -1.48828,1.08777 -0.91778,0.8169 -1.651,1.92352 -1.82927,3.17963 -0.0453,0.31122 -0.0559,0.62905 -0.0258,0.94456 l 0.0582,0.45145 c 0.0159,0.14585 0.0261,0.29335 0.0321,0.44185 0.0248,0.57679 -0.004,1.16152 0.005,1.7565 -0.36281,0.51297 -0.67799,1.04412 -0.98855,1.57891 -0.31915,0.55099 -0.62375,1.10794 -0.92471,1.66952 l -0.0218,0.0403 0.003,0.0489 c 0.0602,1.01434 0.15776,2.02604 0.24507,3.0384 l -0.4574,2.28204 -0.006,0.0274 0.009,0.0218 c 0.21398,0.5285 0.45178,1.04278 0.72529,1.54056 0.13692,0.24868 0.28145,0.49339 0.44516,0.72632 0.16239,0.23072 0.33701,0.45631 0.55066,0.64519 0.23681,0.39852 0.49974,0.78144 0.79607,1.13674 -0.28377,-0.36677 -0.53248,-0.75938 -0.7534,-1.16519 l -0.002,-0.003 -0.004,-0.003 c -0.2028,-0.19185 -0.3675,-0.42141 -0.51964,-0.65616 -0.15246,-0.23512 -0.28707,-0.48227 -0.41308,-0.73329 -0.24837,-0.49342 -0.46302,-1.00704 -0.65153,-1.5243 l 0.54041,-2.25921 0.004,-0.0159 -9.8e-4,-0.0212 c -0.0523,-1.00443 -0.0949,-2.00918 -0.1733,-3.01129 0.28806,-0.54438 0.58704,-1.08545 0.89495,-1.61892 0.31651,-0.54537 0.64029,-1.09074 1.00112,-1.5961 l 0.0327,-0.0456 -9.8e-4,-0.0552 c -0.0116,-0.59597 0.0208,-1.20319 -0.005,-1.81802 -0.006,-0.15379 -0.0169,-0.30824 -0.0337,-0.46302 l -0.0576,-0.44846 c -0.0275,-0.28708 -0.0179,-0.57779 0.0235,-0.86486 0.1647,-1.15987 0.84468,-2.19902 1.72376,-2.98119 0.43987,-0.39622 0.92703,-0.74216 1.43768,-1.05073 0.50965,-0.30824 1.04345,-0.57414 1.60337,-0.75505 0.27947,-0.0883 0.56654,-0.15809 0.85362,-0.19579 0.2831,-0.0364 0.58307,-0.0268 0.89594,-0.0476 l 1.81074,-0.21663 0.0764,-0.009 0.0423,-0.0652 c 0.38464,-0.59168 0.8093,-1.15888 1.313,-1.63844 0.5887,-0.11741 1.16846,-0.24011 1.74592,-0.23448 l 0.10418,9.8e-4 0.0453,-0.0923 c 0.15842,-0.32247 0.36909,-0.60226 0.64128,-0.82286 l 3.11084,0.65451 0.0175,0.004 0.0182,-3.1e-4 0.62375,-0.01 0.3122,-0.006 0.15645,-0.004 0.079,-0.002 0.0404,-0.002 0.0218,-9.8e-4 0.0136,-6.6e-4 0.0103,-0.001 0.006,-6.6e-4 0.0433,-0.0119 0.0417,-0.0261 v 10e-4 c 0.45442,-0.37207 0.97962,-0.65749 1.53789,-0.84006 0.99219,0.28212 1.94336,0.70975 2.7811,1.30572 l 0.039,0.0278 0.0516,0.003 c 0.52983,0.0281 1.08247,0.12899 1.6199,0.23019 l 1.48001,0.76696 0.0542,0.0281 0.0562,-0.008 1.47373,-0.19844 c 0.24244,0.0536 0.48718,0.11278 0.72696,0.17893 0.24705,0.0691 0.49642,0.1442 0.719,0.24176 l 0.0417,0.0182 0.0456,-0.005 c 0.5414,-0.0546 1.10727,-0.0519 1.66521,-0.0483 0.13991,0.002 0.28013,0.003 0.41937,0.009 0.12072,0.002 0.2497,0.0284 0.37769,0.0622 0.2583,0.0658 0.51395,0.17231 0.76432,0.28278 0.49941,0.23018 0.97928,0.51097 1.42246,0.83641 0.44186,0.32478 0.84865,0.70544 1.13771,1.14994 0.0807,0.10815 0.12138,0.2292 0.18455,0.34628 l 0.16701,0.39224 c 0.11278,0.26029 0.23449,0.5166 0.35785,0.77159 0.2497,0.509 0.51594,1.0084 0.79177,1.50085 l 0.84005,1.46712 0.81393,1.4433 c 0.0476,0.26293 0.0906,0.53016 0.12534,0.79573 0.0354,0.27418 0.0665,0.55232 0.0651,0.81823 v 0.0506 l 0.0275,0.0337 c 0.49907,0.61218 1.06826,1.1559 1.65662,1.66919 -0.005,0.56125 -0.0628,1.13142 -0.12137,1.69565 l -10e-4,0.01 0.002,0.007 0.56257,2.7219 -0.45938,-2.73249" />
        <path
           inkscape:connector-curvature="0"
           id="path418"
           style="fill:#ed69b8;fill-opacity:1;fill-rule:nonzero;stroke:none;stroke-width:0.03307291"
           d="m 175.99426,144.95708 c -0.0529,-0.54074 -0.15346,-1.09141 -0.42102,-1.57725 l -0.007,-0.0119 -0.0109,-0.006 c -0.69982,-0.37207 -1.35301,-0.8298 -1.98272,-1.31531 0.60722,0.50502 1.2399,0.98458 1.92616,1.3841 0.23648,0.47427 0.31519,1.01005 0.34661,1.5369 0.0304,0.53317 -5.3e-4,1.06994 -0.0651,1.60172 -0.12303,1.04372 -0.35686,2.08098 -0.65749,3.08339 -0.44979,0.29365 -0.88602,0.60229 -1.31531,0.92501 -0.44516,0.33642 -0.88602,0.67707 -1.28753,1.09075 l -0.0314,0.0325 -0.01,0.047 c -0.15147,0.72294 -0.43524,1.41747 -0.76002,2.09338 -0.32543,0.6771 -0.69353,1.33922 -1.02889,2.02509 -0.33338,0.68431 -0.64592,1.38609 -0.87313,2.12325 -0.22026,0.71378 -0.35355,1.46645 -0.32775,2.22518 -1.17839,1.47707 -2.89785,2.52674 -4.75291,2.88601 -1.01104,-0.34571 -2.04721,-0.61225 -3.09926,-0.79971 h 5.3e-4 l -0.58937,-0.0986 -0.089,-0.0148 -0.0119,-0.002 v 0 l -0.005,0.0352 -0.4369,0.17284 -0.31948,0.12637 0.19381,0.1151 c -0.42962,0.28539 -0.89,0.54104 -1.35236,0.78717 -0.5242,0.27748 -1.05899,0.54143 -1.59543,0.79414 -0.53512,-0.10388 -1.07157,-0.21874 -1.60139,-0.34805 -0.54604,-0.13461 -1.09373,-0.27944 -1.60735,-0.47725 l -0.0823,-0.0316 -0.0714,0.0482 -3.27983,2.21565 c -1.79884,-0.0248 -3.59834,-0.13001 -5.38097,-0.35662 -0.54537,-0.46031 -1.05006,-0.98713 -1.54285,-1.5194 -0.50271,-0.54531 -0.99219,-1.10719 -1.46711,-1.67574 l -0.0185,-0.0222 -0.0238,-0.0142 -2.6002,-1.5663 c -0.30063,-0.5377 -0.60424,-1.08843 -0.83277,-1.64472 l -0.0334,-0.081 -0.0787,-0.0191 -2.07698,-0.50201 c -0.66311,-0.74286 -1.15094,-1.61671 -1.55079,-2.53177 0.11344,-0.41044 0.30493,-0.81468 0.42201,-1.25819 l 0.0172,-0.0647 -0.04,-0.0477 c -0.75274,-0.90187 -1.35301,-1.93113 -1.85142,-3.00369 0.0427,-0.3386 0.12832,-0.6763 0.22093,-1.00961 0.0476,-0.16937 0.0986,-0.33811 0.1518,-0.50605 l 0.16669,-0.51303 -0.001,0.0129 c 0.1399,-0.27711 0.31287,-0.53783 0.50436,-0.78356 -0.20042,0.23849 -0.38398,0.49289 -0.53545,0.76743 l -0.001,0.0127 c -0.0635,0.1429 -0.12568,0.32414 -0.18521,0.4855 -0.0595,0.16639 -0.11741,0.33384 -0.17132,0.50218 -0.10748,0.33731 -0.20902,0.67694 -0.26623,1.03248 l -0.002,0.0145 0.007,0.0159 c 0.45242,1.08121 1.01004,2.12791 1.72771,3.07022 -0.13029,0.40709 -0.33535,0.80073 -0.4693,1.24218 l -0.0142,0.0464 0.0192,0.0512 c 0.1862,0.49547 0.41143,0.97966 0.6856,1.43738 0.27616,0.45645 0.59631,0.88639 0.94986,1.28495 l 0.0344,0.0384 0.0473,0.0115 2.05184,0.4961 c 0.24507,0.57748 0.53876,1.10771 0.8384,1.64448 l 0.0205,0.0367 0.0377,0.0228 2.61507,1.57536 c 0.4746,0.56753 0.95846,1.12319 1.45951,1.66681 0.50965,0.54934 1.02625,1.0918 1.61164,1.58194 l 0.0354,0.0297 0.048,0.006 c 1.83191,0.23476 3.67573,0.34158 5.51921,0.36576 l 0.0516,2.6e-4 0.043,-0.0288 3.25438,-2.19829 c 0.51759,0.19275 1.0408,0.33136 1.56666,0.46134 0.55463,0.13526 1.10993,0.25396 1.67084,0.36211 l 0.0519,0.01 0.048,-0.0225 c 0.56059,-0.26329 1.11258,-0.53588 1.65927,-0.82487 0.54572,-0.29107 1.08744,-0.5881 1.60437,-0.95422 l 0.20538,-0.14545 -0.0589,-0.0354 0.10881,-0.043 c 1.23395,0.18524 2.45302,0.48521 3.63339,0.89204 l 0.0417,0.0145 0.0427,-0.008 c 1.97214,-0.37336 3.78321,-1.4813 5.02444,-3.0559 l 0.0377,-0.0479 -0.003,-0.0619 c -0.0347,-0.73392 0.0949,-1.47214 0.31386,-2.18179 0.21928,-0.7117 0.52454,-1.39902 0.85461,-2.07569 0.32973,-0.67528 0.6985,-1.33843 1.02956,-2.02704 0.32279,-0.67178 0.61019,-1.37382 0.77225,-2.11666 0.36413,-0.37075 0.79011,-0.70383 1.21708,-1.02527 0.44021,-0.32811 0.89596,-0.64128 1.34905,-0.94978 l 0.0529,-0.0358 0.0145,-0.0545 c 0.14354,-0.53059 0.25631,-1.05976 0.35355,-1.59577 0.0976,-0.53486 0.16867,-1.07487 0.21232,-1.61733 0.0453,-0.5421 0.0569,-1.08909 0.006,-1.63278" />
        <path
           inkscape:connector-curvature="0"
           id="path420"
           style="fill:#f0451d;fill-opacity:1;fill-rule:nonzero;stroke:none;stroke-width:0.03307291"
           d="m 163.05547,155.61747 c -0.27484,-0.52517 -0.49677,-1.07682 -0.77127,-1.60106 l 0.0103,0.01 c -1.65364,-0.76273 -3.30795,-1.52406 -4.95564,-2.2992 l -0.0387,-0.0182 -0.006,-0.0433 c -0.006,-0.0477 -0.0294,-0.10748 -0.0526,-0.16771 -0.0228,-0.0616 -0.0506,-0.12309 -0.0618,-0.20578 l 0.0532,0.0665 c -2.26486,-0.7543 -4.66397,-1.18127 -7.04059,-0.94953 l 0.0665,-0.0301 c -0.7018,0.66715 -1.32655,1.41595 -1.83654,2.23709 -0.51163,0.82024 -0.90189,1.7132 -1.16582,2.64156 l -0.0274,0.0969 -0.0986,-0.008 c -0.62507,-0.0473 -1.26305,-0.15114 -1.84447,-0.43991 l 0.16999,-0.0906 c -0.0943,0.7285 -0.21861,1.4485 -0.12336,2.15828 l 0.009,0.0665 -0.0516,0.0373 c -0.17198,0.12362 -0.34925,0.16199 -0.45971,0.24738 l -0.0714,0.0552 -0.0688,-0.0571 c -0.44517,-0.37207 -0.86817,-0.77228 -1.25347,-1.20881 -0.38331,-0.43719 -0.73389,-0.91056 -0.99682,-1.43675 l 0.0698,0.0539 c -1.68076,-0.37697 -3.29174,-0.98184 -4.87759,-1.62249 l -0.0387,-0.0155 -0.003,-0.0411 c -0.0357,-0.4323 -0.13361,-0.8638 -0.16669,-1.30807 l 0.0327,0.0453 -2.8823,-1.31425 -0.007,-0.003 -0.002,-0.007 -0.3433,-1.28882 0.37439,1.27966 -0.009,-0.0103 2.91306,1.24321 0.0294,0.0127 0.003,0.0331 c 0.0446,0.43253 0.1485,0.86158 0.19116,1.30598 l -0.0423,-0.0562 c 1.5918,0.6178 3.2051,1.19721 4.87098,1.54682 l 0.047,0.01 0.0232,0.0443 c 0.52487,1.00277 1.33747,1.83786 2.21026,2.56547 l -0.1399,-0.002 c 0.17099,-0.12429 0.34859,-0.16368 0.45806,-0.2496 l -0.0426,0.1039 c -0.10351,-0.75151 0.0245,-1.49734 0.11344,-2.21694 l 0.0202,-0.16431 0.14983,0.0736 c 0.53578,0.26369 1.14829,0.3642 1.75551,0.40683 l -0.12634,0.089 c 0.52486,-1.91357 1.64571,-3.6318 3.08371,-4.97681 l 0.0284,-0.0268 0.038,-0.004 c 1.20518,-0.10905 2.42226,-0.0609 3.61521,0.12375 1.19327,0.18786 2.36041,0.50671 3.49746,0.89995 l 0.048,0.0165 0.006,0.0499 c 0.0112,0.10283 0.0857,0.21769 0.10914,0.37416 l -0.0443,-0.0617 c 1.64074,0.79117 3.27521,1.59576 4.91,2.39947 l 0.007,0.004 0.003,0.006 c 0.2626,0.53316 0.47063,1.08882 0.73257,1.62057" />
        <path
           inkscape:connector-curvature="0"
           id="path422"
           style="fill:#f0451d;fill-opacity:1;fill-rule:nonzero;stroke:none;stroke-width:0.03307291"
           d="m 154.66982,131.60653 4.74332,3.45976 0.0198,0.036 0.26491,3.05792 -0.0661,-0.0612 c 0.53115,0.004 1.05238,0.0794 1.57064,0.0827 l 0.0642,0.041 c 0.16668,0.34528 0.2325,0.72463 0.28508,1.09009 l -0.0116,0.0519 -1.77898,2.59886 -0.01,-0.10517 c 0.0883,0.0936 0.11344,0.1948 0.1647,0.24044 l 0.0231,0.0748 -10e-4,0.005 -0.83212,3.28309 -0.0281,0.0477 c -0.45441,0.41976 -0.8837,0.86647 -1.27396,1.34451 -0.0251,0.0307 -0.0661,0.0422 -0.10252,0.0337 l -5.76693,-1.41916 c -0.0354,-0.009 -0.0628,-0.0328 -0.0774,-0.0632 l -0.001,-0.003 -0.99119,-2.14243 c -0.0168,-0.0364 -0.0132,-0.078 0.005,-0.11079 0.14519,-0.25731 0.25367,-0.54769 0.41043,-0.82782 l -0.0149,0.0694 -0.1055,-1.34772 0.0185,-0.0741 c 0.12634,-0.19282 0.22456,-0.41705 0.36479,-0.63269 l 0.15214,0.16206 c -1.10794,0.62409 -2.16065,1.35235 -3.08603,2.2225 l 0.0291,-0.0503 c -0.27947,1.12779 -0.53678,2.26285 -0.65154,3.41442 l -0.0175,0.0464 c -1.06098,1.43893 -2.06838,2.92166 -2.90182,4.50178 -0.0165,0.0318 -0.0526,0.047 -0.086,0.039 -1.19228,-0.29134 -2.35446,-0.7067 -3.45612,-1.24787 -1.10298,-0.5377 -2.13849,-1.21206 -3.07942,-1.99692 l 0.0453,0.005 c -0.54636,0.26796 -1.12514,0.44844 -1.66522,0.71342 l -0.0218,0.001 c -0.95415,-0.39558 -1.88317,-0.87709 -2.68717,-1.52936 0.81491,0.63808 1.74922,1.10239 2.70701,1.48002 l -0.0218,0.001 c 0.54042,-0.27686 1.11754,-0.46792 1.65133,-0.74156 l 0.0456,0.005 c 1.9017,1.52628 4.14999,2.60155 6.51835,3.16081 l -0.0863,0.039 c 0.82946,-1.59577 1.83323,-3.09126 2.88858,-4.54055 l -0.0175,0.0459 c 0.10947,-1.1684 0.36248,-2.31305 0.636,-3.4458 l 0.0294,-0.0506 c 0.93497,-0.88966 1.99826,-1.63413 3.11447,-2.27178 0.0549,-0.0314 0.12469,-0.0122 0.15611,0.0427 0.0218,0.0384 0.0185,0.0847 -0.004,0.11939 -0.12502,0.19381 -0.22225,0.41871 -0.36116,0.635 l 0.0185,-0.0741 0.11344,1.34706 -0.0149,0.0698 c -0.14354,0.25863 -0.25036,0.54935 -0.40548,0.83047 l 0.005,-0.11047 0.98128,2.1468 -0.0784,-0.0659 5.75832,1.45286 -0.10219,0.0335 c 0.40018,-0.48422 0.83807,-0.93471 1.30076,-1.35665 l -0.0281,0.0476 0.85129,-3.27845 0.0222,0.079 c -0.0883,-0.0939 -0.11244,-0.19513 -0.16371,-0.24144 -0.0298,-0.0265 -0.0341,-0.0708 -0.0119,-0.10252 l 0.002,-0.003 1.79421,-2.58895 -0.0116,0.0519 c -0.0499,-0.36479 -0.11179,-0.72529 -0.26624,-1.0504 l 0.0638,0.041 c -0.53115,-0.007 -1.05172,-0.0857 -1.5703,-0.0919 -0.0347,0 -0.0632,-0.0275 -0.0661,-0.0612 l -0.23151,-3.06089 0.0198,0.0357 -4.68313,-3.5398" />
        <path
           inkscape:connector-curvature="0"
           id="path424"
           style="fill:#f0451d;fill-opacity:1;fill-rule:nonzero;stroke:none;stroke-width:0.03307291"
           d="m 155.09548,129.14392 c -0.0258,0.56257 -0.0579,1.12812 -0.18059,1.68275 l -0.0122,-0.0327 c 0.92737,0.62211 1.84911,1.25148 2.76722,1.88549 l 2.75432,1.90202 0.004,0.003 0.0417,0.0767 0.0364,1.25942 -0.0599,-0.10054 c 1.07354,0.56654 2.11501,1.19525 3.11049,1.89045 0.0324,0.0225 0.0506,0.0589 0.0523,0.0956 0.0718,1.9222 -0.0314,3.85729 -0.38926,5.75006 l -0.0655,-0.11047 c 0.61515,0.21266 1.23891,0.3982 1.87756,0.51131 l -0.0655,0.0195 c 1.15158,-1.06032 2.19504,-2.24697 3.05559,-3.56493 -0.81326,1.34574 -1.8028,2.59259 -2.95009,3.67804 l -0.0655,0.0198 c -0.65221,-0.10153 -1.28952,-0.27649 -1.91427,-0.47757 -0.0463,-0.0149 -0.0738,-0.0615 -0.0658,-0.10815 l 2.6e-4,-0.002 c 0.15743,-0.94126 0.2712,-1.88979 0.32379,-2.84295 0.0549,-0.95283 0.0565,-1.90864 0.0136,-2.86213 l 0.0526,0.0956 c -0.98888,-0.68792 -2.01348,-1.3249 -3.07579,-1.89276 -0.0374,-0.0198 -0.0589,-0.0575 -0.0599,-0.0972 v -0.003 l -0.0271,-1.23925 0.0463,0.0797 -2.72388,-1.94898 c -0.90817,-0.64925 -1.81239,-1.30376 -2.71131,-1.96522 l -0.0122,-0.0331 c 0.14188,-0.54306 0.19546,-1.10662 0.24243,-1.66787" />
        <path
           inkscape:connector-curvature="0"
           id="path426"
           style="fill:#f0451d;fill-opacity:1;fill-rule:nonzero;stroke:none;stroke-width:0.03307291"
           d="m 165.96556,146.23174 c -1.24718,-0.23657 -2.49867,-0.43395 -3.75808,-0.55734 l 0.089,-0.038 c -0.29699,0.41275 -0.58805,0.83003 -0.8523,1.26437 -0.26589,0.43293 -0.5123,0.87799 -0.73786,1.33314 -0.45177,0.90951 -0.84004,1.85248 -1.12909,2.82734 l -0.048,-0.1226 c 0.66741,0.39882 1.34904,0.78277 2.03299,1.16284 0.68196,0.38331 1.36161,0.77721 2.00488,1.22436 -0.67634,-0.3943 -1.37617,-0.74222 -2.07202,-1.09941 -0.6942,-0.35944 -1.39965,-0.70075 -2.07698,-1.10265 -0.0427,-0.0255 -0.0612,-0.0774 -0.048,-0.123 0.28509,-0.98921 0.65187,-1.95762 1.11985,-2.87566 0.23449,-0.45915 0.48948,-0.90719 0.76431,-1.34243 0.27649,-0.43434 0.56588,-0.86158 0.88636,-1.26414 l 0.003,-0.003 c 0.0215,-0.0269 0.0549,-0.039 0.0866,-0.0348 1.26173,0.16536 2.51255,0.41043 3.73558,0.75112" />
        <path
           inkscape:connector-curvature="0"
           id="path428"
           style="fill:#f0451d;fill-opacity:1;fill-rule:nonzero;stroke:none;stroke-width:0.03307291"
           d="m 170.21376,141.38983 c -0.43193,0.37108 -0.91513,0.67701 -1.40031,0.97102 -0.48516,0.29667 -0.98557,0.56357 -1.49225,0.8222 l 0.041,-0.0327 c -0.27582,0.34726 -0.54338,0.70644 -0.80069,1.06892 -0.25201,0.36512 -0.51295,0.73058 -0.68857,1.13244 l 0.003,-0.0334 c 0.0304,0.30463 0.0681,0.60758 0.09,0.91351 -0.079,-0.29508 -0.14221,-0.5934 -0.21332,-0.89039 l 0.001,-0.0284 0.002,-0.005 c 0.0738,-0.21937 0.17429,-0.42403 0.27947,-0.62544 0.1055,-0.20142 0.22026,-0.39721 0.34428,-0.58639 0.24375,-0.38199 0.51065,-0.74447 0.79144,-1.10066 l 0.0387,-0.0321 0.002,-0.001 1.51142,-0.76399 c 0.50205,-0.25929 1.00278,-0.51891 1.49093,-0.80863" />
        <path
           inkscape:connector-curvature="0"
           id="path430"
           style="fill:#f0451d;fill-opacity:1;fill-rule:nonzero;stroke:none;stroke-width:0.03307291"
           d="m 138.5243,122.74861 c 0.32675,1.86498 1.30472,3.59801 2.63525,4.92125 -0.10947,1.23825 -0.6446,2.43318 -1.49093,3.32879 -0.84601,0.89562 -2.10575,1.36194 -3.3159,1.52036 -1.51639,-1.39567 -3.26197,-2.53206 -5.14217,-3.34797 0.24838,-1.67944 1.18434,-3.22527 2.52611,-4.233 1.34176,-1.00773 3.22195,-1.60701 4.78764,-2.18943" />
        <path
           inkscape:connector-curvature="0"
           id="path432"
           style="fill:#f8a10e;fill-opacity:1;fill-rule:nonzero;stroke:none;stroke-width:0.03307291"
           d="m 137.672,132.18399 c -1.54119,-1.60801 -3.43198,-2.87933 -5.50266,-3.7002 1.20152,-2.25359 3.2504,-4.01009 5.68622,-4.77772 0.59696,1.78363 1.70028,3.43529 3.18029,4.59615 -0.3767,1.71086 -1.75418,3.18922 -3.36385,3.88177" />
        <path
           inkscape:connector-curvature="0"
           id="path434"
           style="fill:#fcd57e;fill-opacity:1;fill-rule:nonzero;stroke:none;stroke-width:0.03307291"
           d="m 135.74783,124.20812 c 1.0752,2.13353 2.73976,4.0091 4.76779,5.27182 -0.5305,0.87313 -1.27397,1.71814 -2.05416,2.37762 -1.37585,-2.15206 -3.32086,-3.93667 -5.58304,-5.12234 0.73786,-1.16185 1.57922,-2.04721 2.86941,-2.5271" />
        <path
           inkscape:connector-curvature="0"
           id="path436"
           style="fill:#358aa8;fill-opacity:1;fill-rule:nonzero;stroke:none;stroke-width:0.03307291"
           d="m 124.05027,133.64746 c 0.34594,0.40085 0.91876,0.54901 1.44561,0.49577 0.52718,-0.0529 1.01964,-0.28013 1.48828,-0.52686 1.28323,-0.67501 2.57671,-1.5068 3.08174,-2.86576 1.02493,0.0172 2.08491,-0.0754 2.99111,-0.55497 0.90586,-0.47922 1.58882,-1.49522 1.55244,-2.51982 1.0752,-0.0619 2.11171,-0.61946 2.75564,-1.48299 0.64393,-0.86321 0.97598,-1.96387 0.72893,-3.01195 1.40163,-0.18885 2.67791,-1.13374 3.26826,-2.41896 0.21762,-0.47426 0.34694,-1.0031 0.27153,-1.51937 -0.0751,-0.51627 -0.32014,-1.18996 -0.79176,-1.4132 0.7782,-0.29204 1.19624,-1.27959 0.89528,-2.05416 -0.30096,-0.77424 -1.24288,-1.22105 -2.04291,-0.99748 -0.80004,0.2239 -1.43406,1.16317 -1.3808,1.99231 -0.56885,-0.74182 -1.60833,-1.08545 -2.50726,-0.82814 -0.89892,0.25697 -1.52367,0.97036 -1.61396,1.9007 -0.97068,-0.61185 -2.19141,-0.83476 -3.30199,-0.54769 -1.11059,0.2874 -2.08657,1.09769 -2.5195,2.15999 -0.43325,1.0623 -0.12071,2.16363 0.58109,3.07082 -1.06461,-0.16239 -2.20232,0.40118 -2.71859,1.3464 -0.51627,0.94522 -0.39688,2.06276 0.31518,2.87106 -1.14763,-0.0559 -2.29691,0.63434 -2.78738,1.67349 -0.49014,1.03915 -0.29237,2.36471 0.48022,3.21535 -0.38762,0.36082 -0.53744,1.61462 -0.19116,2.01546" />
        <path
           inkscape:connector-curvature="0"
           id="path438"
           style="fill:#204c7a;fill-opacity:1;fill-rule:nonzero;stroke:none;stroke-width:0.03307291"
           d="m 133.05701,130.19564 c 0.90586,-0.47922 1.58882,-1.49522 1.55244,-2.51982 1.0752,-0.0619 2.11171,-0.61946 2.75564,-1.48299 0.64393,-0.86321 0.97598,-1.96387 0.72893,-3.01195 1.4013,-0.18918 2.67791,-1.13374 3.26826,-2.41929 0.21762,-0.47393 0.34694,-1.00277 0.27153,-1.51904 -0.0751,-0.51627 -0.32014,-1.18996 -0.79176,-1.4132 0.7782,-0.29204 1.19624,-1.27959 0.89528,-2.05416 -0.0698,-0.17893 -0.17661,-0.33834 -0.30493,-0.47824 -0.29435,0.37704 -0.71471,0.64162 -1.185,0.6565 -0.0288,0.64228 -0.37141,1.26306 -0.89959,1.6295 -0.52817,0.36645 -1.10894,0.4197 -1.72045,0.22159 -0.11807,0.37935 -0.44086,0.68792 -0.82517,0.78879 -0.38398,0.1012 -0.72398,0.0933 -1.01336,-0.17859 0.20373,0.4736 0.1313,1.05502 -0.18289,1.46414 -0.31387,0.40911 -0.70347,0.60093 -1.21377,0.52652 0.91611,0.44317 1.56203,1.39931 1.63082,2.41465 0.0691,1.01501 -0.44152,2.04986 -1.28919,2.61276 -0.84766,0.5629 -1.9288,0.80037 -2.83765,0.34297 0.0248,0.67733 -0.44549,1.34243 -1.09206,1.54516 -0.64691,0.20241 -1.36757,0.009 -1.73369,-0.56124 -0.003,0.90785 -0.35255,1.81041 -0.96176,2.48377 -0.49774,0.55001 -1.21477,0.95746 -1.95328,0.88636 -0.73819,-0.0711 -1.42743,-0.74547 -1.33582,-1.48167 -0.38298,0.43028 -0.83807,0.974 -1.26504,1.56699 0.0996,0.52355 0.32842,1.02196 0.68693,1.41685 -0.38762,0.36082 -0.53744,1.61462 -0.19116,2.01546 0.34594,0.40085 0.91876,0.54901 1.44561,0.49577 0.52685,-0.0529 1.01964,-0.28013 1.48828,-0.52686 1.28323,-0.67501 2.57671,-1.5068 3.08174,-2.86576 1.02493,0.0172 2.08491,-0.0754 2.99111,-0.55497" />
        <path
           inkscape:connector-curvature="0"
           id="path440"
           style="fill:#fcd57e;fill-opacity:1;fill-rule:nonzero;stroke:none;stroke-width:0.03307291"
           d="m 140.84205,117.82935 c 0.58836,-0.24937 0.92802,-0.88404 0.92306,-1.48167 0.008,-0.61317 -0.42764,-1.14432 -0.97333,-1.35367 -0.27054,-0.10948 -0.56952,-0.14949 -0.84899,-0.10286 -0.27979,0.0423 -0.53645,0.16735 -0.75935,0.35223 -0.43921,0.36677 -0.73554,0.95316 -0.70479,1.51606 l 0.0294,0.53644 -0.32577,-0.42532 c -0.51164,-0.6684 -1.45157,-0.99152 -2.26682,-0.78515 -0.4101,0.10319 -0.79209,0.32246 -1.0699,0.63599 -0.28013,0.31221 -0.44946,0.71636 -0.48849,1.13705 l -0.0251,0.26756 -0.22787,-0.14354 c -0.68858,-0.43325 -1.50746,-0.6641 -2.31973,-0.64426 -0.8126,0.0149 -1.61065,0.30824 -2.23871,0.82253 -0.6221,0.50767 -1.10133,1.23891 -1.19129,2.02737 -0.0916,0.79474 0.22887,1.59742 0.7286,2.23672 l 0.25599,0.32775 -0.41176,-0.0632 c -0.97135,-0.14883 -2.02142,0.35752 -2.51487,1.20584 -0.24871,0.42466 -0.36678,0.92472 -0.31981,1.41254 0.0436,0.48849 0.25334,0.95713 0.5801,1.3259 l 0.26094,0.29435 -0.3929,-0.0198 c -1.07785,-0.0539 -2.17058,0.60225 -2.62996,1.5789 -0.22854,0.4865 -0.30262,1.04808 -0.2163,1.58287 0.0823,0.53313 0.28046,1.06164 0.63963,1.47803 l 0.0807,0.0933 -0.088,0.0824 c -0.18389,0.17197 -0.28344,0.48518 -0.34231,0.77093 -0.0523,0.29335 -0.0728,0.6049 0.003,0.88833 0.0678,0.27815 0.33999,0.47791 0.60689,0.60491 0.27748,0.127 0.59167,0.17264 0.90123,0.15544 -0.30724,0.0403 -0.62904,0.0192 -0.92736,-0.091 -0.14849,-0.0552 -0.29236,-0.13031 -0.4177,-0.2325 -0.12436,-0.0956 -0.24011,-0.23746 -0.28906,-0.39655 -0.10484,-0.31386 -0.10153,-0.64029 -0.0661,-0.95845 0.0523,-0.31551 0.10749,-0.64194 0.36083,-0.92406 l -0.007,0.17529 c -0.41341,-0.43359 -0.7018,-0.99715 -0.78779,-1.5961 -0.0833,-0.59696 -0.0112,-1.22204 0.25036,-1.77403 0.52487,-1.10364 1.72409,-1.82364 2.94481,-1.76808 l -0.13196,0.27451 c -0.37009,-0.41672 -0.61152,-0.95416 -0.66146,-1.51342 -0.0536,-0.55926 0.0817,-1.12944 0.36347,-1.61032 0.57084,-0.97003 1.73402,-1.53161 2.85023,-1.36624 l -0.15578,0.26458 c -0.53445,-0.68395 -0.89859,-1.56931 -0.7954,-2.47518 0.10683,-0.90421 0.63368,-1.69101 1.31134,-2.24763 0.68196,-0.55959 1.55807,-0.88106 2.43946,-0.89628 0.88073,-0.0212 1.76014,0.22688 2.50394,0.69487 l -0.25268,0.12369 c 0.0446,-0.48353 0.24276,-0.95945 0.57085,-1.32457 0.32576,-0.36744 0.76695,-0.61913 1.2366,-0.7372 0.95184,-0.23548 2.00785,0.127 2.60978,0.90455 l -0.29633,0.11145 c -0.0327,-0.70313 0.31087,-1.35136 0.82053,-1.79354 0.25368,-0.22159 0.58871,-0.38497 0.93498,-0.41011 0.34429,-0.0341 0.68924,0.0374 0.99151,0.18224 0.30329,0.14353 0.56953,0.36644 0.75275,0.64657 0.1862,0.27814 0.27319,0.61846 0.25367,0.94523 -0.0324,0.65153 -0.45442,1.27595 -1.05998,1.47835" />
        <path
           inkscape:connector-curvature="0"
           id="path442"
           style="fill:#f0451d;fill-opacity:1;fill-rule:nonzero;stroke:none;stroke-width:0.03307291"
           d="m 125.49588,134.14323 c 0.48981,-0.0661 0.93894,-0.27815 1.3679,-0.50933 0.42995,-0.23548 0.85229,-0.48551 1.2528,-0.76332 0.39522,-0.28344 0.77986,-0.58473 1.09802,-0.94655 0.32412,-0.35553 0.57712,-0.76927 0.7405,-1.21444 l 0.0285,-0.0771 h 0.0843 c 1.01534,-3.1e-4 2.05582,-0.10186 2.93489,-0.5748 0.42829,-0.23383 0.7944,-0.58606 1.05404,-1.00013 0.25895,-0.41374 0.41141,-0.89727 0.39191,-1.37583 l -0.007,-0.15611 0.15809,-0.0106 c 1.01898,-0.0675 2.01216,-0.58505 2.63194,-1.40361 0.62343,-0.81624 0.96011,-1.89376 0.72562,-2.89851 l -0.0357,-0.1518 0.15313,-0.0192 c 1.19592,-0.14817 2.31808,-0.86122 2.97623,-1.89045 0.32147,-0.51296 0.5672,-1.10265 0.55166,-1.71649 -0.0129,-0.30328 -0.081,-0.61052 -0.1948,-0.89594 -0.11511,-0.28146 -0.28676,-0.56092 -0.56622,-0.70975 0.28806,0.13097 0.48551,0.40547 0.61747,0.68759 0.12997,0.28773 0.21398,0.59465 0.24242,0.91314 0.0423,0.64128 -0.17595,1.27165 -0.50006,1.81504 -0.65749,1.09141 -1.80843,1.88185 -3.08934,2.07433 l 0.11774,-0.17065 c 0.13229,0.5457 0.11145,1.12183 -0.0281,1.65993 -0.13957,0.53942 -0.39159,1.04444 -0.72231,1.48894 -0.66973,0.89528 -1.73865,1.48299 -2.86114,1.53888 l 0.15147,-0.16635 c 0.0172,0.55562 -0.16272,1.09669 -0.4531,1.55178 -0.29236,0.45574 -0.69618,0.83807 -1.17541,1.09438 -0.47393,0.25169 -0.99219,0.40018 -1.51209,0.48088 -0.52189,0.0761 -1.04643,0.0873 -1.56567,0.0718 l 0.11277,-0.0771 c -0.18785,0.47261 -0.47062,0.90322 -0.81855,1.26438 -0.34396,0.36612 -0.74282,0.67072 -1.15987,0.93695 -0.41969,0.26359 -0.85559,0.49544 -1.29778,0.71173 -0.44086,0.2163 -0.91149,0.40349 -1.40461,0.43822" />
        <path
           inkscape:connector-curvature="0"
           id="path444"
           style="fill:#f0451d;fill-opacity:1;fill-rule:nonzero;stroke:none;stroke-width:0.03307291"
           d="m 170.13605,121.98496 c -1.26305,1.88549 -2.0912,4.09079 -2.30386,6.35 -0.82153,0.19744 -1.70259,-0.009 -2.44045,-0.42102 -0.73786,-0.41143 -1.32292,-0.97168 -1.88383,-1.6037 1.7059,-1.34971 3.03873,-3.16574 3.81496,-5.19774 0.90851,0.27781 1.90467,0.59498 2.81318,0.87246" />
        <path
           inkscape:connector-curvature="0"
           id="path446"
           style="fill:#f8a10e;fill-opacity:1;fill-rule:nonzero;stroke:none;stroke-width:0.03307291"
           d="m 168.48042,121.07578 c -1.13142,2.18579 -2.52942,4.23301 -4.1533,6.08245 0.56026,0.58605 1.31498,0.95382 2.11302,1.09835 0.83874,-2.38125 1.8564,-4.72877 3.01824,-6.96979 -0.26821,-0.0771 -0.70942,-0.13395 -0.97796,-0.21101" />
        <path
           inkscape:connector-curvature="0"
           id="path448"
           style="fill:#fcd57e;fill-opacity:1;fill-rule:nonzero;stroke:none;stroke-width:0.03307291"
           d="m 168.93286,120.77581 c -1.10001,2.41962 -2.50992,4.69834 -4.1844,6.76242 0.30197,0.32974 0.70777,0.51792 1.15292,0.55993 0.90853,-2.53173 2.10113,-4.97086 3.47894,-7.28067 -0.13327,-0.0215 -0.31419,-0.0205 -0.44746,-0.0417" />
        <path
           inkscape:connector-curvature="0"
           id="path450"
           style="fill:#358aa8;fill-opacity:1;fill-rule:nonzero;stroke:none;stroke-width:0.03307291"
           d="m 167.69031,118.72165 c 0.24904,-0.73058 1.02757,-1.24254 1.79685,-1.18235 0.7696,0.0605 1.45852,0.68758 1.59081,1.44793 0.54008,0.1184 1.08744,0.49113 1.37285,0.96474 0.28542,0.47327 0.36644,1.06528 0.21928,1.59808 0.39919,-0.14453 0.91976,-0.0377 1.20881,0.27318 0.28939,0.31089 0.37041,0.79838 0.19778,1.186 -0.17297,0.38794 -0.58969,0.65352 -1.01402,0.64657 -0.43226,-0.007 -0.81492,-0.26524 -1.16847,-0.51329 -0.23679,0.52685 -0.8202,0.80665 -1.39732,0.82947 -0.57713,0.0232 -1.143,-0.23019 -1.57659,-0.61152 -0.4336,-0.38166 -0.74612,-0.88338 -0.98954,-1.40725 -0.61781,0.11609 -1.25677,-0.0923 -1.79421,-0.4187 -0.22291,-0.1356 -0.4326,-0.31519 -0.5285,-0.55761 -0.0962,-0.2421 -0.047,-0.55563 0.16634,-0.70545 -0.21694,-0.12931 -0.43688,-0.40713 -0.61646,-0.5844 -0.1796,-0.17727 -0.31884,-0.40779 -0.33703,-0.65947 -0.0274,-0.38828 0.25037,-0.75638 0.60755,-0.9105 0.35719,-0.15412 0.77293,-0.12204 1.14037,0.006 0.36776,0.12733 0.79606,0.3853 1.1215,0.59895" />
        <path
           inkscape:connector-curvature="0"
           id="path452"
           style="fill:#204c7a;fill-opacity:1;fill-rule:nonzero;stroke:none;stroke-width:0.03307291"
           d="m 165.09111,118.35256 c -0.17694,0.1819 -0.28807,0.42366 -0.27022,0.67502 0.0182,0.25168 0.15743,0.4822 0.33703,0.65947 0.17958,0.17727 0.39952,0.45509 0.61614,0.5844 -0.21299,0.14982 -0.26226,0.46335 -0.16602,0.70545 0.0959,0.24242 0.30559,0.42201 0.5285,0.55761 0.53744,0.32643 1.1764,0.53479 1.79421,0.4187 0.24342,0.52387 0.55594,1.02559 0.98954,1.40725 0.43359,0.38133 0.99946,0.63467 1.57659,0.61152 0.57712,-0.0228 1.16053,-0.30262 1.39732,-0.82947 0.35355,0.24805 0.73621,0.50602 1.16847,0.51296 0.42433,0.007 0.84105,-0.2583 1.01402,-0.64624 l 0.0182,-0.0509 c 0.0156,-0.0724 0.0294,-0.14585 0.04,-0.22192 -0.40019,-0.0523 -0.80037,-0.10451 -1.20022,-0.1571 -0.43623,-0.0569 -0.87842,-0.11542 -1.2829,-0.2874 -0.60127,-0.25566 -1.08975,-0.76465 -1.32027,-1.37617 -1.01203,0.47427 -2.31114,-0.0655 -2.8284,-1.05634 -0.28872,0.12369 -0.65418,0.0337 -0.85229,-0.21002 -0.1981,-0.24341 -0.21199,-0.61945 -0.0324,-0.87676 -0.32081,-0.37902 -0.98822,-0.53281 -1.52731,-0.42003" />
        <path
           inkscape:connector-curvature="0"
           id="path454"
           style="fill:#fcd57e;fill-opacity:1;fill-rule:nonzero;stroke:none;stroke-width:0.03307291"
           d="m 165.77406,120.27145 c -0.19018,-0.10782 -0.34362,-0.26954 -0.49807,-0.42102 -0.14982,-0.14949 -0.32743,-0.29898 -0.42268,-0.50899 -0.10418,-0.20241 -0.12468,-0.45641 -0.0453,-0.67832 0.0767,-0.22225 0.23218,-0.41209 0.42764,-0.54174 0.40282,-0.2626 0.91182,-0.2497 1.34143,-0.11542 0.43458,0.14188 0.81558,0.36843 1.18931,0.59928 l -0.2077,0.0714 c 0.27087,-0.79739 1.09306,-1.34772 1.94072,-1.29117 0.84402,0.0665 1.59543,0.72926 1.73765,1.57394 l -0.12437,-0.12998 c 0.59235,0.14321 1.11623,0.5004 1.44794,1.01567 0.31882,0.51759 0.4078,1.16086 0.24243,1.74195 l -0.18025,-0.16701 c 0.46301,-0.14817 0.98226,-0.0357 1.32225,0.31022 0.3271,0.35157 0.40747,0.88404 0.21332,1.30936 -0.19744,0.42631 -0.65814,0.68857 -1.10727,0.66377 -0.45707,-0.0288 -0.82254,-0.30394 -1.15689,-0.56092 0.35717,0.22589 0.74116,0.466 1.1592,0.46435 0.41109,-0.002 0.79672,-0.27517 0.94522,-0.63732 0.15115,-0.36248 0.0575,-0.81591 -0.21497,-1.08214 -0.2702,-0.26161 -0.72198,-0.339 -1.06661,-0.20737 l -0.25002,0.0956 0.0698,-0.26227 c 0.13428,-0.50568 0.0489,-1.07057 -0.23052,-1.50812 -0.28078,-0.43061 -0.76067,-0.74977 -1.26272,-0.86056 l -0.10485,-0.0232 -0.0195,-0.10683 c -0.12534,-0.67865 -0.74611,-1.26471 -1.44395,-1.32159 -0.69487,-0.0618 -1.42247,0.40746 -1.65332,1.07321 l -0.0595,0.17165 -0.1485,-0.10021 c -0.35388,-0.23945 -0.72,-0.4736 -1.10827,-0.61648 -0.38266,-0.13758 -0.83047,-0.16007 -1.17607,0.0476 -0.16835,0.10484 -0.31386,0.2583 -0.39092,0.44351 -0.079,0.18455 -0.0784,0.39787 0.003,0.58903 0.0741,0.19744 0.22886,0.3466 0.3747,0.51131 0.14255,0.16338 0.27749,0.33536 0.45741,0.45872" />
        <path
           inkscape:connector-curvature="0"
           id="path456"
           style="fill:#f0451d;fill-opacity:1;fill-rule:nonzero;stroke:none;stroke-width:0.03307291"
           d="m 171.8942,123.14251 c -0.13857,0.41837 -0.5361,0.72661 -0.96375,0.85593 -0.43159,0.13394 -0.91744,0.11046 -1.34341,-0.0549 -0.42763,-0.16371 -0.80434,-0.44781 -1.09736,-0.79011 -0.29964,-0.33933 -0.51992,-0.7329 -0.70313,-1.13308 l 0.17363,0.0893 c -0.62276,0.10682 -1.23725,-0.0913 -1.73567,-0.39919 -0.24706,-0.14949 -0.51494,-0.33735 -0.64063,-0.62806 -0.13095,-0.2788 -0.0718,-0.65947 0.19018,-0.81094 -0.21829,0.1981 -0.21299,0.53379 -0.0728,0.75009 0.14486,0.22456 0.37604,0.37703 0.62806,0.49808 0.49775,0.24441 1.05501,0.38034 1.57195,0.27715 l 0.12038,-0.0241 0.0536,0.11344 c 0.17992,0.381 0.39654,0.7405 0.66013,1.05569 0.26624,0.3122 0.58738,0.5748 0.95978,0.73851 0.3681,0.16835 0.78515,0.23284 1.18963,0.14321 0.40052,-0.0804 0.79309,-0.29931 1.00939,-0.68097" />
      </g>
    </g>
  </g>
</svg>
