<?xml version="1.0" encoding="UTF-8" standalone="no"?>
<!-- Created with Inkscape (http://www.inkscape.org/) -->

<svg
   xmlns:dc="http://purl.org/dc/elements/1.1/"
   xmlns:cc="http://creativecommons.org/ns#"
   xmlns:rdf="http://www.w3.org/1999/02/22-rdf-syntax-ns#"
   xmlns:svg="http://www.w3.org/2000/svg"
   xmlns="http://www.w3.org/2000/svg"
   xmlns:sodipodi="http://sodipodi.sourceforge.net/DTD/sodipodi-0.dtd"
   xmlns:inkscape="http://www.inkscape.org/namespaces/inkscape"
   width="48.643642mm"
   height="31.031321mm"
   viewBox="0 0 48.643642 31.031321"
   version="1.1"
   id="svg103"
   inkscape:version="0.92.2 (5c3e80d, 2017-08-06)"
   sodipodi:docname="people.svg">
  <defs
     id="defs97" />
  <sodipodi:namedview
     id="base"
     pagecolor="#ffffff"
     bordercolor="#666666"
     borderopacity="1.0"
     inkscape:pageopacity="0.0"
     inkscape:pageshadow="2"
     inkscape:zoom="2.35"
     inkscape:cx="125.9674"
     inkscape:cy="-16.601456"
     inkscape:document-units="mm"
     inkscape:current-layer="layer1"
     showgrid="false"
     inkscape:window-width="1920"
     inkscape:window-height="1001"
     inkscape:window-x="-9"
     inkscape:window-y="-9"
     inkscape:window-maximized="1" />
  <metadata
     id="metadata100">
    <rdf:RDF>
      <cc:Work
         rdf:about="">
        <dc:format>image/svg+xml</dc:format>
        <dc:type
           rdf:resource="http://purl.org/dc/dcmitype/StillImage" />
        <dc:title></dc:title>
      </cc:Work>
    </rdf:RDF>
  </metadata>
  <g
     inkscape:label="Capa 1"
     inkscape:groupmode="layer"
     id="layer1"
     transform="translate(-3.6484156,-4.0498181)">
    <path
       id="path34"
       style="fill:#35bf55;fill-opacity:1;fill-rule:nonzero;stroke:none;stroke-width:0.03307291"
       d="m 27.970239,25.017048 c -2.54331,0 -4.61268,-2.06937 -4.61268,-4.61301 0,-2.54331 2.06937,-4.61268 4.61268,-4.61268 2.54364,0 4.61268,2.06937 4.61268,4.61268 0,2.54364 -2.06904,4.61301 -4.61268,4.61301 z m 3.46902,0.62905 c 1.69829,-1.12746 2.82112,-3.05528 2.82112,-5.24206 0,-3.46869 -2.82178,-6.29014 -6.29014,-6.29014 -3.46869,0 -6.29014,2.82145 -6.29014,6.29014 0,2.18678 1.12283,4.1146 2.82079,5.24206 -3.84241,1.41784 -6.59507,5.10613 -6.59507,9.43504 h 1.67779 c 0,-4.62458 3.76204,-8.38696 8.38663,-8.38696 4.62492,0 8.38696,3.76238 8.38696,8.38696 h 1.67746 c 0,-4.32891 -2.75266,-8.0172 -6.5954,-9.43504"
       inkscape:connector-curvature="0" />
    <path
       id="path36"
       style="fill:#35bf55;fill-opacity:1;fill-rule:nonzero;stroke:none;stroke-width:0.03307291"
       d="m 39.826549,21.452778 c 1.69796,-1.12778 2.82079,-3.05527 2.82079,-5.24205 0,-3.46869 -2.82145,-6.2901399 -6.29014,-6.2901399 -1.68043,0 -3.20543,0.6660899 -4.33487,1.7432699 -0.41837,0.39886 -0.77953,0.85461 -1.07586,1.355 0.52321,0.21167 1.02129,0.47294 1.48266,0.78581 0.29666,-0.48253 0.67799,-0.90587 1.1258,-1.24949 0.77755,-0.59763 1.74758,-0.95713 2.80227,-0.95713 2.54331,0 4.61268,2.06904 4.61268,4.61268 0,2.11137 -1.42776,3.89169 -3.36715,4.43706 -0.39688,0.11146 -0.8136,0.17562 -1.24553,0.17562 -0.1485,0 -0.29468,-0.009 -0.43954,-0.0222 -0.0298,0.60391 -0.12501,1.18963 -0.28244,1.75088 0.23978,-0.0205 0.47658,-0.0513 0.72198,-0.0513 0.34065,0 0.67469,0.0265 1.00476,0.0661 4.15164,0.49874 7.3822,4.03655 7.3822,8.32048 h 1.67713 c 0,-4.32858 -2.75233,-8.01687 -6.59474,-9.43471"
       inkscape:connector-curvature="0" />
    <path
       id="path38"
       style="fill:#35bf55;fill-opacity:1;fill-rule:nonzero;stroke:none;stroke-width:0.03307291"
       d="m 19.583609,22.500858 c 0.24474,0 0.48187,0.0308 0.72132,0.0513 -0.15743,-0.56124 -0.25202,-1.14696 -0.28211,-1.75088 -0.14486,0.0136 -0.29104,0.0222 -0.43921,0.0222 -0.43226,0 -0.84898,-0.0642 -1.24586,-0.17561 -1.93939,-0.54537 -3.36715,-2.32569 -3.36715,-4.43707 0,-2.54363 2.06904,-4.61268 4.61301,-4.61268 1.05403,0 2.02439,0.35951 2.80194,0.95714 0.4478,0.34362 0.82913,0.76696 1.1258,1.24949 0.46137,-0.31287 0.95944,-0.57414 1.48266,-0.78581 -0.296,-0.50039 -0.65749,-0.95614 -1.0762,-1.355 -1.12944,-1.07718 -2.6541,-1.7432699 -4.3342,-1.7432699 -3.46902,0 -6.290469,2.8214499 -6.290469,6.2901399 0,2.18678 1.123159,4.11427 2.820789,5.24205 -3.842412,1.41784 -6.5947404,5.10613 -6.5947404,9.43472 h 1.6771284 c 0,-4.28394 3.230562,-7.82175 7.382532,-8.32049 0.33007,-0.0397 0.66378,-0.0661 1.00476,-0.0661"
       inkscape:connector-curvature="0" />
    <path
       id="path40"
       style="fill:#35bf55;fill-opacity:1;fill-rule:nonzero;stroke:none;stroke-width:0.03307291"
       d="m 45.697319,15.581678 c 1.69797,-1.12746 2.82079,-3.05495 2.82079,-5.24173 0,-3.4686799 -2.82145,-6.2901299 -6.29014,-6.2901299 -1.68043,0 -3.20509,0.66608 -4.33453,1.74327 -0.41871,0.39886 -0.77986,0.85493 -1.0762,1.355 0.52322,0.21166 1.0213,0.47294 1.48266,0.78581 0.29667,-0.48254 0.678,-0.90587 1.12581,-1.2495 0.77754,-0.59762 1.74757,-0.95746 2.80226,-0.95746 2.54331,0 4.61268,2.06938 4.61268,4.6130099 0,1.8587 -1.10728,3.45844 -2.69544,4.18737 0.0708,0.39786 0.11443,0.80499 0.11443,1.2227 0,0.38133 -0.041,0.75208 -0.10021,1.11687 3.69458,0.87544 6.4555,4.19133 6.4555,8.15016 h 1.67713 c 0,-4.32891 -2.75233,-8.0172 -6.59474,-9.43537"
       inkscape:connector-curvature="0" />
    <path
       id="path42"
       style="fill:#35bf55;fill-opacity:1;fill-rule:nonzero;stroke:none;stroke-width:0.03307291"
       d="m 11.680835,15.750018 c 0,-0.41771 0.04366,-0.82484 0.114101,-1.2227 -1.58783,-0.72893 -2.6951124,-2.32867 -2.6951124,-4.18737 0,-2.5436299 2.0690424,-4.6130099 4.6126814,-4.6130099 1.054364,0 2.024394,0.35984 2.802264,0.95746 0.44748,0.34363 0.82914,0.76696 1.12581,1.2495 0.46136,-0.31287 0.95944,-0.57415 1.48265,-0.78581 -0.296,-0.50007 -0.65782,-0.95614 -1.07619,-1.355 -1.12944,-1.07719 -2.6541,-1.74327 -4.334534,-1.74327 -3.468358,0 -6.2901394,2.82145 -6.2901394,6.2901299 0,2.18678 1.122826,4.11427 2.8211204,5.24173 -3.8427424,1.41817 -6.5950704,5.10646 -6.5950704,9.43537 h 1.677127 c 0,-3.95883 2.760597,-7.27472 6.4555034,-8.15016 -0.0592,-0.36479 -0.100211,-0.73554 -0.100211,-1.11687"
       inkscape:connector-curvature="0" />
    <path
       id="path44"
       style="fill:#35bf55;fill-opacity:1;fill-rule:nonzero;stroke:none;stroke-width:0.03307291"
       d="m 27.970239,5.7269381 c 2.24267,0 4.09674,1.61661 4.50784,3.74088 0.91843,-0.55364 1.58121,-0.67766 1.58121,-0.67766 -0.69287,-2.72025 -3.15614,-4.74034 -6.08905,-4.74034 -2.93291,0 -5.39585,2.02009 -6.08906,4.74034 0,0 0.66279,0.12402 1.58089,0.67766 0.41143,-2.12427 2.26549,-3.74088 4.50817,-3.74088"
       inkscape:connector-curvature="0" />
  </g>
</svg>
