<?xml version="1.0" encoding="UTF-8" standalone="no"?>
<!-- Created with Inkscape (http://www.inkscape.org/) -->

<svg
   xmlns:dc="http://purl.org/dc/elements/1.1/"
   xmlns:cc="http://creativecommons.org/ns#"
   xmlns:rdf="http://www.w3.org/1999/02/22-rdf-syntax-ns#"
   xmlns:svg="http://www.w3.org/2000/svg"
   xmlns="http://www.w3.org/2000/svg"
   xmlns:sodipodi="http://sodipodi.sourceforge.net/DTD/sodipodi-0.dtd"
   xmlns:inkscape="http://www.inkscape.org/namespaces/inkscape"
   width="46.332458mm"
   height="47.226311mm"
   viewBox="0 0 46.332458 47.226311"
   version="1.1"
   id="svg8"
   inkscape:version="0.92.2 (5c3e80d, 2017-08-06)"
   sodipodi:docname="player1.svg">
  <defs
     id="defs2">
    <clipPath
       clipPathUnits="userSpaceOnUse"
       id="clipPath610">
      <path
         d="m 1745.17,565.148 c 16.14,15.481 31.41,32.454 44.63,50.493 13.21,18.05 23.38,38.879 25.81,61.109 -0.16,-5.078 3.07,-7.211 7.92,-7.211 0.36,0 0.73,0.012 1.11,0.043 5.46,0.328 10.14,4.496 12.37,9.488 2.24,4.989 2.39,10.66 1.9,16.102 -1.04,11.348 -4.77,22.449 -10.8,32.109 1.33,-0.293 2.66,-0.429 3.99,-0.429 10.18,0 20.14,8.117 26.97,16.027 7.71,8.93 11.64,20.5 14.31,32 2.67,11.5 6.27,26.66 10.19,37.793 4.87,-50.063 -5.91,-101.531 -30.45,-145.422 -24.55,-43.898 -62.75,-80.031 -107.95,-102.102"
         id="path612"
         inkscape:connector-curvature="0" />
    </clipPath>
    <radialGradient
       fx="0"
       fy="0"
       cx="0"
       cy="0"
       r="1"
       gradientUnits="userSpaceOnUse"
       gradientTransform="matrix(405.64,-574.329,574.329,405.64,1064.97,1286.23)"
       spreadMethod="pad"
       id="radialGradient614">
      <stop
         style="stop-opacity:1;stop-color:#7ed3c1"
         offset="0"
         id="stop616" />
      <stop
         style="stop-opacity:1;stop-color:#275f84"
         offset="1"
         id="stop618" />
    </radialGradient>
    <clipPath
       clipPathUnits="userSpaceOnUse"
       id="clipPath594">
      <path
         d="m 1296.26,479.77 c 22.39,3.55 47.5,17.871 65.05,32.218 1.32,-3.797 3.14,-8.156 4.47,-11.957 23.94,0.86 46.67,5.008 69.3,12.891 5.47,9.258 10.41,19.5 11.82,30.168 2.83,-6.379 6.95,-11.668 9.78,-18.051 44.06,4.02 88.99,13.27 130.8,27.731 0.35,7.789 3.99,12.75 4.34,20.539 13.24,-6.18 28.39,-10.399 43.7,-11.957 -12.84,-8.704 -26.05,-16.832 -39.64,-24.383 -97.48,-29.578 -198.09,-48.809 -299.62,-57.199"
         id="path596"
         inkscape:connector-curvature="0" />
    </clipPath>
    <radialGradient
       fx="0"
       fy="0"
       cx="0"
       cy="0"
       r="1"
       gradientUnits="userSpaceOnUse"
       gradientTransform="matrix(405.64,-574.329,574.329,405.64,1064.97,1286.23)"
       spreadMethod="pad"
       id="radialGradient598">
      <stop
         style="stop-opacity:1;stop-color:#6dcdbd"
         offset="0"
         id="stop600" />
      <stop
         style="stop-opacity:1;stop-color:#23577d"
         offset="1"
         id="stop602" />
    </radialGradient>
    <clipPath
       clipPathUnits="userSpaceOnUse"
       id="clipPath578">
      <path
         d="m 1595.88,536.969 c 13.59,7.551 26.8,15.679 39.64,24.383 4.33,-0.454 8.68,-0.672 13.01,-0.672 10.46,0 20.77,1.34 30.35,4.261 -27.37,-10.171 -55.06,-19.5 -83,-27.972"
         id="path580"
         inkscape:connector-curvature="0" />
    </clipPath>
    <radialGradient
       fx="0"
       fy="0"
       cx="0"
       cy="0"
       r="1"
       gradientUnits="userSpaceOnUse"
       gradientTransform="matrix(405.64,-574.329,574.329,405.64,1064.97,1286.23)"
       spreadMethod="pad"
       id="radialGradient582">
      <stop
         style="stop-opacity:1;stop-color:#7ed3c1"
         offset="0"
         id="stop584" />
      <stop
         style="stop-opacity:1;stop-color:#275f84"
         offset="1"
         id="stop586" />
    </radialGradient>
    <clipPath
       clipPathUnits="userSpaceOnUse"
       id="clipPath562">
      <path
         d="m 1328.94,423.422 c -144.59,0 -289.23,34.148 -418.198,99.609 56.391,-23.172 115.888,-30.203 176.618,-30.203 5.97,0 11.95,0.07 17.94,0.203 1.83,-12.082 12.64,-22.301 24.8,-23.429 13.35,0.757 26.89,6.648 33.91,18.039 85.04,-33.84 176.08,-56.582 267.58,-58.43 -34.08,-3.871 -68.36,-5.789 -102.65,-5.789"
         id="path564"
         inkscape:connector-curvature="0" />
    </clipPath>
    <radialGradient
       fx="0"
       fy="0"
       cx="0"
       cy="0"
       r="1"
       gradientUnits="userSpaceOnUse"
       gradientTransform="matrix(405.64,-574.329,574.329,405.64,1064.97,1286.23)"
       spreadMethod="pad"
       id="radialGradient566">
      <stop
         style="stop-opacity:1;stop-color:#7ed3c1"
         offset="0"
         id="stop568" />
      <stop
         style="stop-opacity:1;stop-color:#275f84"
         offset="1"
         id="stop570" />
    </radialGradient>
    <clipPath
       clipPathUnits="userSpaceOnUse"
       id="clipPath510">
      <path
         d="m 1299.51,471.121 c -81.33,4.82 -161.61,27.168 -232.9,66.668 -96.575,53.512 -142.43,150.563 -210.149,237.762 87.105,-83.973 209.689,-124 331.289,-124 20.42,0 40.81,1.129 61,3.371 140.45,15.57 271.84,80.129 385.82,163.648 -14.77,-47.109 -44.5,-87.84 -82.45,-119.429 35.52,8.23 70.09,19.5 103.2,33.75 -32.37,-23.981 -70.63,-41.692 -109.1,-49.442 61.07,6.153 123.9,28.563 175.26,62.153 44.87,29.347 84.22,71.66 129.08,102.277 -37.62,-116.258 -114.31,-218.32 -215.04,-286.527 -15.31,1.558 -30.46,5.777 -43.7,11.957 -0.35,-7.789 -3.99,-12.75 -4.34,-20.539 -41.81,-14.461 -86.74,-23.711 -130.8,-27.731 -2.83,6.383 -6.95,11.672 -9.78,18.051 -1.41,-10.668 -6.35,-20.91 -11.82,-30.168 -22.63,-7.883 -45.36,-12.031 -69.3,-12.891 -1.33,3.801 -3.15,8.16 -4.47,11.957 -17.55,-14.347 -42.66,-28.668 -65.05,-32.218 101.53,8.39 202.14,27.621 299.62,57.199 -14.33,-7.969 -29.07,-15.278 -44.16,-21.879 -4.61,-2.02 -9.25,-3.969 -13.92,-5.848 -37.53,-7.594 -66.07,-10.472 -66.07,-10.472 0,0 -96.2,-20.809 -172.22,-27.649"
         id="path512"
         inkscape:connector-curvature="0" />
    </clipPath>
    <radialGradient
       fx="0"
       fy="0"
       cx="0"
       cy="0"
       r="1"
       gradientUnits="userSpaceOnUse"
       gradientTransform="matrix(405.64,-574.329,574.329,405.64,1064.97,1286.23)"
       spreadMethod="pad"
       id="radialGradient514">
      <stop
         style="stop-opacity:1;stop-color:#7ed3c1"
         offset="0"
         id="stop516" />
      <stop
         style="stop-opacity:1;stop-color:#275f84"
         offset="1"
         id="stop518" />
    </radialGradient>
    <clipPath
       clipPathUnits="userSpaceOnUse"
       id="clipPath494">
      <path
         d="m 1420.45,824.68 c -232.61,28.261 -453.134,148.57 -618.098,314.99 13.457,48.37 35.632,94.29 65.148,134.91 -9.152,-89.98 40.031,-179.12 108.422,-238.3 68.388,-59.178 158.688,-89.061 248.848,-96.108 13.53,-1.063 27.13,-1.621 40.75,-1.621 62.43,0 125.01,11.711 180.15,40.437 55.76,29.042 101.47,73.972 144.13,120.162 62.18,67.31 123.7,137.58 181.24,208.9 -52.02,-106.3 -99.63,-222.72 -140.75,-333.679 -72.83,-47 -146,-89.031 -226.73,-120.582 6.86,-9.859 10.03,-19.238 16.89,-29.109"
         id="path496"
         inkscape:connector-curvature="0" />
    </clipPath>
    <radialGradient
       fx="0"
       fy="0"
       cx="0"
       cy="0"
       r="1"
       gradientUnits="userSpaceOnUse"
       gradientTransform="matrix(405.64,-574.329,574.329,405.64,1064.97,1286.23)"
       spreadMethod="pad"
       id="radialGradient498">
      <stop
         style="stop-opacity:1;stop-color:#6dcdbd"
         offset="0"
         id="stop500" />
      <stop
         style="stop-opacity:1;stop-color:#23577d"
         offset="1"
         id="stop502" />
    </radialGradient>
    <clipPath
       clipPathUnits="userSpaceOnUse"
       id="clipPath478">
      <path
         d="m 1478.03,799.582 c -87.15,0 -167.41,41.199 -252.6,63.707 -193.55,51.141 -343.77,144.841 -461.305,272.181 44.254,158.07 141.262,300.87 271.895,400.26 -47.247,-45.6 -92.672,-118.71 -96.973,-184.22 -4.301,-65.52 20.609,-133.44 69.763,-176.97 42.91,-38 101.24,-55.71 158.54,-56.62 1.67,-0.03 3.34,-0.04 5.01,-0.04 55.59,0 110.43,14.52 162.34,34.53 185.39,71.48 343.6,214.33 427.46,394.45 46.73,-75.7 65.19,-176.16 36.55,-260.38 -34.17,-100.45 -83.16,-199.58 -149.61,-282.29 3.47,-6.362 10.91,-18.44 14.38,-24.792 -64.3,-59.41 -129.84,-105.738 -210.37,-140.046 12.6,-11.082 27.41,-28.262 40.03,-39.352 -5.07,-0.281 -10.1,-0.418 -15.11,-0.418 m -57.58,25.098 v 0 0 c -6.86,9.871 -10.03,19.25 -16.89,29.109 80.73,31.551 153.9,73.582 226.73,120.582 41.12,110.959 88.73,227.379 140.75,333.679 -57.54,-71.32 -119.06,-141.59 -181.24,-208.9 -42.66,-46.19 -88.37,-91.12 -144.13,-120.162 -55.14,-28.726 -117.72,-40.437 -180.15,-40.437 -13.62,0 -27.22,0.558 -40.75,1.621 -90.16,7.047 -180.46,36.93 -248.848,96.108 -68.391,59.18 -117.574,148.32 -108.422,238.3 -29.516,-40.62 -51.691,-86.54 -65.148,-134.91 C 967.316,973.25 1187.84,852.941 1420.45,824.68"
         id="path480"
         inkscape:connector-curvature="0" />
    </clipPath>
    <radialGradient
       fx="0"
       fy="0"
       cx="0"
       cy="0"
       r="1"
       gradientUnits="userSpaceOnUse"
       gradientTransform="matrix(405.64,-574.329,574.329,405.64,1064.97,1286.23)"
       spreadMethod="pad"
       id="radialGradient482">
      <stop
         style="stop-opacity:1;stop-color:#7ed3c1"
         offset="0"
         id="stop484" />
      <stop
         style="stop-opacity:1;stop-color:#275f84"
         offset="1"
         id="stop486" />
    </radialGradient>
    <clipPath
       clipPathUnits="userSpaceOnUse"
       id="clipPath462">
      <path
         d="m 1309.47,338.922 -41.34,20.117 -1.04,0.512 -1.2,0.019 c -19.68,0.321 -39.58,1.551 -59.3,3.27 -19.75,1.719 -39.43,4.18 -58.91,7.519 -19.5,3.27 -38.85,7.43 -57.55,13.379 -18.6,5.922 -37.07,13.121 -52.56,24.223 l -0.97,0.699 c 48.45,-16.789 96.62,-40 146.28,-40 4.99,0 9.99,0.238 15.01,0.731 26.42,2.629 49.06,7.211 75.48,9.828 13.8,-11.637 28.92,-21.84 44.1,-31.61 30.66,7.532 60.5,20.653 91.91,20.653 1.41,0 2.82,-0.032 4.24,-0.082 2.1,-0.078 4.26,-0.121 6.47,-0.121 76.42,0 210.54,47.293 210.54,47.293 0,0 19.49,-0.563 40,-1.411 -3.8,-3.242 -7.63,-6.441 -11.48,-9.609 l -28.67,-3.422 -0.92,-0.109 -0.83,-0.422 c -33.75,-17.238 -70.01,-29.449 -107.29,-36.309 -26.33,-4.89 -53.13,-7.14 -79.96,-7.14 -11.16,0 -22.31,0.39 -33.45,1.14 l -0.68,0.051 -0.71,-0.141 -97.17,-19.058 m -288.8,69.418 c -5.08,0 -10.24,0.211 -15.36,0.492 -9.259,0.449 -18.591,1.238 -27.826,1.977 -30.589,20.832 -57.644,47 -82.879,74.613 -25.542,28.027 -49.242,57.816 -73.171,87.359 5.964,-8.07 11.91,-16.152 17.882,-24.222 -0.3,0.39 -0.597,0.773 -0.894,1.16 -6.059,7.82 -12,15.543 -17.828,23.062 0,0 -4.414,2.61 -11.219,6.391 -14.535,8.066 -39.973,21.457 -56.445,26.066 -64.125,92.543 -87.996,216.762 -68.582,327.653 -24.407,50.488 -37.68,106.839 -39.055,162.899 13.043,11.26 26.402,22.75 39.445,34.01 3.297,74.35 31.625,146.85 76.418,206.29 5.489,0.86 9.957,1.32 15.449,2.19 7.875,17.52 16.399,34.8 25.532,51.75 46.922,87.07 110.148,165.74 187.023,227.63 4.235,15.52 11.75,29.79 22.38,41.86 15.25,1.56 40.36,1.8 54.16,1.8 6,0 9.86,-0.04 9.86,-0.04 0,0 45.47,23.22 69.41,35.12 21.74,-4.79 44.31,-12.81 63.36,-24.33 121.84,44.7 248.06,68.25 377.45,78.23 -3.61,-26.99 -4.08,-56.12 -1.47,-83.22 6.64,-3.37 11.96,-8.13 16.71,-13.87 -0.69,-23.1 -0.38,-46.39 -1.07,-69.49 1.61,0.43 3.27,0.89 4.99,1.36 40.49,11.06 111.94,30.88 111.94,30.88 0,0 16.89,-5.39 25.13,-10.42 40.93,6.89 82.44,10.34 123.94,10.34 25.15,0 50.29,-1.27 75.3,-3.81 1.57,-20.8 3.21,-43.76 4.78,-64.56 3.7,-49.25 -8.76,-98.39 -23.2,-145.62 6.93,-4.77 15,-8.18 21.93,-12.95 -7.84,-61.64 -6.84,-122.94 0.62,-184.64 18.18,-1.97 37.17,-3.25 56.01,-3.25 7.44,0 14.87,0.2 22.21,0.64 -45.44,-88.9 -103.19,-240.76 -103.19,-240.76 0,0 -75.67,-57.321 -122.69,-70.289 9.86,-2.75 17.86,-5.809 27.72,-8.559 -49.74,-56.113 -113.99,-98.66 -184.26,-124.812 14.44,0.582 30.93,2.039 45.37,2.609 -9.55,-9.649 -20.04,-18.699 -31.23,-26.988 -33.11,-14.25 -67.68,-25.52 -103.2,-33.75 37.95,31.589 67.68,72.32 82.45,119.429 -113.98,-83.519 -245.37,-148.078 -385.82,-163.648 -20.19,-2.242 -40.58,-3.371 -61,-3.371 -121.6,0 -244.184,40.027 -331.289,124 67.719,-87.199 113.574,-184.25 210.149,-237.762 71.29,-39.5 151.57,-61.848 232.9,-66.668 -14.95,-1.34 -29.12,-2.152 -41.63,-2.152 -1.54,0 -3.07,0.011 -4.56,0.043 50.95,-6.282 102.26,-9.364 153.57,-9.364 84.75,0 169.52,8.391 252.77,24.582 -109.05,-44.98 -226.84,-68.75 -344.81,-69.148 -1.03,0 -2.07,0 -3.1,0 -148.07,0 -296.15,35.039 -426.926,104.488 31.672,-41.398 68.66,-88.05 119.176,-100.941 10.49,-2.68 20.95,-5.957 31.39,-9.559 l -1.45,-0.14 c -4.32,-0.418 -8.77,-0.59 -13.27,-0.59 M 910.742,523.031 c 128.968,-65.461 273.608,-99.609 418.198,-99.609 34.29,0 68.57,1.918 102.65,5.789 -91.5,1.848 -182.54,24.59 -267.58,58.43 -7.02,-11.391 -20.56,-17.282 -33.91,-18.039 -12.16,1.128 -22.97,11.347 -24.8,23.429 -5.99,-0.133 -11.97,-0.203 -17.94,-0.203 -60.73,0 -120.227,7.031 -176.618,30.203 M 1036.02,1535.73 C 905.387,1436.34 808.379,1293.54 764.125,1135.47 881.66,1008.13 1031.88,914.43 1225.43,863.289 c 85.19,-22.508 165.45,-63.707 252.6,-63.707 5.01,0 10.04,0.137 15.11,0.418 -12.62,11.09 -27.43,28.27 -40.03,39.352 80.53,34.308 146.07,80.636 210.37,140.046 -3.47,6.352 -10.91,18.43 -14.38,24.792 66.45,82.71 115.44,181.84 149.61,282.29 28.64,84.22 10.18,184.68 -36.55,260.38 -83.86,-180.12 -242.07,-322.97 -427.46,-394.45 -51.91,-20.01 -106.75,-34.53 -162.34,-34.53 -1.67,0 -3.34,0.01 -5.01,0.04 -57.3,0.91 -115.63,18.62 -158.54,56.62 -49.154,43.53 -74.064,111.45 -69.763,176.97 4.301,65.51 49.726,138.62 96.973,184.22 M 1537.8,509.242 c 4.67,1.879 9.31,3.828 13.92,5.848 15.09,6.601 29.83,13.91 44.16,21.879 27.94,8.472 55.63,17.801 83,27.972 -9.58,-2.921 -19.89,-4.261 -30.35,-4.261 -4.33,0 -8.68,0.218 -13.01,0.672 100.73,68.207 177.42,170.269 215.04,286.527 13.18,9 26.84,16.992 41.26,23.34 4.61,-72.239 4.59,-145.547 -26.8,-210.778 -31.38,-65.23 -94.48,-118.863 -166.78,-122.281 -4.86,10.18 -6.34,23.391 -4.69,34.551 -34.51,-33.422 -103.76,-52.961 -155.75,-63.469 m 277.81,167.508 c -2.43,-22.23 -12.6,-43.059 -25.81,-61.109 -13.22,-18.039 -28.49,-35.012 -44.63,-50.493 45.2,22.071 83.4,58.204 107.95,102.102 24.54,43.891 35.32,95.359 30.45,145.422 -3.92,-11.133 -7.52,-26.293 -10.19,-37.793 -2.67,-11.5 -6.6,-23.07 -14.31,-32 -6.83,-7.91 -16.79,-16.027 -26.97,-16.027 -1.33,0 -2.66,0.136 -3.99,0.429 6.03,-9.66 9.76,-20.761 10.8,-32.109 0.49,-5.442 0.34,-11.113 -1.9,-16.102 -2.23,-4.992 -6.91,-9.16 -12.37,-9.488 -0.38,-0.031 -0.75,-0.043 -1.11,-0.043 -4.85,0 -8.08,2.133 -7.92,7.211 m 211.31,494.53 c 2.4,6.2 4.94,12.32 7.64,18.36 -2.7,-6.04 -5.24,-12.16 -7.64,-18.36 v 0 m 13.73,31.88 c 0.09,0.01 0.18,0.02 0.28,0.03 v 0 c -0.1,-0.01 -0.19,-0.02 -0.28,-0.03"
         id="path464"
         inkscape:connector-curvature="0" />
    </clipPath>
    <radialGradient
       fx="0"
       fy="0"
       cx="0"
       cy="0"
       r="1"
       gradientUnits="userSpaceOnUse"
       gradientTransform="matrix(405.64,-574.329,574.329,405.64,1064.97,1286.23)"
       spreadMethod="pad"
       id="radialGradient466">
      <stop
         style="stop-opacity:1;stop-color:#93dac6"
         offset="0"
         id="stop468" />
      <stop
         style="stop-opacity:1;stop-color:#29688b"
         offset="1"
         id="stop470" />
    </radialGradient>
  </defs>
  <sodipodi:namedview
     id="base"
     pagecolor="#ffffff"
     bordercolor="#666666"
     borderopacity="1.0"
     inkscape:pageopacity="0.0"
     inkscape:pageshadow="2"
     inkscape:zoom="0.35"
     inkscape:cx="123.68621"
     inkscape:cy="-450.07829"
     inkscape:document-units="mm"
     inkscape:current-layer="layer1"
     showgrid="false"
     inkscape:window-width="1920"
     inkscape:window-height="1001"
     inkscape:window-x="-9"
     inkscape:window-y="-9"
     inkscape:window-maximized="1" />
  <metadata
     id="metadata5">
    <rdf:RDF>
      <cc:Work
         rdf:about="">
        <dc:format>image/svg+xml</dc:format>
        <dc:type
           rdf:resource="http://purl.org/dc/dcmitype/StillImage" />
        <dc:title></dc:title>
      </cc:Work>
    </rdf:RDF>
  </metadata>
  <g
     inkscape:label="Capa 1"
     inkscape:groupmode="layer"
     id="layer1"
     transform="translate(-66.036154,-76.839227)">
    <g
       id="layer1-1"
       inkscape:label="Capa 1"
       transform="translate(46.868763,59.720149)">
      <g
         id="g458"
         transform="matrix(0.03307292,0,0,-0.03307292,-2.0281224,75.194128)">
        <g
           id="g460"
           clip-path="url(#clipPath462)">
          <path
             d="m 1309.47,338.922 -41.34,20.117 -1.04,0.512 -1.2,0.019 c -19.68,0.321 -39.58,1.551 -59.3,3.27 -19.75,1.719 -39.43,4.18 -58.91,7.519 -19.5,3.27 -38.85,7.43 -57.55,13.379 -18.6,5.922 -37.07,13.121 -52.56,24.223 l -0.97,0.699 c 48.45,-16.789 96.62,-40 146.28,-40 4.99,0 9.99,0.238 15.01,0.731 26.42,2.629 49.06,7.211 75.48,9.828 13.8,-11.637 28.92,-21.84 44.1,-31.61 30.66,7.532 60.5,20.653 91.91,20.653 1.41,0 2.82,-0.032 4.24,-0.082 2.1,-0.078 4.26,-0.121 6.47,-0.121 76.42,0 210.54,47.293 210.54,47.293 0,0 19.49,-0.563 40,-1.411 -3.8,-3.242 -7.63,-6.441 -11.48,-9.609 l -28.67,-3.422 -0.92,-0.109 -0.83,-0.422 c -33.75,-17.238 -70.01,-29.449 -107.29,-36.309 -26.33,-4.89 -53.13,-7.14 -79.96,-7.14 -11.16,0 -22.31,0.39 -33.45,1.14 l -0.68,0.051 -0.71,-0.141 -97.17,-19.058 m -288.8,69.418 c -5.08,0 -10.24,0.211 -15.36,0.492 -9.259,0.449 -18.591,1.238 -27.826,1.977 -30.589,20.832 -57.644,47 -82.879,74.613 -25.542,28.027 -49.242,57.816 -73.171,87.359 5.964,-8.07 11.91,-16.152 17.882,-24.222 -0.3,0.39 -0.597,0.773 -0.894,1.16 -6.059,7.82 -12,15.543 -17.828,23.062 0,0 -4.414,2.61 -11.219,6.391 -14.535,8.066 -39.973,21.457 -56.445,26.066 -64.125,92.543 -87.996,216.762 -68.582,327.653 -24.407,50.488 -37.68,106.839 -39.055,162.899 13.043,11.26 26.402,22.75 39.445,34.01 3.297,74.35 31.625,146.85 76.418,206.29 5.489,0.86 9.957,1.32 15.449,2.19 7.875,17.52 16.399,34.8 25.532,51.75 46.922,87.07 110.148,165.74 187.023,227.63 4.235,15.52 11.75,29.79 22.38,41.86 15.25,1.56 40.36,1.8 54.16,1.8 6,0 9.86,-0.04 9.86,-0.04 0,0 45.47,23.22 69.41,35.12 21.74,-4.79 44.31,-12.81 63.36,-24.33 121.84,44.7 248.06,68.25 377.45,78.23 -3.61,-26.99 -4.08,-56.12 -1.47,-83.22 6.64,-3.37 11.96,-8.13 16.71,-13.87 -0.69,-23.1 -0.38,-46.39 -1.07,-69.49 1.61,0.43 3.27,0.89 4.99,1.36 40.49,11.06 111.94,30.88 111.94,30.88 0,0 16.89,-5.39 25.13,-10.42 40.93,6.89 82.44,10.34 123.94,10.34 25.15,0 50.29,-1.27 75.3,-3.81 1.57,-20.8 3.21,-43.76 4.78,-64.56 3.7,-49.25 -8.76,-98.39 -23.2,-145.62 6.93,-4.77 15,-8.18 21.93,-12.95 -7.84,-61.64 -6.84,-122.94 0.62,-184.64 18.18,-1.97 37.17,-3.25 56.01,-3.25 7.44,0 14.87,0.2 22.21,0.64 -45.44,-88.9 -103.19,-240.76 -103.19,-240.76 0,0 -75.67,-57.321 -122.69,-70.289 9.86,-2.75 17.86,-5.809 27.72,-8.559 -49.74,-56.113 -113.99,-98.66 -184.26,-124.812 14.44,0.582 30.93,2.039 45.37,2.609 -9.55,-9.649 -20.04,-18.699 -31.23,-26.988 -33.11,-14.25 -67.68,-25.52 -103.2,-33.75 37.95,31.589 67.68,72.32 82.45,119.429 -113.98,-83.519 -245.37,-148.078 -385.82,-163.648 -20.19,-2.242 -40.58,-3.371 -61,-3.371 -121.6,0 -244.184,40.027 -331.289,124 67.719,-87.199 113.574,-184.25 210.149,-237.762 71.29,-39.5 151.57,-61.848 232.9,-66.668 -14.95,-1.34 -29.12,-2.152 -41.63,-2.152 -1.54,0 -3.07,0.011 -4.56,0.043 50.95,-6.282 102.26,-9.364 153.57,-9.364 84.75,0 169.52,8.391 252.77,24.582 -109.05,-44.98 -226.84,-68.75 -344.81,-69.148 -1.03,0 -2.07,0 -3.1,0 -148.07,0 -296.15,35.039 -426.926,104.488 31.672,-41.398 68.66,-88.05 119.176,-100.941 10.49,-2.68 20.95,-5.957 31.39,-9.559 l -1.45,-0.14 c -4.32,-0.418 -8.77,-0.59 -13.27,-0.59 M 910.742,523.031 c 128.968,-65.461 273.608,-99.609 418.198,-99.609 34.29,0 68.57,1.918 102.65,5.789 -91.5,1.848 -182.54,24.59 -267.58,58.43 -7.02,-11.391 -20.56,-17.282 -33.91,-18.039 -12.16,1.128 -22.97,11.347 -24.8,23.429 -5.99,-0.133 -11.97,-0.203 -17.94,-0.203 -60.73,0 -120.227,7.031 -176.618,30.203 M 1036.02,1535.73 C 905.387,1436.34 808.379,1293.54 764.125,1135.47 881.66,1008.13 1031.88,914.43 1225.43,863.289 c 85.19,-22.508 165.45,-63.707 252.6,-63.707 5.01,0 10.04,0.137 15.11,0.418 -12.62,11.09 -27.43,28.27 -40.03,39.352 80.53,34.308 146.07,80.636 210.37,140.046 -3.47,6.352 -10.91,18.43 -14.38,24.792 66.45,82.71 115.44,181.84 149.61,282.29 28.64,84.22 10.18,184.68 -36.55,260.38 -83.86,-180.12 -242.07,-322.97 -427.46,-394.45 -51.91,-20.01 -106.75,-34.53 -162.34,-34.53 -1.67,0 -3.34,0.01 -5.01,0.04 -57.3,0.91 -115.63,18.62 -158.54,56.62 -49.154,43.53 -74.064,111.45 -69.763,176.97 4.301,65.51 49.726,138.62 96.973,184.22 M 1537.8,509.242 c 4.67,1.879 9.31,3.828 13.92,5.848 15.09,6.601 29.83,13.91 44.16,21.879 27.94,8.472 55.63,17.801 83,27.972 -9.58,-2.921 -19.89,-4.261 -30.35,-4.261 -4.33,0 -8.68,0.218 -13.01,0.672 100.73,68.207 177.42,170.269 215.04,286.527 13.18,9 26.84,16.992 41.26,23.34 4.61,-72.239 4.59,-145.547 -26.8,-210.778 -31.38,-65.23 -94.48,-118.863 -166.78,-122.281 -4.86,10.18 -6.34,23.391 -4.69,34.551 -34.51,-33.422 -103.76,-52.961 -155.75,-63.469 m 277.81,167.508 c -2.43,-22.23 -12.6,-43.059 -25.81,-61.109 -13.22,-18.039 -28.49,-35.012 -44.63,-50.493 45.2,22.071 83.4,58.204 107.95,102.102 24.54,43.891 35.32,95.359 30.45,145.422 -3.92,-11.133 -7.52,-26.293 -10.19,-37.793 -2.67,-11.5 -6.6,-23.07 -14.31,-32 -6.83,-7.91 -16.79,-16.027 -26.97,-16.027 -1.33,0 -2.66,0.136 -3.99,0.429 6.03,-9.66 9.76,-20.761 10.8,-32.109 0.49,-5.442 0.34,-11.113 -1.9,-16.102 -2.23,-4.992 -6.91,-9.16 -12.37,-9.488 -0.38,-0.031 -0.75,-0.043 -1.11,-0.043 -4.85,0 -8.08,2.133 -7.92,7.211 m 211.31,494.53 c 2.4,6.2 4.94,12.32 7.64,18.36 -2.7,-6.04 -5.24,-12.16 -7.64,-18.36 v 0 m 13.73,31.88 c 0.09,0.01 0.18,0.02 0.28,0.03 v 0 c -0.1,-0.01 -0.19,-0.02 -0.28,-0.03"
             style="fill:url(#radialGradient466);fill-opacity:1;fill-rule:nonzero;stroke:none"
             id="path472"
             inkscape:connector-curvature="0" />
        </g>
      </g>
      <g
         id="g474"
         transform="matrix(0.03307292,0,0,-0.03307292,-2.0281224,75.194128)">
        <g
           id="g476"
           clip-path="url(#clipPath478)">
          <path
             d="m 1478.03,799.582 c -87.15,0 -167.41,41.199 -252.6,63.707 -193.55,51.141 -343.77,144.841 -461.305,272.181 44.254,158.07 141.262,300.87 271.895,400.26 -47.247,-45.6 -92.672,-118.71 -96.973,-184.22 -4.301,-65.52 20.609,-133.44 69.763,-176.97 42.91,-38 101.24,-55.71 158.54,-56.62 1.67,-0.03 3.34,-0.04 5.01,-0.04 55.59,0 110.43,14.52 162.34,34.53 185.39,71.48 343.6,214.33 427.46,394.45 46.73,-75.7 65.19,-176.16 36.55,-260.38 -34.17,-100.45 -83.16,-199.58 -149.61,-282.29 3.47,-6.362 10.91,-18.44 14.38,-24.792 -64.3,-59.41 -129.84,-105.738 -210.37,-140.046 12.6,-11.082 27.41,-28.262 40.03,-39.352 -5.07,-0.281 -10.1,-0.418 -15.11,-0.418 m -57.58,25.098 v 0 c -6.86,9.871 -10.03,19.25 -16.89,29.109 80.73,31.551 153.9,73.582 226.73,120.582 41.12,110.959 88.73,227.379 140.75,333.679 -57.54,-71.32 -119.06,-141.59 -181.24,-208.9 -42.66,-46.19 -88.37,-91.12 -144.13,-120.162 -55.14,-28.726 -117.72,-40.437 -180.15,-40.437 -13.62,0 -27.22,0.558 -40.75,1.621 -90.16,7.047 -180.46,36.93 -248.848,96.108 -68.391,59.18 -117.574,148.32 -108.422,238.3 -29.516,-40.62 -51.691,-86.54 -65.148,-134.91 C 967.316,973.25 1187.84,852.941 1420.45,824.68"
             style="fill:url(#radialGradient482);fill-opacity:1;fill-rule:nonzero;stroke:none"
             id="path488"
             inkscape:connector-curvature="0" />
        </g>
      </g>
      <g
         id="g490"
         transform="matrix(0.03307292,0,0,-0.03307292,-2.0281224,75.194128)">
        <g
           id="g492"
           clip-path="url(#clipPath494)">
          <path
             d="m 1420.45,824.68 c -232.61,28.261 -453.134,148.57 -618.098,314.99 13.457,48.37 35.632,94.29 65.148,134.91 -9.152,-89.98 40.031,-179.12 108.422,-238.3 68.388,-59.178 158.688,-89.061 248.848,-96.108 13.53,-1.063 27.13,-1.621 40.75,-1.621 62.43,0 125.01,11.711 180.15,40.437 55.76,29.042 101.47,73.972 144.13,120.162 62.18,67.31 123.7,137.58 181.24,208.9 -52.02,-106.3 -99.63,-222.72 -140.75,-333.679 -72.83,-47 -146,-89.031 -226.73,-120.582 6.86,-9.859 10.03,-19.238 16.89,-29.109"
             style="fill:url(#radialGradient498);fill-opacity:1;fill-rule:nonzero;stroke:none"
             id="path504"
             inkscape:connector-curvature="0" />
        </g>
      </g>
      <g
         id="g506"
         transform="matrix(0.03307292,0,0,-0.03307292,-2.0281224,75.194128)">
        <g
           id="g508"
           clip-path="url(#clipPath510)">
          <path
             d="m 1299.51,471.121 c -81.33,4.82 -161.61,27.168 -232.9,66.668 -96.575,53.512 -142.43,150.563 -210.149,237.762 87.105,-83.973 209.689,-124 331.289,-124 20.42,0 40.81,1.129 61,3.371 140.45,15.57 271.84,80.129 385.82,163.648 -14.77,-47.109 -44.5,-87.84 -82.45,-119.429 35.52,8.23 70.09,19.5 103.2,33.75 -32.37,-23.981 -70.63,-41.692 -109.1,-49.442 61.07,6.153 123.9,28.563 175.26,62.153 44.87,29.347 84.22,71.66 129.08,102.277 -37.62,-116.258 -114.31,-218.32 -215.04,-286.527 -15.31,1.558 -30.46,5.777 -43.7,11.957 -0.35,-7.789 -3.99,-12.75 -4.34,-20.539 -41.81,-14.461 -86.74,-23.711 -130.8,-27.731 -2.83,6.383 -6.95,11.672 -9.78,18.051 -1.41,-10.668 -6.35,-20.91 -11.82,-30.168 -22.63,-7.883 -45.36,-12.031 -69.3,-12.891 -1.33,3.801 -3.15,8.16 -4.47,11.957 -17.55,-14.347 -42.66,-28.668 -65.05,-32.218 101.53,8.39 202.14,27.621 299.62,57.199 -14.33,-7.969 -29.07,-15.278 -44.16,-21.879 -4.61,-2.02 -9.25,-3.969 -13.92,-5.848 -37.53,-7.594 -66.07,-10.472 -66.07,-10.472 0,0 -96.2,-20.809 -172.22,-27.649"
             style="fill:url(#radialGradient514);fill-opacity:1;fill-rule:nonzero;stroke:none"
             id="path520"
             inkscape:connector-curvature="0" />
        </g>
      </g>
      <path
         d="m 39.422825,59.682538 c 2.479808,0.0417 7.223454,-0.98419 7.223454,-0.98419 0,0 5.37104,-0.54246 7.33624,-2.44544 -0.0546,0.36909 -0.006,0.80602 0.15511,1.1427 2.39117,-0.11304 4.47807,-1.88684 5.5159,-4.04419 1.03816,-2.15738 1.03882,-4.58189 0.88635,-6.97104 -2.09946,0.92541 -3.71343,2.89841 -5.63364,4.15452 -1.69862,1.11092 -3.77659,1.85208 -5.79636,2.05558 1.71252,-0.34535 3.41247,-1.28624 4.64113,-2.52776 -0.47758,0.0189 -1.02295,0.067 -1.50052,0.0863 2.32403,-0.86493 4.44897,-2.27208 6.09401,-4.1279 -0.32609,-0.0909 -0.59068,-0.19212 -0.91678,-0.28307 1.55509,-0.42889 4.05772,-2.32466 4.05772,-2.32466 0,0 1.91261,-5.02907 3.41577,-7.96826 0.19149,-0.0116 0.38298,-0.0225 0.57018,-0.044 -1.16979,2.36471 -1.59015,5.14581 -1.55443,7.78411 -0.49709,0.47049 -1.19625,1.6331 -1.19625,1.6331 0.1313,1.73425 -0.0275,3.51529 -0.39588,5.32937 -0.94655,2.50465 -2.18116,4.63474 -3.66151,6.44588 -0.4941,0.60461 -1.6166,1.67908 -1.6166,1.67908 0,0 -1.35467,2.43152 -2.30882,3.49319 -0.57381,0.0675 -1.49787,0.1779 -2.1375,0.25427 1.30737,-1.04931 2.51552,-2.21059 3.59105,-3.62046 -5.44082,1.49294 -11.169048,1.97313 -16.768624,1.28287"
         style="fill:#3684b0;fill-opacity:1;fill-rule:nonzero;stroke:none;stroke-width:0.03307291"
         id="path522"
         inkscape:connector-curvature="0" />
      <path
         d="m 19.343298,39.536568 c 0.114333,1.65927 0.539387,3.30927 1.261964,4.80413 -0.642078,3.66749 0.147538,7.77578 2.268206,10.83645 0.79967,0.2235 2.237846,1.07344 2.237846,1.07344 1.4605,1.88516 3.130286,4.13217 5.100836,5.51994 0,0 1.273175,0.14314 1.945879,0.07 l 0.03208,0.0216 c -0.0056,-0.28681 -0.05689,-0.57788 -0.160073,-0.85398 -1.436389,-0.44621 -2.769625,-1.22135 -3.867481,-2.24932 -0.317301,-0.29702 -0.619885,-0.6214 -0.808368,-1.01299 -0.188482,-0.39158 -0.295837,-0.82384 -0.127,-1.22436 1.323181,0.936 2.923084,1.30936 4.49031,0.89492 -1.685429,-0.50165 -3.380945,-1.00743 -4.951644,-1.79784 -1.570699,-0.79038 -3.025907,-1.88942 -3.980359,-3.36619 -1.451338,-2.24523 -1.586474,-5.05513 -1.528597,-7.74591 0.311845,0.0956 0.63123,0.17323 0.958189,0.23151 0.172343,0.41999 0.318327,0.9055 0.490537,1.32549 4.889897,2.68847 10.454515,4.21783 16.032262,4.04654 -0.887677,-0.26756 -2.639549,-1.02205 -2.639549,-1.02205 -3.919802,-0.97588 -7.633362,-2.63948 -11.17514,-4.87528 0,0 -2.403707,-0.92693 -3.375356,-1.70984 0.236405,-0.29299 0.439241,-0.4858 0.789219,-0.62471 -1.121371,-0.60325 -2.134493,-1.40229 -2.993761,-2.34156"
         style="fill:#3684b0;fill-opacity:1;fill-rule:nonzero;stroke:none;stroke-width:0.03307291"
         id="path524"
         inkscape:connector-curvature="0" />
      <path
         d="m 62.135979,21.874968 c 0.046,0.96176 -0.13229,2.51089 -0.13229,2.51089 0,0 -1.86763,4.00381 -2.11667,6.24781 -0.20141,-0.0384 -0.3175,-0.084 -0.34197,-0.28774 -0.57448,1.86168 -0.9611,5.6181 -0.9611,5.6181 l -1.79784,3.55071 c 0,0 -0.28046,1.57328 -0.43723,2.35578 1.29911,-1.00078 2.79434,-1.94932 4.21647,-2.76555 -0.15577,-0.33867 -0.0989,-0.82319 -0.0486,-1.19261 0.1528,-1.12548 0.93828,-2.06475 1.7479,-2.98054 -0.20075,-1.89441 -0.21464,-3.77957 0.0261,-5.67398 -0.22919,-0.15776 -0.49608,-0.27054 -0.72528,-0.4283 0.47757,-1.56203 0.88966,-3.18724 0.76729,-4.81608 -0.0519,-0.68791 -0.10616,-1.44727 -0.15809,-2.13552 l -0.0387,-0.003"
         style="fill:#3684b0;fill-opacity:1;fill-rule:nonzero;stroke:none;stroke-width:0.03307291"
         id="path526"
         inkscape:connector-curvature="0" />
      <path
         d="m 50.592539,23.121818 c 0.087,-0.16438 0.18885,-0.32511 0.297,-0.48353 0.0168,-0.70578 0.0116,-1.41585 0.0327,-2.12063 -0.1571,-0.18984 -0.33305,-0.34727 -0.55265,-0.45873 -0.086,-0.89396 -0.0708,-1.85439 0.048,-2.74472 -0.62376,0.41804 -1.20485,0.89959 -1.72178,1.44397 0.32313,0.22688 0.60987,0.5328 0.81393,0.87081 -0.66807,0.23084 -1.83753,0.62011 -1.83753,0.62011 0,0 -1.67349,1.70293 -2.208613,2.82972 0.09955,0.57249 0.169663,1.13506 0.269213,1.70756 -1.06594,1.85869 -1.627849,3.94394 -1.83687,6.07648 0.728928,-1.31398 1.85738,-2.46757 3.07611,-3.34664 0.31949,-0.23019 0.8341,-0.24044 1.21609,-0.33536 -0.0304,-0.68825 0.2249,-1.31234 0.52189,-1.93378 0.22986,-0.48022 0.91579,-0.76067 1.37088,-1.0365 0.10649,-0.46071 0.29104,-0.67072 0.51163,-1.08876"
         style="fill:#3684b0;fill-opacity:1;fill-rule:nonzero;stroke:none;stroke-width:0.03307291"
         id="path528"
         inkscape:connector-curvature="0" />
      <path
         d="m 51.163049,38.694858 c 0.0192,0.21034 0.10451,0.43987 0.12336,0.65021 -2.61276,1.73567 -5.17326,3.40622 -7.786024,5.14188 1.88648,-0.6519 4.396054,-1.8283 5.952134,-3.07879 0.0956,0.13395 0.19116,0.26856 0.28674,0.40217 1.17211,-0.24772 2.36604,-0.70015 3.47696,-1.14829 2.04953,-2.67593 3.40783,-5.61545 4.63285,-8.7554 -1.28786,2.98351 -3.72235,5.45505 -6.68602,6.78822"
         style="fill:#3684b0;fill-opacity:1;fill-rule:nonzero;stroke:none;stroke-width:0.03307291"
         id="path530"
         inkscape:connector-curvature="0" />
      <path
         d="m 38.229885,28.696588 c -0.401174,-0.40184 -7.816585,2.00852 -10.929706,3.98429 3.522531,-1.08909 7.243399,-2.30121 11.491946,-2.67791 0.916781,-1.43603 1.722437,-2.94283 2.40837,-4.50222 -0.911821,1.15921 -2.97061,3.19584 -2.97061,3.19584"
         style="fill:#3684b0;fill-opacity:1;fill-rule:nonzero;stroke:none;stroke-width:0.03307291"
         id="path532"
         inkscape:connector-curvature="0" />
      <path
         d="m 55.651699,57.856318 c -4.34015,2.34156 -9.26272,3.5933 -14.193897,3.60984 -4.931503,0.0163 -9.866974,-1.14297 -14.222214,-3.45572 1.047485,1.36915 2.270786,2.91207 3.941498,3.33841 2.131219,0.54402 4.223411,1.8455 6.412508,1.62844 0.873786,-0.087 1.622557,-0.23848 2.496343,-0.32504 0.456407,0.38487 0.956469,0.72231 1.458516,1.04544 1.059656,-0.26032 2.089547,-0.72232 3.179961,-0.68034 2.481455,0.0956 7.177155,-1.56012 7.177155,-1.56012 0,0 1.49754,0.0428 2.32866,0.0977 1.12547,-0.9909 1.99992,-2.26487 2.5195,-3.67149 -0.14023,0.0113 -0.29038,-0.0165 -0.4402,-0.0443 -0.23317,-0.0433 -0.46534,-0.0867 -0.65783,0.0172"
         style="fill:#3684b0;fill-opacity:1;fill-rule:nonzero;stroke:none;stroke-width:0.03307291"
         id="path534"
         inkscape:connector-curvature="0" />
      <path
         d="m 47.500889,52.910228 c -0.8298,0.262 -1.567,0.34726 -2.396798,0.60887 1.618588,-1.27162 3.110508,-2.50656 4.729428,-3.77818 -5.549636,3.74951 -12.995673,4.51405 -19.191685,1.97078 1.921999,2.40969 4.488788,4.16682 7.556301,4.46679 3.067844,0.29974 6.950605,-1.27655 9.302754,-3.26826"
         style="fill:#3684b0;fill-opacity:1;fill-rule:nonzero;stroke:none;stroke-width:0.03307291"
         id="path536"
         inkscape:connector-curvature="0" />
      <path
         d="m 38.810315,49.537818 c -4.814094,-1.33016 -8.89205,-4.72116 -13.751587,-5.87471 -0.997876,-0.2368 -1.8796,-0.70849 -2.750079,-1.25082 0.214974,-0.21497 0.472711,-0.47265 0.687685,-0.68762 -1.089091,-0.71967 -2.090836,-1.60139 -3.005501,-2.53239 0.329539,-0.28674 0.65911,-0.57316 0.988682,-0.8599 0.317566,-2.24234 1.123057,-4.54058 2.395471,-6.41416 -0.976577,1.98272 -1.596562,4.16289 -1.750946,6.36786 0.433453,0.76498 1.061045,1.48497 1.752997,2.0277 0.556815,-0.79937 1.107579,-1.62818 1.664361,-2.42788 -0.484849,1.31134 -0.808467,2.70371 -0.938312,4.09542 0.886388,0.74606 1.875731,1.2362 3.022567,1.40133 0.245864,-0.62078 0.68795,-1.23858 1.06594,-1.78895 -0.04429,0.63074 -0.0886,1.2617 -0.13292,1.89243 3.318173,2.15103 7.156285,4.40565 10.751642,6.05169"
         style="fill:#c7ecde;fill-opacity:1;fill-rule:nonzero;stroke:none;stroke-width:0.03307291"
         id="path538"
         inkscape:connector-curvature="0" />
      <path
         d="m 24.649186,29.933178 c 1.843419,-2.92794 4.097801,-5.59693 6.676397,-7.90409 0.06582,-0.40052 0.125016,-0.72926 0.26756,-1.1096 0.850305,-0.0255 1.614289,-0.0946 2.464594,-0.12005 0.454422,-0.59928 1.057672,-1.00608 1.775023,-1.23296 0.79375,0.2034 1.52367,0.44483 2.290631,0.73256 3.569559,-1.31332 7.239992,-2.10707 11.036098,-2.33957 -0.36479,0.20108 -0.69519,0.47228 -0.97432,0.78184 0.22092,0.20902 0.4607,0.51527 0.6813,0.7243 -0.51627,0.15147 -1.48068,0.54206 -1.48068,0.54206 l -2.24631,2.56712 c 0,0 -0.292695,1.43735 -0.256976,2.12791 -0.197446,-0.72 -0.314855,-1.46017 -0.293357,-2.20662 0.623094,-0.62806 1.127783,-1.30374 1.750883,-1.93212 -0.35355,0.038 -0.7243,-0.0321 -1.077849,0.006 0.530819,-0.34495 0.919099,-0.66841 1.490599,-0.94027 -0.01,-0.0956 -0.0711,-0.21993 -0.0804,-0.31551 -2.487414,0.34694 -5.009886,0.83179 -7.39775,1.60933 0.144859,0.13196 0.199429,0.23515 0.344289,0.36711 -0.660136,-0.15842 -1.373518,-0.30989 -2.033654,-0.46798 -0.211666,0.19877 -0.483195,0.40878 -0.695193,0.60755 -0.945223,-0.0625 -1.944356,-0.044 -2.88958,-0.1065 -0.133615,0.28641 -0.379677,0.62872 -0.513292,0.91546 -0.506016,0.0681 -1.071562,0.13858 -1.577578,0.20671 l -9.79e-4,-0.007 c 0.18157,0.0952 0.305594,0.19083 0.487164,0.28641 -2.967864,1.90268 -5.581915,4.42582 -7.746636,7.20824"
         style="fill:#c7ecde;fill-opacity:1;fill-rule:nonzero;stroke:none;stroke-width:0.03307291"
         id="path540"
         inkscape:connector-curvature="0" />
      <path
         d="m 51.716359,23.213428 c 0.96606,-0.36612 1.93179,-0.73257 2.89785,-1.09868 0.47658,0.11707 1.00178,0.25598 1.43801,0.48121 1.63016,-0.4445 3.51168,-0.67138 5.54501,-0.38464 0.22754,0.57249 0.004,1.947 -0.0867,2.01811 0,0 -1.41685,3.66679 -2.07268,5.4395 -0.10021,-0.0572 -0.1872,-0.14353 -0.28741,-0.20108 -0.31518,1.41254 -0.63698,2.8155 -0.69321,4.26144 -0.0235,-1.87358 -0.0119,-3.79214 0.33636,-5.63298 0.17197,0.0298 0.31154,-0.0754 0.48319,-0.046 0.37306,-0.7018 0.73785,-1.48861 1.11092,-2.19075 -0.31618,-0.17528 -0.70776,-0.49278 -1.06892,-0.51064 0.50568,-0.48353 0.94655,-1.07553 1.45223,-1.55906 -0.20439,-0.1528 -0.48451,-0.25334 -0.6889,-0.40614 -0.50172,0.27153 -1.08149,0.52487 -1.58321,0.7964 0.0714,-0.35818 0.0605,-0.79607 0.1323,-1.15424 -0.73323,-0.0261 -1.51276,-0.127 -2.23474,0.002 0.1862,0.17197 0.29104,0.33635 0.47724,0.50833 -0.74546,-0.31353 -1.57923,-0.62905 -2.32502,-0.94258 -0.83311,0.42565 -1.90137,0.5252 -2.83237,0.61979"
         style="fill:#a0dec4;fill-opacity:1;fill-rule:nonzero;stroke:none;stroke-width:0.03307291"
         id="path542"
         inkscape:connector-curvature="0" />
      <path
         d="m 43.934302,43.622658 c 2.390837,-1.37742 4.710907,-2.87761 6.948287,-4.49289 -0.0129,-0.20075 -0.008,-0.42929 -0.0208,-0.62971 2.59027,-1.34342 4.78665,-3.45843 6.30436,-5.95048 -2.16694,2.17389 -4.78168,3.82952 -7.51482,5.22618 0.0275,0.42995 -0.04,0.81128 -0.0126,1.24123 -0.12337,0.19083 -0.34032,0.29931 -0.55034,0.38629 -0.12898,-0.30096 -0.34362,-0.55893 -0.47261,-0.85956 -0.0288,0.41539 -0.0576,0.91678 -0.086,1.33251 -0.50072,0.46897 -1.04907,0.88701 -1.63479,1.2442 2.6e-4,-0.17198 -0.0665,-0.34164 -0.0658,-0.51362 -0.75572,1.10199 -1.966848,2.05442 -2.894874,3.01585"
         style="fill:#a0dec4;fill-opacity:1;fill-rule:nonzero;stroke:none;stroke-width:0.03307291"
         id="path544"
         inkscape:connector-curvature="0" />
      <path
         d="m 27.869397,31.810728 c 1.241524,-1.21344 2.741977,-2.16065 4.371314,-2.75993 0.171979,0.10021 0.255323,0.19348 0.427302,0.29402 0.597958,-0.32246 1.151599,-0.60458 1.749557,-0.92704 -0.302617,-0.34429 -0.785482,-0.61085 -1.234612,-0.70114 1.252802,-0.0245 2.251935,-0.0251 3.482248,0.21166 0.114763,-0.0718 0.186862,-0.10252 0.301294,-0.17396 -0.313531,-0.17462 -0.588698,-0.4273 -0.90256,-0.60193 1.443302,-0.47691 2.817482,-0.94621 4.304109,-1.26272 -0.671711,0.92174 -2.498328,2.38092 -2.498328,2.38092 0,0 -6.984338,2.01149 -10.000324,3.54012"
         style="fill:#c7ecde;fill-opacity:1;fill-rule:nonzero;stroke:none;stroke-width:0.03307291"
         id="path546"
         inkscape:connector-curvature="0" />
      <path
         d="m 64.179889,39.183018 c -0.13758,0.65683 -0.23813,1.32192 -0.30592,1.99066 -0.0628,0.64393 -0.10353,1.29182 -0.10154,1.93972 -0.23614,0.23849 -0.42432,0.49649 -0.60854,0.75731 -0.19778,0.28112 -0.38332,0.56521 -0.5629,0.859 l -0.0281,0.0463 0.004,0.0555 c 0.13295,1.75921 -0.039,3.53417 -0.39026,5.26752 -0.57216,1.50945 -1.28125,2.96803 -2.14644,4.32931 -0.43292,0.68293 -0.90388,1.34101 -1.41254,1.9694 -0.50337,0.61651 -1.09438,1.18546 -1.67217,1.75091 l -0.0188,0.0182 -0.0126,0.0221 c -0.34131,0.60398 -0.69916,1.20355 -1.07388,1.78802 -0.36446,0.56482 -0.74314,1.12679 -1.17309,1.62613 l -2.78044,0.33175 -0.0304,0.004 -0.0275,0.014 c -1.11621,0.57011 -2.31544,0.97397 -3.54839,1.20085 -1.23329,0.22893 -2.49701,0.28304 -3.750805,0.19844 l -0.02249,-0.002 -0.02348,0.005 -3.213696,0.6303 -1.367234,-0.66533 -0.0344,-0.0169 -0.03969,-5.3e-4 c -0.650875,-0.0106 -1.309026,-0.0513 -1.961224,-0.10815 -0.65319,-0.0568 -1.304065,-0.13824 -1.948326,-0.24867 -0.644922,-0.10815 -1.284883,-0.24574 -1.903346,-0.44249 -0.615156,-0.19585 -1.226013,-0.43395 -1.738313,-0.80112 l -0.05391,-0.0386 -0.06615,0.007 c -0.304271,0.0297 -0.627724,0.0208 -0.946878,0.003 -0.306222,-0.0148 -0.614859,-0.041 -0.920287,-0.0654 -1.011682,-0.68899 -1.90647,-1.55444 -2.741066,-2.46768 -0.844748,-0.92694 -1.628576,-1.91215 -2.419978,-2.88922 0.747481,1.01104 1.486595,2.02932 2.294301,2.99902 0.808203,0.96649 1.681924,1.89408 2.710425,2.65747 l 0.03139,0.0231 0.04614,0.006 c 0.327488,0.0437 0.652661,0.0689 0.981869,0.0857 0.30857,0.0116 0.61681,0.018 0.936625,-0.008 0.551656,0.3814 1.166482,0.61986 1.783292,0.817 0.639299,0.20271 1.292159,0.3429 1.947995,0.4531 0.655505,0.11238 1.314648,0.19444 1.975776,0.25205 0.647898,0.0564 1.293812,0.0961 1.947664,0.10812 l 1.386747,0.67528 0.05159,0.0252 0.05424,-0.0106 3.254375,-0.63874 c 1.270664,0.0841 2.555214,0.0288 3.811324,-0.20399 1.25313,-0.23085 2.47452,-0.64155 3.61123,-1.21841 l 2.82178,-0.33665 0.0658,-0.008 0.042,-0.0479 c 0.47361,-0.54233 0.8642,-1.12745 1.24586,-1.7181 0.37505,-0.58447 0.72926,-1.17836 1.07189,-1.78296 0.57944,-0.5682 1.16053,-1.12617 1.68375,-1.7658 0.51693,-0.63857 0.99582,-1.3074 1.43536,-2.00118 0.88139,-1.38644 1.60205,-2.87049 2.18281,-4.40399 l 0.005,-0.0129 0.003,-0.014 c 0.35355,-1.74161 0.52983,-3.53248 0.40217,-5.31647 0.1657,-0.26884 0.339,-0.53809 0.52222,-0.7957 0.19348,-0.26921 0.3982,-0.53717 0.6188,-0.75809 l 0.0559,-0.0558 -0.001,-0.0727 c -0.0122,-0.66252 -0.0156,-1.32596 0.0241,-1.98808 0.0374,-0.66245 0.10682,-1.32325 0.21398,-1.97909 0.21398,-1.31034 0.57745,-2.6035 1.14234,-3.81463 -0.6188,1.18435 -1.04379,2.4689 -1.31928,3.78189"
         style="fill:#abe2d3;fill-opacity:1;fill-rule:nonzero;stroke:none;stroke-width:0.03307291"
         id="path548"
         inkscape:connector-curvature="0" />
      <path
         d="m 62.507389,23.621878 -0.13328,-1.7565 -0.0109,-0.14387 -0.1432,-0.0146 c -2.18943,-0.22192 -4.40763,-0.15082 -6.57821,0.20935 -0.27086,-0.14618 -0.53313,-0.2368 -0.80764,-0.3304 l -0.047,-0.0162 -0.0513,0.0142 -3.64562,1.00541 0.0318,-2.06639 10e-4,-0.0658 -0.0404,-0.0489 c -0.14226,-0.1733 -0.31721,-0.33238 -0.51995,-0.45144 -0.0761,-0.87379 -0.0609,-1.75849 0.0536,-2.62731 l 0.0278,-0.21035 -0.21134,0.0162 c -4.23333,0.32345 -8.454426,1.10959 -12.455257,2.57142 -0.647237,-0.37538 -1.352682,-0.62442 -2.073341,-0.78548 l -0.05953,-0.0132 -0.05391,0.0271 -2.260203,1.14399 c -0.697178,-0.002 -1.386748,-0.003 -2.093516,0.0585 l -0.06615,0.006 -0.04564,0.0516 c -0.35479,0.40184 -0.611502,0.88603 -0.75904,1.39866 -3.023592,2.44839 -5.393465,5.65183 -6.996972,9.18203 l -0.422705,0.0602 -0.06783,0.01 -0.04276,0.0566 c -1.483122,1.96883 -2.429173,4.36629 -2.556967,6.84312 l -1.250057,1.07751 -0.06148,0.0532 0.0021,0.0814 c 0.02325,0.94225 0.145984,1.88152 0.364695,2.79797 0.217025,0.89793 0.515971,1.77899 0.921379,2.61137 -0.291968,1.87328 -0.213817,3.79125 0.188747,5.62937 0.409277,1.85506 1.156394,3.64074 2.256863,5.18098 -1.052414,-1.57332 -1.737883,-3.36984 -2.086207,-5.2157 -0.347133,-1.84746 -0.357187,-3.75507 -0.01214,-5.59088 l 0.01009,-0.053 -0.02467,-0.0523 c -0.392245,-0.82874 -0.708885,-1.69562 -0.919592,-2.58955 -0.20697,-0.8675 -0.324016,-1.75617 -0.3514,-2.64715 l 1.240896,-1.06991 0.05619,-0.0486 0.0032,-0.0741 c 0.10709,-2.40308 1.017488,-4.74365 2.45358,-6.67048 l 0.439771,-0.0622 0.09108,-0.0129 0.03889,-0.0866 c 1.590444,-3.53516 3.959424,-6.74191 6.980966,-9.17641 l 0.04352,-0.0351 0.01449,-0.0536 c 0.125809,-0.46402 0.35302,-0.8976 0.662252,-1.26339 0.664435,-0.0542 1.350698,-0.0549 2.02737,-0.0526 l 0.04266,3.4e-4 0.03737,-0.0192 2.237714,-1.13209 c 0.697177,0.16008 1.379471,0.40448 1.986359,0.76895 l 0.07111,0.0427 0.07706,-0.0281 c 3.923112,-1.44264 8.065825,-2.22548 12.232025,-2.55852 -0.0976,0.85659 -0.10815,1.72045 -0.0278,2.57836 l 0.009,0.0946 0.0843,0.0423 c 0.17429,0.0876 0.32378,0.21994 0.45773,0.37373 l -0.0341,2.22514 -0.004,0.23185 0.22059,-0.0609 3.81629,-1.05238 c 0.25929,0.0876 0.53049,0.18686 0.74711,0.31155 l 0.0576,0.0331 0.0605,-0.0103 c 2.11144,-0.3552 4.26912,-0.43028 6.40034,-0.22688 l 0.11575,1.61131 c 0.0513,0.58837 0.0754,1.15127 0.0298,1.73203 -0.0837,1.15457 -0.36975,2.29394 -0.69453,3.41842 l -0.0222,0.0761 0.0632,0.0417 c 0.23052,0.15246 0.47361,0.25598 0.68726,0.39026 -0.22159,2.01811 -0.15611,4.05639 0.11807,6.05763 -0.21564,-2.02869 -0.21729,-4.08219 0.0714,-6.09501 l 0.008,-0.0549 -0.0473,-0.0331 c -0.21762,-0.15345 -0.45013,-0.26292 -0.65352,-0.39687 0.35024,-1.09504 0.66575,-2.21423 0.78614,-3.37675 0.0701,-0.58935 0.0546,-1.20484 0.004,-1.78593"
         style="fill:#fcd57e;fill-opacity:1;fill-rule:nonzero;stroke:none;stroke-width:0.03307291"
         id="path550"
         inkscape:connector-curvature="0" />
      <path
         d="m 21.787089,46.124328 c -0.649949,2.35386 0.304106,4.93613 1.947433,6.74198 1.643162,1.80608 3.886464,2.94904 6.156722,3.84793 -1.198894,-0.58704 -2.199482,-1.426 -3.046843,-2.45758 -0.231907,-0.28241 -0.132556,-0.73951 -0.201017,-1.09802 -0.170656,0.27182 -0.467287,0.52814 -0.766101,0.64558 -0.766366,-0.50436 -2.023004,-2.06447 -2.023004,-2.06447 0,0 -0.182662,-1.85235 -0.085,-2.7953 -0.210212,0.41805 -0.572592,0.78082 -0.78277,1.1989 -0.594817,-1.19916 -1.042723,-2.68979 -1.199423,-4.01902"
         style="fill:#76d0be;fill-opacity:1;fill-rule:nonzero;stroke:none;stroke-width:0.03307291"
         id="path552"
         inkscape:connector-curvature="0" />
      <path
         d="m 31.184031,51.732268 c 5.946511,1.72002 12.551834,1.03611 18.020108,-1.86568 -0.85923,0.31148 -1.78395,0.42066 -2.69478,0.49702 -0.30758,-0.46689 -0.68329,-1.01596 -0.86552,-1.54447 0.0909,0.68587 -0.201081,1.41281 -0.656826,1.93371 -0.456076,0.52063 -1.142008,0.83251 -1.834224,0.83317 -0.380008,2.7e-4 -0.788458,-0.10712 -1.023276,-0.4058 -0.239117,-0.3049 -0.242425,-0.72658 -0.234487,-1.11426 -0.680971,1.01206 -1.856714,1.58581 -3.058583,1.79394 -1.20187,0.20826 -2.433506,0.0903 -3.647612,-0.0284 -0.127662,-0.21901 -0.205383,-0.4872 -0.154451,-0.73564 -1.133409,0.32223 -2.671961,0.64598 -3.850349,0.63642"
         style="fill:#76d0be;fill-opacity:1;fill-rule:nonzero;stroke:none;stroke-width:0.03307291"
         id="path554"
         inkscape:connector-curvature="0" />
      <path
         d="m 52.993309,49.274918 c 1.61362,-0.74351 3.09099,-1.78167 4.33751,-3.04777 -0.34462,-0.18848 -0.71603,-0.339 -1.10695,-0.37438 1.63049,-0.79402 3.19187,-1.64165 4.82269,-2.43539 0.78846,-2.46662 1.88714,-4.99008 3.17269,-7.23804 -0.51627,-0.14056 -1.14433,-0.27054 -1.67647,-0.21498 0.27451,0.21233 0.47195,0.45575 0.74612,0.66807 -0.35421,0.98161 -0.88933,1.85275 -1.50514,2.69545 -0.12998,1.28488 -0.65385,2.5271 -1.45058,3.54343 -0.48981,-0.16474 -1.13242,-0.31949 -1.62223,-0.48382 0.31618,0.19185 0.57911,0.43484 0.81955,0.71569 -1.26008,1.09696 -2.77482,1.94304 -4.36993,2.44006 0.36215,0.16536 0.61417,0.41146 0.75539,0.78353 -0.72562,1.21414 -1.8458,2.34649 -2.92266,2.94815"
         style="fill:#76d0be;fill-opacity:1;fill-rule:nonzero;stroke:none;stroke-width:0.03307291"
         id="path556"
         inkscape:connector-curvature="0" />
      <g
         id="g558"
         transform="matrix(0.03307292,0,0,-0.03307292,-2.0281224,75.194128)">
        <g
           id="g560"
           clip-path="url(#clipPath562)">
          <path
             d="m 1328.94,423.422 c -144.59,0 -289.23,34.148 -418.198,99.609 56.391,-23.172 115.888,-30.203 176.618,-30.203 5.97,0 11.95,0.07 17.94,0.203 1.83,-12.082 12.64,-22.301 24.8,-23.429 13.35,0.757 26.89,6.648 33.91,18.039 85.04,-33.84 176.08,-56.582 267.58,-58.43 -34.08,-3.871 -68.36,-5.789 -102.65,-5.789"
             style="fill:url(#radialGradient566);fill-opacity:1;fill-rule:nonzero;stroke:none"
             id="path572"
             inkscape:connector-curvature="0" />
        </g>
      </g>
      <g
         id="g574"
         transform="matrix(0.03307292,0,0,-0.03307292,-2.0281224,75.194128)">
        <g
           id="g576"
           clip-path="url(#clipPath578)">
          <path
             d="m 1595.88,536.969 c 13.59,7.551 26.8,15.679 39.64,24.383 4.33,-0.454 8.68,-0.672 13.01,-0.672 10.46,0 20.77,1.34 30.35,4.261 -27.37,-10.171 -55.06,-19.5 -83,-27.972"
             style="fill:url(#radialGradient582);fill-opacity:1;fill-rule:nonzero;stroke:none"
             id="path588"
             inkscape:connector-curvature="0" />
        </g>
      </g>
      <g
         id="g590"
         transform="matrix(0.03307292,0,0,-0.03307292,-2.0281224,75.194128)">
        <g
           id="g592"
           clip-path="url(#clipPath594)">
          <path
             d="m 1296.26,479.77 c 22.39,3.55 47.5,17.871 65.05,32.218 1.32,-3.797 3.14,-8.156 4.47,-11.957 23.94,0.86 46.67,5.008 69.3,12.891 5.47,9.258 10.41,19.5 11.82,30.168 2.83,-6.379 6.95,-11.668 9.78,-18.051 44.06,4.02 88.99,13.27 130.8,27.731 0.35,7.789 3.99,12.75 4.34,20.539 13.24,-6.18 28.39,-10.399 43.7,-11.957 -12.84,-8.704 -26.05,-16.832 -39.64,-24.383 -97.48,-29.578 -198.09,-48.809 -299.62,-57.199"
             style="fill:url(#radialGradient598);fill-opacity:1;fill-rule:nonzero;stroke:none"
             id="path604"
             inkscape:connector-curvature="0" />
        </g>
      </g>
      <g
         id="g606"
         transform="matrix(0.03307292,0,0,-0.03307292,-2.0281224,75.194128)">
        <g
           id="g608"
           clip-path="url(#clipPath610)">
          <path
             d="m 1745.17,565.148 c 16.14,15.481 31.41,32.454 44.63,50.493 13.21,18.05 23.38,38.879 25.81,61.109 -0.16,-5.078 3.07,-7.211 7.92,-7.211 0.36,0 0.73,0.012 1.11,0.043 5.46,0.328 10.14,4.496 12.37,9.488 2.24,4.989 2.39,10.66 1.9,16.102 -1.04,11.348 -4.77,22.449 -10.8,32.109 1.33,-0.293 2.66,-0.429 3.99,-0.429 10.18,0 20.14,8.117 26.97,16.027 7.71,8.93 11.64,20.5 14.31,32 2.67,11.5 6.27,26.66 10.19,37.793 4.87,-50.063 -5.91,-101.531 -30.45,-145.422 -24.55,-43.898 -62.75,-80.031 -107.95,-102.102"
             style="fill:url(#radialGradient614);fill-opacity:1;fill-rule:nonzero;stroke:none"
             id="path620"
             inkscape:connector-curvature="0" />
        </g>
      </g>
    </g>
  </g>
</svg>
